<svg width="24" height="24" viewBox="0 0 24 24" fill="none" xmlns="http://www.w3.org/2000/svg">
<path d="M20.1905 8.067L19.744 8.66967L20.1905 8.067ZM3.80954 8.067L3.36312 7.46434L3.80954 8.067ZM2.25 9.67412V20H3.75V9.67412H2.25ZM5 22.75H19V21.25H5V22.75ZM21.75 20V9.67412H20.25V20H21.75ZM20.6369 7.46434L13.6369 2.27915L12.744 3.48449L19.744 8.66967L20.6369 7.46434ZM10.3631 2.27915L3.36312 7.46434L4.25597 8.66967L11.256 3.48449L10.3631 2.27915ZM13.6369 2.27915C12.6645 1.55886 11.3355 1.55886 10.3631 2.27915L11.256 3.48449C11.698 3.15708 12.302 3.15708 12.744 3.48449L13.6369 2.27915ZM21.75 9.67412C21.75 8.80277 21.3371 7.98298 20.6369 7.46434L19.744 8.66967C20.0623 8.90542 20.25 9.27805 20.25 9.67412H21.75ZM19 22.75C20.5188 22.75 21.75 21.5188 21.75 20H20.25C20.25 20.6904 19.6904 21.25 19 21.25V22.75ZM2.25 20C2.25 21.5188 3.48122 22.75 5 22.75V21.25C4.30964 21.25 3.75 20.6904 3.75 20H2.25ZM3.75 9.67412C3.75 9.27805 3.9377 8.90542 4.25597 8.66967L3.36312 7.46434C2.66295 7.98298 2.25 8.80277 2.25 9.67412H3.75Z" fill="#121219"/>
<path d="M7.75 22C7.75 22.4142 8.08579 22.75 8.5 22.75C8.91421 22.75 9.25 22.4142 9.25 22H7.75ZM14.75 22C14.75 22.4142 15.0858 22.75 15.5 22.75C15.9142 22.75 16.25 22.4142 16.25 22H14.75ZM9.25 22V15H7.75V22H9.25ZM10 14.25H14V12.75H10V14.25ZM14.75 15V22H16.25V15H14.75ZM14 14.25C14.4142 14.25 14.75 14.5858 14.75 15H16.25C16.25 13.7574 15.2426 12.75 14 12.75V14.25ZM9.25 15C9.25 14.5858 9.58579 14.25 10 14.25V12.75C8.75736 12.75 7.75 13.7574 7.75 15H9.25Z" fill="#121219"/>
</svg>
