<svg width="24" height="24" viewBox="0 0 24 24" fill="none" xmlns="http://www.w3.org/2000/svg">
<path d="M3 20.5L3 12C3 9.79086 4.79086 8 7 8L17 8C19.2091 8 21 9.79086 21 12L21 20.5C21 21.3284 20.3284 22 19.5 22L4.5 22C3.67157 22 3 21.3284 3 20.5Z" stroke="#121219" stroke-width="2" stroke-linecap="round"/>
<path d="M20.9997 12.6228C20.9997 13.8256 20.2192 15.0284 19.219 15.0284C18.8166 15.0284 18.3766 14.5419 17.9627 13.9069C17.3058 12.8991 15.9346 12.8991 15.2776 13.9069C14.8637 14.5419 14.4237 15.0284 14.0213 15.0284C13.6335 15.0284 13.2615 14.5766 12.9197 13.9754C12.3252 12.9296 11.0972 12.9296 10.5027 13.9754C10.1609 14.5766 9.78889 15.0284 9.40108 15.0284C8.99867 15.0284 8.55867 14.5419 8.14473 13.9069C7.48781 12.8991 6.18931 12.9345 5.54733 13.9519C5.1606 14.5648 4.71411 15.0284 4.20335 15.0284C3 15.0284 3 13.8256 3 12.6228" stroke="#121219" stroke-width="2" stroke-linecap="round"/>
<path d="M10.8042 5.3483L10.9555 5.51599C11.249 5.84135 11.6343 6.00267 12.019 5.99997C12.3911 5.99223 12.761 5.83097 13.045 5.51617L13.1937 5.3513C13.6417 4.70339 13.5983 3.77195 13.0634 3.17901L12 2L10.9366 3.17895C10.4025 3.77103 10.3585 4.70044 10.8042 5.3483Z" stroke="#121219" stroke-width="2"/>
</svg>
