<svg xmlns="http://www.w3.org/2000/svg" version="1.1" width="512" height="512" x="0" y="0"
    viewBox="0 0 512 512" style="enable-background:new 0 0 512 512" xml:space="preserve"><g><g><g><g><path d="m485.091 83.67c-.16.81-.33 1.62-.52 2.42-3.364 14.74-11.567 37.216-22.397 63.879-.695 1.71-2.279 2.9-4.115 3.092l-48.138 5.021c-5.477.571-6.142 8.283-.844 9.784l35.36 10.016c2.902.822 4.419 4.006 3.234 6.779-19.523 45.677-43.142 97.906-62.609 143.514-.642 1.505-1.976 2.593-3.577 2.925l-16.609 3.45c-4.699.976-5.458 7.369-1.117 9.417l7.904 3.729c2.408 1.136 3.504 3.965 2.489 6.426-12.423 30.119-21.939 55.607-25.631 71.786-6.63 29.04 3.13 59.08 24.92 78.59h-282.91c-40.32 0-71.4-36.61-63.62-76.17.16-.81.33-1.62.52-2.42 4.9-21.478 20.079-59.373 38.673-102.704.58-1.351 1.728-2.384 3.134-2.815l19.235-5.891c3.892-1.192 4.805-6.286 1.569-8.756l-9.188-7.011c-1.833-1.399-2.472-3.865-1.547-5.978.811-1.851 1.623-3.708 2.439-5.569.568-1.295 1.661-2.292 3.003-2.739l26.807-8.919c4.633-1.542 4.536-8.129-.141-9.533l-12.556-3.769c-2.878-.864-4.349-4.054-3.138-6.804 30.252-68.692 60.444-137.278 67.76-169.333 6.63-29.04-3.13-59.08-24.92-78.59h282.91c40.32.003 71.4 36.613 63.62 76.173z" fill="#ffd597" data-original="#ffd597"></path><path
    d="m421.47 7.5h-282.91c21.79 19.51 31.55 49.55 24.92 78.59-2.8 12.27-8.95 29.88-17.17 50.8h213.65c9.51 0 18.24-4.36 23.96-11.96 5.73-7.63 7.49-17.27 4.83-26.44-1.7-5.89-3.13-11.4-4.37-16.83l-.04-.2c-.13-.55-.25-1.11-.36-1.65-2.49-12.66.86-25.73 9.17-35.84.086-.105.173-.209.26-.313 18.499-22.094 54.5-9.802 56.192 18.964.35 5.953.143 12.912-.831 21.048-.098.82-.33 1.62-.52 2.42-3.245 14.221-10.995 35.642-21.263 61.077-1.385 3.431-4.557 5.821-8.238 6.205l-38.248 3.99c-6.939.724-7.781 10.493-1.069 12.395l23.21 6.574c5.81 1.646 8.844 8.025 6.461 13.574-18.72 43.59-40.814 92.576-59.334 135.864-1.287 3.008-3.959 5.197-7.162 5.863l-10.147 2.107c-5.929 1.231-6.906 9.269-1.483 11.898 4.774 2.314 7.162 7.715 5.153 12.625-11.588 28.312-20.409 52.215-23.93 67.648-6.63 29.04 3.13 59.08 24.92 78.59h36.32c-21.79-19.51-31.55-49.55-24.92-78.59 3.692-16.179 13.208-41.667 25.631-71.786 1.015-2.462-.081-5.29-2.489-6.426l-7.904-3.729c-4.341-2.048-3.583-8.441 1.117-9.417l16.609-3.449c1.602-.333 2.935-1.421 3.577-2.925 19.467-45.608 43.086-97.838 62.609-143.514 1.185-2.774-.332-5.957-3.234-6.779l-35.36-10.016c-5.298-1.501-4.633-9.212.844-9.784l48.138-5.021c1.836-.191 3.42-1.382 4.115-3.092 10.83-26.663 19.034-49.139 22.397-63.879.19-.8.36-1.61.52-2.42 7.78-39.562-23.3-76.172-63.621-76.172z"
    fill="#fcc16d" data-original="#fcc16d"></path><g><path d="m378.25 504.5h-294.229c32.35 0 58.74-23.56 63.9-53.3l42.9-14.03-43.13-8.55c-.01-.1-.03-.19-.05-.29-.16-.81-.33-1.62-.52-2.42-1.38-6.07-2.95-12.05-4.66-17.96-1.86-6.42 2.9-12.84 9.58-12.84h250.65c18.35 0 34.42 12.59 38.53 30.48.02.11.05.21.07.32.17.75.33 1.51.48 2.26 7.87 39.6-23.15 76.33-63.521 76.33z" fill="#fca62f" data-original="#fca62f"></path>
    <path
        d="m378.25 504.5h-39.7c40.37 0 71.39-36.73 63.52-76.33-.15-.75-.31-1.51-.48-2.26-.02-.11-.05-.21-.07-.32-4.11-17.89-20.18-30.48-38.53-30.48h39.7c18.35 0 34.42 12.59 38.53 30.48.02.11.05.21.07.32.17.75.33 1.51.48 2.26 7.871 39.6-23.149 76.33-63.52 76.33z"
        fill="#f98824" data-original="#f98824"></path></g><g><path d="m364.36 83.67c.16.81.33 1.62.52 2.42 1.38 6.07 2.95 12.05 4.66 17.96 1.86 6.42-2.9 12.84-9.58 12.84h-250.65c-18.35 0-34.42-12.59-38.53-30.48-.02-.11-.05-.21-.07-.32-.17-.75-.33-1.51-.48-2.26-.46-2.3-.78-4.59-.98-6.87l35.349-5.421c4.573-.701 5.823-6.703 1.91-9.171l-30.668-19.348c10.579-20.82 32.379-35.52 57.909-35.52h294.23c-40.32 0-71.399 36.61-63.62 76.17z" fill="#fca62f" data-original="#fca62f"></path>
    <path
        d="m364.36 83.67c.16.81.33 1.62.52 2.42 1.38 6.07 2.95 12.05 4.66 17.96 1.86 6.42-2.9 12.84-9.58 12.84h-36.89c6.68 0 11.44-6.42 9.58-12.84-1.71-5.91-3.28-11.89-4.66-17.96-.19-.8-.36-1.61-.52-2.42-7.78-39.56 23.3-76.17 63.62-76.17h36.89c-40.32 0-71.399 36.61-63.62 76.17z"
        fill="#f98824" data-original="#f98824"></path></g></g><g><path d="m252.344 176.175-69.874 113.948c-1.753 2.858.304 6.532 3.657 6.532h139.749c3.353 0 5.409-3.674 3.657-6.532l-69.874-113.948c-1.676-2.73-5.641-2.73-7.315 0z" fill="#fca62f" data-original="#fca62f"></path>
    <path
        d="m259.657 335.825 69.874-113.948c1.753-2.858-.304-6.532-3.657-6.532h-139.748c-3.353 0-5.409 3.674-3.657 6.532l69.874 113.948c1.675 2.73 5.64 2.73 7.314 0z"
        fill="#fb5532" data-original="#fb5532"></path>
    <g fill="#f98824"><path d="m329.531 221.88-20.921 34.12-24.93-40.65h42.19c3.361 0 5.411 3.67 3.661 6.53z" fill="#f98824" data-original="#f98824"></path>
        <path d="m228.321 215.35-24.93 40.65-20.92-34.12c-1.75-2.86.3-6.53 3.66-6.53z"
            fill="#f98824" data-original="#f98824"></path>
        <path d="m283.68 296.65-24.02 39.18c-1.68 2.72-5.64 2.72-7.32 0l-24.02-39.18z"
            fill="#f98824" data-original="#f98824"></path></g>
    <path d="m308.606 256-24.93 40.655h-55.351l-24.93-40.655 24.93-40.655h55.351z" fill="#fcb44d"
        data-original="#fcb44d"></path></g></g><g><path d="m427.981 0h-294.23c-25.503 0-48.651 13.018-61.921 34.822-3.524 5.792-1.722 13.45 4.018 17.07l21 13.248-23.918 3.668c-3.341.512-6.271 2.302-8.253 5.041-1.966 2.717-2.744 6.029-2.192 9.322.119.711.25 1.423.391 2.125.156.786.324 1.583.502 2.37.019.091.039.183.062.278.011.049.021.097.032.146 4.909 21.374 23.76 36.301 45.84 36.301h33.791c-13.342 35.129-34.111 82.289-54.246 128.01-1.442 3.277-1.41 7.021.09 10.272s4.326 5.707 7.757 6.737l4.987 1.498-19.309 6.425c-3.35 1.114-6.085 3.608-7.504 6.841l-2.441 5.574c-2.318 5.294-.728 11.441 3.868 14.949l5.318 4.059-14.583 4.464c-3.521 1.079-6.375 3.641-7.829 7.029-3.811 8.882-7.194 16.871-10.343 24.424-1.595 3.823.213 8.214 4.035 9.809.943.394 1.922.58 2.884.58 2.937 0 5.725-1.736 6.925-4.616 3.005-7.204 6.224-14.811 9.829-23.223l18.129-5.551c4.501-1.379 7.813-5.114 8.644-9.748.83-4.634-.979-9.287-4.722-12.142l-7.626-5.819 1.204-2.748 25.754-8.569c5.196-1.729 8.634-6.57 8.552-12.046-.081-5.476-3.659-10.212-8.904-11.787l-9.847-2.957c20.88-47.412 42.275-96.096 55.4-131.466h46.997c4.143 0 7.5-3.358 7.5-7.5s-3.357-7.5-7.5-7.5h-96.811c-15.021 0-27.84-10.103-31.202-24.581-.018-.082-.036-.165-.057-.25-.009-.042-.018-.084-.027-.126-.089-.395-.176-.792-.259-1.191l27.971-4.29c5.209-.798 9.269-4.648 10.343-9.807s-1.112-10.309-5.568-13.12l-24.544-15.483c10.699-16.042 28.382-25.542 47.783-25.542h250.032c-4.33 3.332-8.314 7.178-11.866 11.496-13.563 16.489-18.999 37.856-14.914 58.628.179.905.369 1.809.564 2.628 1.356 5.965 2.916 11.978 4.77 18.385.315 1.086-.119 1.889-.405 2.271-.276.367-.898.982-1.971.982h-124.738c-4.143 0-7.5 3.358-7.5 7.5s3.357 7.5 7.5 7.5h124.737c5.544 0 10.633-2.541 13.962-6.972 3.349-4.456 4.377-10.09 2.822-15.453-1.771-6.123-3.26-11.859-4.568-17.613-.168-.706-.317-1.422-.457-2.13-3.215-16.347 1.079-33.186 11.782-46.198 10.75-13.07 26.5-20.668 43.354-20.994 15.774 1.912 31.834 10.814 41.222 23.743 9.234 12.72 12.663 28.15 9.656 43.441-.143.718-.292 1.437-.474 2.206-2.926 12.816-9.951 32.888-21.471 61.336l-46.646 4.866c-6.046.631-10.634 5.301-11.156 11.358s3.197 11.444 9.047 13.102l32.624 9.241c-9.358 21.84-19.763 45.459-29.837 68.329-10.533 23.911-21.419 48.622-31.141 71.371l-15.329 3.184c-5.353 1.112-9.228 5.338-9.871 10.768-.644 5.429 2.135 10.444 7.079 12.776l5.753 2.715c-5.363 13.055-9.768 24.255-13.437 34.145h-200.833c-5.544 0-10.633 2.542-13.962 6.972-3.349 4.456-4.377 10.089-2.822 15.452 1.771 6.125 3.261 11.861 4.568 17.612.165.694.312 1.396.45 2.098.47 3.111 2.843 5.616 5.957 6.233l15.01 2.975-15.652 5.119c-2.639.863-4.584 3.112-5.059 5.846-4.576 26.37-28.107 46.356-55.066 47.049-15.868-1.806-31.936-10.614-41.416-23.572-9.33-12.752-12.803-28.242-9.78-43.61.143-.719.292-1.438.475-2.207 2.542-11.146 8.146-27.653 17.129-50.463 1.518-3.854-.376-8.208-4.23-9.727-3.855-1.519-8.209.376-9.727 4.23-9.263 23.52-15.084 40.733-17.782 52.564-.211.891-.401 1.792-.581 2.701-3.841 19.533.56 39.197 12.391 55.369 11.694 15.986 32.551 27.174 52.076 29.748h294.23c33.673 0 63.36-23.7 70.59-56.353.896-4.044-1.656-8.049-5.701-8.944-4.039-.893-8.048 1.658-8.943 5.701-5.722 25.841-29.25 44.596-55.946 44.596h-250.05c.96-.737 1.902-1.5 2.827-2.287 11.64-9.908 19.817-23.174 23.348-37.734l38.776-12.681c3.242-1.06 5.36-4.175 5.155-7.58s-2.682-6.243-6.028-6.906l-38.313-7.595c-1.244-5.301-2.657-10.672-4.301-16.356-.315-1.086.119-1.888.406-2.27.275-.367.897-.982 1.97-.982h250.65c14.775 0 27.558 9.919 31.083 24.122.998 4.02 5.065 6.47 9.086 5.473 4.021-.998 6.471-5.066 5.473-9.086-5.189-20.907-23.958-35.509-45.642-35.509h-33.794c3.414-8.996 7.426-19.079 12.189-30.626 2.543-6.165-.189-13.224-6.222-16.069l-1.146-.541 9.291-1.93c4.001-.831 7.346-3.568 8.95-7.324 9.819-23.003 20.886-48.125 31.588-72.42 10.494-23.821 21.345-48.454 31.021-71.091 1.412-3.305 1.335-7.06-.214-10.302-1.547-3.242-4.417-5.662-7.873-6.641l-22.852-6.473 35.209-3.673c4.603-.48 8.544-3.442 10.284-7.729 12.162-29.94 19.607-51.213 22.747-64.973.211-.89.401-1.792.581-2.701 3.822-19.436-.523-39.023-12.235-55.155-11.687-16.097-32.61-27.382-52.233-29.961z" fill="#000000" data-original="#000000"></path>
    <path
        d="m175.839 298.125c2.083 3.719 6.024 6.03 10.287 6.03h37.999l21.825 35.59c2.159 3.524 5.916 5.627 10.049 5.628h.002c4.132 0 7.89-2.104 10.05-5.626l21.826-35.592h37.998c4.263 0 8.204-2.311 10.287-6.03 2.082-3.72 1.992-8.288-.236-11.923l-18.521-30.202 18.521-30.203c2.228-3.634 2.317-8.202.235-11.922-2.083-3.719-6.024-6.03-10.287-6.03h-37.999l-21.825-35.59c-2.159-3.524-5.916-5.627-10.049-5.628-.001 0-.001 0-.002 0-4.132 0-7.89 2.104-10.05 5.626l-21.826 35.592h-37.998c-4.263 0-8.204 2.311-10.287 6.03-2.082 3.72-1.992 8.288.236 11.923l18.522 30.202-18.521 30.203c-2.228 3.634-2.318 8.202-.236 11.922zm80.161 29.316-14.28-23.287h28.56zm-23.478-38.287-20.33-33.154 20.331-33.154h46.956l20.33 33.154-20.331 33.154zm87.618 0h-23.066l11.533-18.807zm0-66.308-11.533 18.807-11.533-18.807zm-64.14-38.287 14.28 23.287h-28.56zm-64.139 38.287h23.066l-11.533 18.807zm11.533 47.501 11.533 18.807h-23.066z"
        fill="#000000" data-original="#000000"></path>
    <path
        d="m270.266 247.171h-28.531c-4.143 0-7.5 3.358-7.5 7.5s3.357 7.5 7.5 7.5h6.766v2.261c0 4.142 3.357 7.5 7.5 7.5s7.5-3.358 7.5-7.5v-2.261h6.766c4.143 0 7.5-3.358 7.5-7.5s-3.358-7.5-7.501-7.5z"
        fill="#000000" data-original="#000000"></path>
    <path
        d="m149.246 42.022c-3.982-1.137-8.135 1.168-9.272 5.151s1.169 8.134 5.151 9.272l7.884 2.252c.688.197 1.382.291 2.064.291 3.264 0 6.267-2.147 7.208-5.441 1.138-3.983-1.169-8.134-5.151-9.272z"
        fill="#000000" data-original="#000000"></path>
    <path
        d="m375.526 203.389h.004l9.296-.005c4.143-.002 7.498-3.362 7.496-7.504-.002-4.141-3.359-7.496-7.5-7.496-.001 0-.003 0-.004 0l-9.296.005c-4.143.002-7.498 3.362-7.496 7.504.002 4.141 3.359 7.496 7.5 7.496z"
        fill="#000000" data-original="#000000"></path>
    <path
        d="m96.51 449.838c1.558 0 3.13-.484 4.475-1.486 3.322-2.475 4.009-7.173 1.534-10.495l-5.068-6.804c-2.475-3.322-7.174-4.009-10.495-1.534-3.322 2.475-4.009 7.173-1.534 10.495l5.068 6.804c1.472 1.976 3.731 3.02 6.02 3.02z"
        fill="#000000" data-original="#000000"></path>
    <path
        d="m62.821 446.436c4.143 0 7.5-3.358 7.5-7.5s-3.357-7.5-7.5-7.5h-.104c-4.143 0-7.5 3.358-7.5 7.5s3.357 7.5 7.5 7.5z"
        fill="#000000" data-original="#000000"></path>
    <path
        d="m375.439 248.757h.104.036c4.125 0 7.479-3.334 7.499-7.465.02-4.142-3.322-7.516-7.465-7.535h-.104c-.012 0-.023 0-.036 0-4.125 0-7.479 3.334-7.499 7.465-.019 4.142 3.322 7.516 7.465 7.535z"
        fill="#000000" data-original="#000000"></path>
    <path
        d="m178.755 34.413c-.012 0-.023 0-.036 0-4.125 0-7.479 3.334-7.499 7.465-.02 4.142 3.322 7.516 7.465 7.535h.104.036c4.125 0 7.479-3.334 7.499-7.465.02-4.142-3.322-7.516-7.465-7.535z"
        fill="#000000" data-original="#000000"></path>
    <path
        d="m196.775 69.327c-.012 0-.023 0-.036 0-4.125 0-7.479 3.334-7.499 7.465-.02 4.142 3.322 7.516 7.465 7.535h.104.036c4.125 0 7.479-3.334 7.499-7.465.02-4.142-3.322-7.516-7.465-7.535z"
        fill="#000000" data-original="#000000"></path>
    <path
        d="m237.847 456.737c-4.143 0-7.5 3.358-7.5 7.5s3.357 7.5 7.5 7.5h.104c4.143 0 7.5-3.358 7.5-7.5s-3.357-7.5-7.5-7.5z"
        fill="#000000" data-original="#000000"></path></g></g></g></svg>