<svg xmlns="http://www.w3.org/2000/svg" version="1.1" xmlns:xlink="http://www.w3.org/1999/xlink" xmlns:svgjs="http://svgjs.com/svgjs" width="512" height="512" x="0" y="0" viewBox="0 0 512 512" style="enable-background:new 0 0 512 512" xml:space="preserve" class=""><rect width="512" height="512" rx="20" ry="20" fill="#d7a32b" shape="rounded"></rect><g transform="matrix(0.7,0,0,0.7,76.800146484375,76.79985094070435)">
<path style="" d="M293.305,143.551v314.135c0,21.227-17.212,38.439-38.45,38.439H38.439
	C17.212,496.126,0,478.914,0,457.686V143.551c0-21.238,17.212-38.439,38.439-38.439h216.415
	C276.093,105.112,293.305,122.314,293.305,143.551z" fill="#cf8bfc" data-original="#cf8bfc"></path>
    <path style="" d="M293.305,143.551v285.295H219.5c-21.227,0-38.439-17.202-38.439-38.439V105.112h73.794
	C276.093,105.112,293.305,122.314,293.305,143.551z" fill="#9966cc" data-original="#9966cc"></path>
    <path style="" d="M210.33,364.286c-8.648,8.658-18.624,15.183-29.269,19.565
	c-32.636,13.479-71.567,6.954-98.085-19.565c-35.166-35.166-35.166-92.177,0-127.344c20.401-20.391,48.143-28.966,74.704-25.703
	c-11.273,2.698-21.959,8.439-30.764,17.233c-25.368,25.379-25.368,66.506,0,91.874c14.786,14.786,34.905,20.956,54.146,18.509
	c13.793-1.736,27.136-7.905,37.728-18.509c8.805-8.794,14.546-19.492,17.233-30.764C239.285,316.153,230.721,343.895,210.33,364.286
	z" fill="#f9d366" data-original="#f9d366"></path>
    <path style="" d="M210.33,364.286c-8.648,8.658-18.624,15.183-29.269,19.565v-44.996
	c13.793-1.736,27.136-7.905,37.728-18.509c8.805-8.794,14.546-19.492,17.233-30.764C239.285,316.153,230.721,343.895,210.33,364.286
	z" fill="#dd8833" data-original="#dd8833"></path>
    <path style="" d="M257.142,15.874h216.416c21.232,0,38.443,17.211,38.443,38.443v314.134
	c0,21.232-17.211,38.443-38.443,38.443H257.142c-21.232,0-38.443-17.211-38.443-38.443V54.317
	C218.699,33.085,235.911,15.874,257.142,15.874z" fill="#f9d366" data-original="#f9d366"></path>
    <polygon style="" points="303.782,211.383 272.998,158.064 334.566,158.064 365.35,104.744 396.135,158.064
	457.703,158.064 426.919,211.383 457.703,264.703 396.135,264.703 365.35,318.022 334.566,264.703 272.998,264.703 " fill="#cf8bfc" data-original="#cf8bfc"></polygon>
    <path style="" d="M435.974,211.383l28.52-49.398c1.401-2.426,1.401-5.417,0-7.843
	c-1.401-2.426-3.989-3.921-6.792-3.921h-57.041l-28.52-49.398c-1.401-2.427-3.989-3.921-6.792-3.921s-5.391,1.494-6.792,3.921
	l-28.52,49.398h-57.04c-2.802,0-5.391,1.495-6.792,3.921c-1.401,2.426-1.401,5.417,0,7.843l28.52,49.398l-28.52,49.398
	c-1.401,2.426-1.401,5.417,0,7.843s3.989,3.921,6.792,3.921h57.04l28.52,49.398c1.401,2.426,3.989,3.921,6.792,3.921
	c2.801,0,5.392-1.495,6.792-3.921l28.52-49.398h57.041c2.802,0,5.391-1.495,6.792-3.921s1.401-5.417,0-7.843L435.974,211.383z
	 M444.119,165.906l-17.201,29.792l-17.201-29.792H444.119z M417.863,211.383l-26.256,45.477h-52.512l-26.256-45.477l26.256-45.477
	h52.512L417.863,211.383z M365.35,120.429l17.201,29.792h-34.401L365.35,120.429z M286.581,165.906h34.401l-17.201,29.792
	L286.581,165.906z M286.581,256.86l17.201-29.792l17.201,29.792H286.581z M365.35,302.338l-17.201-29.792h34.401L365.35,302.338z
	 M409.718,256.86l17.201-29.792l17.201,29.792H409.718z" fill="#9966cc" data-original="#9966cc"></path>
    <g>
	<path style="" d="M308.36,63.94h-10.98V52.96c0-4.331-3.511-7.843-7.843-7.843s-7.843,3.511-7.843,7.843v10.98h-10.98
		c-4.331,0-7.843,3.511-7.843,7.843s3.511,7.843,7.843,7.843h10.98v10.98c0,4.331,3.511,7.843,7.843,7.843s7.843-3.511,7.843-7.843
		v-10.98h10.98c4.331,0,7.843-3.511,7.843-7.843S312.691,63.94,308.36,63.94z" fill="#cf8bfc" data-original="#cf8bfc"></path>
        <path style="" d="M459.984,343.141h-10.98v-10.98c0-4.331-3.511-7.843-7.843-7.843s-7.843,3.511-7.843,7.843v10.98
		h-10.98c-4.331,0-7.843,3.511-7.843,7.843s3.511,7.843,7.843,7.843h10.98v10.98c0,4.331,3.511,7.843,7.843,7.843
		s7.843-3.511,7.843-7.843v-10.98h10.98c4.331,0,7.843-3.511,7.843-7.843S464.316,343.141,459.984,343.141z" fill="#cf8bfc" data-original="#cf8bfc"></path>
</g>
    <g>
	<path style="" d="M89.662,153.174h-10.98v-10.98c0-4.331-3.511-7.843-7.843-7.843c-4.331,0-7.843,3.511-7.843,7.843
		v10.98h-10.98c-4.331,0-7.843,3.511-7.843,7.843s3.511,7.843,7.843,7.843h10.98v10.98c0,4.331,3.511,7.843,7.843,7.843
		c4.331,0,7.843-3.511,7.843-7.843v-10.98h10.98c4.331,0,7.843-3.511,7.843-7.843S93.994,153.174,89.662,153.174z" fill="#f9d366" data-original="#f9d366"></path>
        <path style="" d="M241.287,432.375h-10.976v-10.98c0-4.329-3.514-7.843-7.843-7.843c-4.34,0-7.843,3.513-7.843,7.843
		v10.98h-10.984c-4.331,0-7.843,3.511-7.843,7.843s3.511,7.843,7.843,7.843h10.984v10.98c0,4.329,3.503,7.843,7.843,7.843
		c4.329,0,7.843-3.513,7.843-7.843v-10.98h10.976c4.331,0,7.843-3.511,7.843-7.843S245.618,432.375,241.287,432.375z" fill="#f9d366" data-original="#f9d366"></path>
</g>
    <path style="" d="M230.311,421.395v7.456h-10.812c-1.652,0-3.273-0.105-4.873-0.314v-7.142
	c0-4.329,3.503-7.843,7.843-7.843C226.797,413.552,230.311,417.066,230.311,421.395z" fill="#ddac33" data-original="#ddac33"></path>
    <g>
</g>
    <g>
</g>
    <g>
</g>
    <g>
</g>
    <g>
</g>
    <g>
</g>
    <g>
</g>
    <g>
</g>
    <g>
</g>
    <g>
</g>
    <g>
</g>
    <g>
</g>
    <g>
</g>
    <g>
</g>
    <g>
</g>
</g></svg>