<svg fill="none" height="32" viewBox="0 0 32 32" width="32" xmlns="http://www.w3.org/2000/svg">
    <g clip-path="url(#clip0_6729_82173)">
        <path
            d="M16 32C24.8366 32 32 24.8366 32 16C32 7.16344 24.8366 0 16 0C7.16344 0 0 7.16344 0 16C0 24.8366 7.16344 32 16 32Z"
            fill="#FFCE00" />
        <path
            d="M31.9688 17.0177L19.285 4.33398L16.3756 15.1394L8.41514 18.6941L12.5087 22.7877L6.31445 23.6156L14.6618 31.9452C15.1031 31.9818 15.5497 32.0005 16.0006 32.0005C24.4955 32.0005 31.4441 25.3803 31.9688 17.0177Z"
            fill="#FFA300" />
        <path d="M13.6797 4.33398H18.3222V16.6326H13.6797V4.33398Z" fill="#1DD882" />
        <path d="M16.002 4.33398H18.3215V16.6326H16.002V4.33398Z" fill="#2CC47F" />
        <path
            d="M23.8199 24.3696H8.18189C6.69745 24.3696 5.49414 23.1663 5.49414 21.6819C5.49414 20.1975 6.69752 18.9941 8.18189 18.9941H23.8199C25.3043 18.9941 26.5076 20.1975 26.5076 21.6819C26.5076 23.1663 25.3043 24.3696 23.8199 24.3696Z"
            fill="#1DD882" />
        <path
            d="M23.8192 18.9941H16.002V24.3697H23.8192C25.3036 24.3697 26.507 23.1664 26.507 21.682C26.507 20.1975 25.3036 18.9941 23.8192 18.9941V18.9941Z"
            fill="#2CC47F" />
        <path
            d="M22.0872 19.3242H9.91111C8.7553 19.3242 7.81836 18.3872 7.81836 17.2314C7.81836 16.0756 8.7553 15.1387 9.91111 15.1387H22.0872C23.2431 15.1387 24.18 16.0756 24.18 17.2314C24.18 18.3872 23.2431 19.3242 22.0872 19.3242Z"
            fill="#2CC47F" />
        <path
            d="M22.0883 15.1387H16.002V19.3242H22.0883C23.2441 19.3242 24.181 18.3873 24.181 17.2315C24.181 16.0756 23.2441 15.1387 22.0883 15.1387Z"
            fill="#06B26B" />
        <path d="M17.0378 13.7411L15.9994 12.8248L14.9609 13.7411V9.2207H17.0378V13.7411Z"
            fill="#FF6C52" />
        <path d="M17.0386 9.2207H16.002V12.8263L17.0386 13.7411V9.2207Z" fill="#FF432E" />
        <path
            d="M17.4962 10.524H14.5026C13.8578 10.524 13.301 10.0724 13.168 9.44151L12.3521 5.57207C12.1734 4.7242 12.8202 3.92676 13.6867 3.92676H18.312C19.1785 3.92676 19.8254 4.72426 19.6466 5.57207L18.8307 9.44151C18.6977 10.0724 18.141 10.524 17.4962 10.524Z"
            fill="#2CC47F" />
        <path
            d="M18.3129 3.92676H16.002V10.524H17.497C18.1418 10.524 18.6985 10.0725 18.8315 9.44151L19.6474 5.57207C19.8263 4.72426 19.1794 3.92676 18.3129 3.92676V3.92676Z"
            fill="#06B26B" />
        <path
            d="M14.6384 7.51354C14.9969 7.36494 15.167 6.95386 15.0184 6.59537C14.8698 6.23688 14.4588 6.06672 14.1003 6.21532C13.7418 6.36391 13.5716 6.77499 13.7202 7.13349C13.8688 7.49198 14.2799 7.66213 14.6384 7.51354Z"
            fill="#555A66" />
        <path
            d="M17.906 7.51256C18.2645 7.36396 18.4346 6.95289 18.286 6.59439C18.1374 6.2359 17.7264 6.06575 17.3679 6.21434C17.0094 6.36294 16.8392 6.77401 16.9878 7.13251C17.1364 7.491 17.5475 7.66116 17.906 7.51256Z"
            fill="#333940" />
        <g clip-path="url(#clip1_6729_82173)">
            <path
                d="M16 32C24.8366 32 32 24.8366 32 16C32 7.16344 24.8366 0 16 0C7.16344 0 0 7.16344 0 16C0 24.8366 7.16344 32 16 32Z"
                fill="#F1F1F1" />
            <path
                d="M32.0003 16.0001C32.0003 14.9072 31.8907 13.84 31.6819 12.8087L27.007 8.13379L8.48828 25.0756L15.4147 31.9896C15.609 31.9966 15.8042 32.0001 16.0003 32.0001C24.8369 32.0001 32.0003 24.8367 32.0003 16.0001Z"
                fill="#E7E7E7" />
            <g clip-path="url(#clip2_6729_82173)">
                <path
                    d="M19.1861 7.75755C17.987 10.4289 18.7796 13.3866 20.9565 14.3637C23.1333 15.3408 25.87 13.9673 27.0691 11.2959C28.2682 8.62456 27.4756 5.66689 25.2988 4.68979C23.1219 3.71269 20.3852 5.08618 19.1861 7.75755Z"
                    fill="#C0BCC1" />
                <path
                    d="M20.7916 8.48756C19.8496 10.5862 20.3409 12.8508 21.8891 13.5457C23.4372 14.2406 25.4559 13.1027 26.3979 11.004C27.3399 8.90539 26.8485 6.64077 25.3004 5.94587C23.7522 5.25097 21.7336 6.38892 20.7916 8.48756Z"
                    fill="#AEA8AF" />
                <path
                    d="M12.8173 7.75844C11.6182 5.08707 8.88148 3.71358 6.70466 4.69068C4.52784 5.66778 3.73523 8.62545 4.93432 11.2968C6.13341 13.9682 8.87013 15.3417 11.0469 14.3646C13.2238 13.3875 14.0164 10.4298 12.8173 7.75844Z"
                    fill="#C0BCC1" />
                <path
                    d="M11.2112 8.48829C10.2692 6.38965 8.25051 5.25169 6.70237 5.9466C5.15424 6.6415 4.66288 8.90612 5.60489 11.0048C6.5469 13.1034 8.56556 14.2414 10.1137 13.5465C11.6618 12.8516 12.1532 10.5869 11.2112 8.48829Z"
                    fill="#AEA8AF" />
                <path
                    d="M25.3748 19.6633C25.3748 13.8941 20.8749 8.125 15.9999 8.125C11.125 8.125 6.625 13.8941 6.625 19.6633C6.625 22.7936 9.19328 25.6782 13.2648 26.5818C13.9932 27.2287 14.9492 27.6248 15.9999 27.6248C17.0506 27.6248 18.0065 27.2287 18.7349 26.5818C22.8065 25.6782 25.3748 22.7935 25.3748 19.6633Z"
                    fill="#C9C6CA" />
                <path
                    d="M9.62495 19.87C9.62495 15.2164 11.6494 10.5644 14.3557 8.34473C10.159 9.44273 6.625 14.5514 6.625 19.6637C6.625 22.7544 9.13164 25.6019 13.114 26.5433C10.9281 25.0611 9.62495 22.5482 9.62495 19.87Z"
                    fill="#C0BCC1" />
                <path
                    d="M17.5 26.2779H14.5L13 25.8379C13 26.1631 13.1344 26.4798 13.3855 26.6865C14.0969 27.2723 15.0064 27.6256 16 27.6256C16.9936 27.6256 17.9031 27.2723 18.6145 26.6865C18.8655 26.4798 18.9999 26.1631 18.9999 25.8379L17.5 26.2779Z"
                    fill="#C0BCC1" />
                <path
                    d="M16 22C17.0355 22 17.875 22.6716 17.875 23.5C17.875 24.2989 17.0869 24.7196 16.5183 25.0307C16.1886 25.2109 15.8114 25.2109 15.4817 25.0307C14.913 24.7196 14.125 24.2989 14.125 23.5C14.125 22.6716 14.9644 22 16 22Z"
                    fill="#F5DCB4" />
                <path
                    d="M17.3121 26.8752C16.9191 26.8752 16.5368 26.7621 16.2059 26.5479C16.0767 26.4644 15.9225 26.4644 15.7932 26.5479C15.4623 26.7621 15.08 26.8752 14.687 26.8752C14.0009 26.8752 13.3624 26.5326 12.9792 25.9586C12.8642 25.7865 12.9105 25.5536 13.0828 25.4386C13.2544 25.3232 13.4877 25.3693 13.6029 25.5422C13.8468 25.9073 14.252 26.1252 14.687 26.1252C14.935 26.1252 15.1765 26.0537 15.3856 25.9183C15.7642 25.6733 16.2348 25.673 16.6135 25.9183C16.8226 26.0537 17.0641 26.1252 17.312 26.1252C17.7472 26.1252 18.1525 25.9074 18.396 25.5422C18.5108 25.3697 18.7431 25.323 18.9162 25.4382C19.0883 25.5532 19.1348 25.7861 19.02 25.9582C18.637 26.5324 17.9985 26.8752 17.3121 26.8752Z"
                    fill="#AEA8AF" />
                <path
                    d="M26.1247 26.1256C26.0736 26.1256 26.022 26.1149 25.9724 26.093C23.3097 24.9074 19.7194 24.2509 19.6833 24.2443C19.4795 24.2075 19.3442 24.0125 19.381 23.8087C19.4176 23.6051 19.6119 23.4681 19.8166 23.5064C19.967 23.5335 23.5307 24.1847 26.2774 25.4078C26.4666 25.492 26.5517 25.7138 26.4675 25.9029C26.4052 26.0426 26.2682 26.1256 26.1247 26.1256Z"
                    fill="#9C969E" />
                <path
                    d="M27.6253 23.5001C27.5975 23.5001 27.5691 23.497 27.5409 23.4906C25.074 22.9228 20.5628 23.1227 20.5172 23.1247C20.3125 23.126 20.1349 22.9742 20.1254 22.7673C20.1159 22.5604 20.2759 22.385 20.4828 22.3755C20.6718 22.3668 25.1432 22.1693 27.709 22.7596C27.911 22.8061 28.0369 23.0074 27.9904 23.2091C27.9505 23.3827 27.7959 23.5001 27.6253 23.5001Z"
                    fill="#9C969E" />
                <path
                    d="M5.8753 26.1257C5.73172 26.1257 5.5948 26.0427 5.5325 25.903C5.44826 25.7139 5.53344 25.4921 5.72258 25.4079C8.46931 24.1847 12.033 23.5336 12.1834 23.5065C12.3884 23.468 12.5824 23.605 12.619 23.8088C12.6558 24.0126 12.5204 24.2076 12.3167 24.2444C12.2806 24.251 8.69033 24.9074 6.02764 26.093C5.978 26.115 5.9262 26.1257 5.8753 26.1257Z"
                    fill="#9C969E" />
                <path
                    d="M4.37476 23.5002C4.2039 23.5003 4.04955 23.3828 4.00965 23.2092C3.96315 23.0074 4.08911 22.8062 4.29109 22.7597C6.8567 22.1692 11.3277 22.3669 11.5172 22.3755C11.7242 22.3851 11.8842 22.5605 11.8747 22.7674C11.8652 22.9745 11.693 23.1314 11.4828 23.1248C11.4374 23.1224 6.92505 22.9232 4.45919 23.4906C4.43097 23.497 4.40261 23.5002 4.37476 23.5002Z"
                    fill="#9C969E" />
                <path
                    d="M12.0625 20.5C11.3406 20.5 10.75 19.9094 10.75 19.1875V18.4375C10.75 17.7156 11.3406 17.125 12.0625 17.125C12.7844 17.125 13.375 17.7156 13.375 18.4375V19.1875C13.375 19.9094 12.7844 20.5 12.0625 20.5Z"
                    fill="#4B3F4E" />
                <path
                    d="M12.0625 17.125C11.9983 17.125 11.9368 17.135 11.875 17.144V19C11.875 19.4141 12.2108 19.75 12.625 19.75C13.0392 19.75 13.375 19.4141 13.375 19V18.4375C13.375 17.7156 12.7844 17.125 12.0625 17.125Z"
                    fill="#5D5360" />
                <path
                    d="M12.0625 18.625C12.3732 18.625 12.625 18.3732 12.625 18.0625C12.625 17.7518 12.3732 17.5 12.0625 17.5C11.7518 17.5 11.5 17.7518 11.5 18.0625C11.5 18.3732 11.7518 18.625 12.0625 18.625Z"
                    fill="white" />
                <path
                    d="M19.9375 20.5C19.2156 20.5 18.625 19.9094 18.625 19.1875V18.4375C18.625 17.7156 19.2156 17.125 19.9375 17.125C20.6594 17.125 21.25 17.7156 21.25 18.4375V19.1875C21.25 19.9094 20.6594 20.5 19.9375 20.5Z"
                    fill="#4B3F4E" />
                <path
                    d="M19.9375 17.125C19.8733 17.125 19.8118 17.135 19.75 17.144V19C19.75 19.4141 20.0858 19.75 20.5 19.75C20.9142 19.75 21.25 19.4141 21.25 19V18.4375C21.25 17.7156 20.6594 17.125 19.9375 17.125Z"
                    fill="#5D5360" />
                <path
                    d="M19.9375 18.625C20.2482 18.625 20.5 18.3732 20.5 18.0625C20.5 17.7518 20.2482 17.5 19.9375 17.5C19.6268 17.5 19.375 17.7518 19.375 18.0625C19.375 18.3732 19.6268 18.625 19.9375 18.625Z"
                    fill="white" />
                <path
                    d="M15.25 23.1055C15.25 22.7068 15.3798 22.3396 15.5961 22.0371C14.7552 22.1851 14.125 22.7829 14.125 23.5002C14.125 24.2991 14.913 24.7198 15.4817 25.0308C15.8114 25.2111 16.1886 25.2111 16.5182 25.0308C16.5422 25.0177 16.5684 25.0031 16.5931 24.9895C16.0255 24.6057 15.25 24.0862 15.25 23.1055Z"
                    fill="#EBC9A0" />
            </g>
        </g>
    </g>
    <defs>
        <clipPath id="clip0_6729_82173">
            <rect fill="white" height="32" width="32" />
        </clipPath>
        <clipPath id="clip1_6729_82173">
            <rect fill="white" height="32" width="32" />
        </clipPath>
        <clipPath id="clip2_6729_82173">
            <rect fill="white" height="24" transform="translate(4 4)" width="24" />
        </clipPath>
    </defs>
</svg>
