<svg xmlns="http://www.w3.org/2000/svg" version="1.1" xmlns:xlink="http://www.w3.org/1999/xlink" xmlns:svgjs="http://svgjs.com/svgjs" width="512" height="512" x="0" y="0" viewBox="0 0 512.001 512.001" style="enable-background:new 0 0 512 512" xml:space="preserve" class=""><circle r="256.0005" cx="256.0005" cy="256.0005" fill="#75d4ca" shape="circle"></circle><g transform="matrix(-0.6,0,0,0.6,409.6009811401367,102.40018997192382)">
<path style="" d="M500.603,211.604l-25.595-6.298c-5.401-24.297-14.998-47.395-28.198-68.392l12.9-21.596
	c3.596-5.999,2.699-13.498-2.102-18.298l-20.996-20.997l-21.596-21.596c-4.8-4.8-12.299-5.699-18.301-2.1l-21.596,12.898
	c-20.996-13.198-44.094-22.797-68.392-28.196l-6.298-25.597c-1.501-6.6-7.499-11.399-14.397-11.399h-59.993
	c-6.898,0-12.896,4.798-14.397,11.399l-6.298,25.597c-24.299,5.399-47.396,14.998-68.392,28.196l-21.598-12.898
	c-5.999-3.6-13.498-2.701-18.298,2.1L54.459,97.021c-4.8,4.798-5.699,12.297-2.1,18.298l12.898,21.596
	c-13.198,20.997-22.797,44.095-28.196,68.392l-25.597,6.298c-6.6,1.501-11.399,7.499-11.399,14.399v59.992
	c0,6.898,4.798,12.898,11.399,14.397l25.597,6.3c6.898,30.296,20.397,59.092,38.995,83.99l45.294,45.294
	c24.898,18.598,53.692,32.096,83.99,38.995l6.298,25.597c1.501,6.598,7.499,11.399,14.397,11.399h59.993
	c6.898,0,12.896-4.8,14.397-11.399l6.298-25.597c24.299-5.399,47.396-14.998,68.392-28.197l21.596,12.898
	c6.001,3.6,13.5,2.701,18.301-2.1l42.593-42.594c4.8-4.798,5.697-12.297,2.102-18.298l-12.9-21.598
	c13.2-20.997,22.797-44.093,28.198-68.39l25.595-6.3c6.602-1.5,11.399-7.499,11.399-14.397v-59.992
	C512.001,219.103,507.205,213.105,500.603,211.604z M256.033,390.983c-35.094,0-67.192-13.198-90.89-35.696
	c-1.5-0.901-2.699-2.1-4.198-3.6c-24.597-24.297-39.896-58.193-39.896-95.688c0-74.691,60.292-134.983,134.983-134.983
	c37.495,0,71.391,15.298,95.686,39.894c1.501,1.501,2.703,2.701,3.604,4.199c22.497,23.698,35.694,55.793,35.694,90.89
	C391.016,330.69,330.724,390.983,256.033,390.983z" fill="#439759" data-original="#b7e0f6" class=""></path>
    <path style="" d="M512.001,226.003v59.992c0,6.898-4.796,12.898-11.399,14.397l-25.595,6.3
	c-5.401,24.297-14.998,47.393-28.198,68.39l12.9,21.598c3.596,5.999,2.699,13.498-2.102,18.298l-42.593,42.594
	c-4.8,4.8-12.299,5.699-18.301,2.1l-21.596-12.898c-20.996,13.198-44.094,22.797-68.392,28.197l-6.298,25.597
	c-1.501,6.598-7.499,11.399-14.397,11.399h-59.993c-6.898,0-12.896-4.8-14.397-11.399l-6.298-25.597
	c-30.298-6.898-59.094-20.397-83.99-38.995l-22.497-22.497l62.092-61.792c1.5,1.5,2.699,2.699,4.198,3.6
	c23.698,22.497,55.796,35.696,90.89,35.696c74.691,0,134.983-60.292,134.983-134.983c0-35.097-13.196-67.192-35.694-90.89
	c-0.901-1.5-2.102-2.699-3.604-4.199l84.891-84.888l20.996,20.997c4.8,4.798,5.697,12.297,2.102,18.298l-12.9,21.596
	c13.2,20.997,22.797,44.095,28.198,68.392l25.595,6.298C507.205,213.105,512.001,219.103,512.001,226.003z" fill="#a4d9f5" data-original="#a4d9f5" class=""></path>
    <path style="" d="M357.609,228.932c-1.315-5.24-5.346-9.369-10.555-10.806c-5.208-1.437-10.777,0.046-14.596,3.867
	l-34.008,34.008c-5.653,5.653-13.182,8.759-21.208,8.759s-15.555-3.105-21.208-8.759c-11.688-11.688-11.688-30.728,0-42.417
	l34.241-34.241c3.768-3.768,5.222-9.266,3.813-14.403s-5.466-9.131-10.63-10.443c-12.859-3.267-29.649-4.782-46.933-1.741
	c-42.314,7.763-75.972,41.421-83.75,83.808c-3.354,18.748-1.86,37.422,4.276,54.617c-8.535,8.535-140.349,140.347-143.892,143.892
	c-17.591,17.591-17.591,46.21,0.278,64.079c17.702,16.78,44.813,17.486,63.522-0.278l143.892-143.892
	c23.043,8.224,48.742,8.057,73.89-0.817c33.967-11.987,57.472-43.336,64.535-78.656l0.015-0.073
	C362.324,258.474,360.837,241.795,357.609,228.932z" fill="#439759" data-original="#17ace8" class=""></path>
    <path style="" d="M76.961,498.873l143.892-143.892c23.043,8.224,48.742,8.057,73.891-0.817
	c33.968-11.987,57.472-43.336,64.535-78.656l0.015-0.073c3.06-17.117,1.518-33.946-1.772-46.856
	c-1.317-5.164-5.304-9.226-10.445-10.634c-5.139-1.41-10.63,0.059-14.399,3.827L298.452,256c-5.653,5.653-13.182,8.759-21.208,8.759
	c-7.889,0-15.254-3.065-20.875-8.535L13.438,499.152C31.14,515.931,58.251,516.638,76.961,498.873z" fill="#1689fc" data-original="#1689fc" class=""></path>
    <g>
</g>
    <g>
</g>
    <g>
</g>
    <g>
</g>
    <g>
</g>
    <g>
</g>
    <g>
</g>
    <g>
</g>
    <g>
</g>
    <g>
</g>
    <g>
</g>
    <g>
</g>
    <g>
</g>
    <g>
</g>
    <g>
</g>
</g></svg>