<svg xmlns="http://www.w3.org/2000/svg" version="1.1" xmlns:xlink="http://www.w3.org/1999/xlink" xmlns:svgjs="http://svgjs.com/svgjs" width="512" height="512" x="0" y="0" viewBox="0 0 512 512" style="enable-background:new 0 0 512 512" xml:space="preserve" class=""><rect width="512" height="512" rx="20" ry="20" fill="#6b7dd6" shape="rounded"></rect><g transform="matrix(0.7,0,0,0.7,76.80000000000001,76.80000000000001)">
<g>
	<path style="" d="M256.001,65.901c-18.169,0-32.951-14.782-32.951-32.95S237.832,0,256.001,0
		s32.951,14.782,32.951,32.95S274.17,65.901,256.001,65.901z M256.001,15.208c-9.783,0-17.743,7.96-17.743,17.743
		s7.96,17.743,17.743,17.743c9.783,0,17.743-7.96,17.743-17.743S265.784,15.208,256.001,15.208z" fill="#ff901d" data-original="#ff901d" class=""></path>
    <path style="" d="M256,65.901c-4.2,0-7.604-3.405-7.604-7.604V38.02c0-4.199,3.404-7.604,7.604-7.604
		c4.2,0,7.604,3.405,7.604,7.604v20.277C263.604,62.496,260.2,65.901,256,65.901z" fill="#ff901d" data-original="#ff901d" class=""></path>
</g>
    <path style="" d="M256,471.446c-116.002,0-210.376-94.374-210.376-210.376S139.998,50.693,256,50.693
	s210.376,94.374,210.376,210.376S372.002,471.446,256,471.446z" fill="#ffb123" data-original="#ffb123"></path>
    <path style="" d="M256,471.446c-116.002,0-210.376-94.374-210.376-210.376v40.554C45.624,417.626,139.998,512,256,512
	s210.376-94.374,210.376-210.376v-40.554C466.376,377.071,372.002,471.446,256,471.446z" fill="#ff901d" data-original="#ff901d" class=""></path>
    <path style="" d="M256,441.03c-99.231,0-179.96-80.73-179.96-179.96S156.769,81.109,256,81.109
	s179.96,80.73,179.96,179.96S355.231,441.03,256,441.03z" fill="#f3e8d6" data-original="#f3e8d6"></path>
    <path style="" d="M256,81.109c-5.123,0-10.194,0.227-15.21,0.649c92.139,7.748,164.751,85.204,164.751,179.312
	S332.929,432.633,240.79,440.381c5.016,0.422,10.087,0.649,15.21,0.649c99.231,0,179.96-80.73,179.96-179.96
	S355.231,81.109,256,81.109z" fill="#e5d8c6" data-original="#e5d8c6"></path>
    <g>
	<path style="" d="M256,81.109c-2.549,0-5.081,0.066-7.604,0.171v17.57c0,4.199,3.404,7.604,7.604,7.604
		c4.2,0,7.604-3.405,7.604-7.604V81.28C261.081,81.175,258.549,81.109,256,81.109z" fill="#0072a2" data-original="#0072a2"></path>
        <path style="" d="M256,415.684c-4.2,0-7.604,3.405-7.604,7.604v17.57c2.523,0.105,5.055,0.171,7.604,0.171
		c2.549,0,5.081-0.066,7.604-0.171v-17.57C263.604,419.089,260.2,415.684,256,415.684z" fill="#0072a2" data-original="#0072a2"></path>
</g>
    <path style="" d="M410.615,261.069c0,4.199,3.404,7.604,7.604,7.604h17.569c0.105-2.522,0.172-5.055,0.172-7.604
	s-0.066-5.081-0.172-7.604h-17.569C414.018,253.465,410.615,256.87,410.615,261.069z" fill="#006289" data-original="#006289"></path>
    <path style="" d="M76.212,268.673h17.569c4.2,0,7.604-3.405,7.604-7.604c0-4.199-3.404-7.604-7.604-7.604H76.212
	c-0.105,2.523-0.172,5.055-0.172,7.604S76.106,266.151,76.212,268.673z" fill="#0072a2" data-original="#0072a2"></path>
    <path style="" d="M349.082,177.865c0.032-0.081,0.065-0.164,0.095-0.246c0.053-0.145,0.099-0.291,0.142-0.439
	c0.028-0.097,0.059-0.194,0.082-0.292c0.034-0.138,0.064-0.277,0.09-0.417c0.02-0.104,0.041-0.209,0.057-0.313
	c0.02-0.141,0.034-0.283,0.048-0.425c0.01-0.1,0.02-0.2,0.025-0.3c0.008-0.153,0.008-0.305,0.006-0.459c0-0.088,0-0.177-0.004-0.267
	c-0.007-0.162-0.021-0.324-0.04-0.487c-0.009-0.079-0.016-0.159-0.027-0.237c-0.021-0.162-0.054-0.323-0.087-0.486
	c-0.017-0.081-0.032-0.163-0.053-0.243c-0.035-0.15-0.079-0.298-0.126-0.447c-0.028-0.095-0.058-0.19-0.091-0.283
	c-0.046-0.129-0.095-0.257-0.148-0.384c-0.047-0.113-0.095-0.225-0.148-0.336c-0.024-0.055-0.045-0.109-0.071-0.163
	c-0.028-0.057-0.064-0.108-0.093-0.164c-0.062-0.118-0.128-0.232-0.195-0.347c-0.063-0.103-0.126-0.205-0.191-0.303
	c-0.071-0.106-0.147-0.212-0.223-0.315c-0.073-0.099-0.148-0.197-0.226-0.292c-0.077-0.095-0.159-0.188-0.241-0.279
	c-0.086-0.094-0.172-0.188-0.263-0.277c-0.084-0.084-0.171-0.165-0.26-0.245c-0.097-0.088-0.195-0.175-0.296-0.258
	c-0.09-0.073-0.182-0.143-0.275-0.213c-0.108-0.081-0.219-0.159-0.331-0.234c-0.095-0.063-0.192-0.124-0.291-0.182
	c-0.118-0.07-0.236-0.138-0.358-0.202c-0.055-0.028-0.105-0.063-0.16-0.09c-0.053-0.026-0.105-0.045-0.158-0.069
	c-0.115-0.055-0.232-0.104-0.35-0.153c-0.121-0.05-0.242-0.098-0.366-0.142c-0.101-0.036-0.204-0.068-0.307-0.099
	c-0.14-0.043-0.279-0.084-0.42-0.118c-0.091-0.022-0.182-0.04-0.275-0.059c-0.151-0.031-0.304-0.061-0.456-0.082
	c-0.088-0.013-0.177-0.02-0.268-0.03c-0.152-0.016-0.306-0.03-0.459-0.038c-0.097-0.004-0.195-0.003-0.292-0.004
	c-0.145-0.001-0.289-0.001-0.433,0.006c-0.107,0.005-0.215,0.017-0.321,0.026c-0.137,0.013-0.272,0.025-0.407,0.046
	c-0.108,0.016-0.218,0.039-0.327,0.059c-0.135,0.026-0.27,0.054-0.402,0.087c-0.101,0.025-0.202,0.056-0.303,0.085
	c-0.144,0.043-0.286,0.087-0.428,0.138c-0.086,0.031-0.172,0.065-0.259,0.1c-0.154,0.062-0.307,0.129-0.457,0.201
	c-0.036,0.018-0.074,0.03-0.111,0.049l-114.706,57.352c-0.052,0.025-0.098,0.058-0.149,0.084c-0.127,0.067-0.251,0.138-0.374,0.212
	c-0.095,0.057-0.189,0.115-0.28,0.175c-0.115,0.076-0.226,0.155-0.337,0.237c-0.093,0.069-0.185,0.139-0.274,0.211
	c-0.1,0.082-0.197,0.168-0.293,0.255c-0.091,0.082-0.18,0.165-0.267,0.25c-0.086,0.086-0.169,0.176-0.251,0.267
	c-0.087,0.096-0.173,0.193-0.254,0.293c-0.072,0.088-0.142,0.18-0.211,0.273c-0.082,0.112-0.163,0.224-0.239,0.34
	c-0.06,0.09-0.117,0.182-0.173,0.276c-0.075,0.125-0.147,0.251-0.215,0.381c-0.026,0.05-0.057,0.095-0.082,0.145l-57.355,114.705
	c-0.017,0.033-0.028,0.068-0.045,0.101c-0.075,0.156-0.144,0.314-0.208,0.474c-0.032,0.082-0.065,0.164-0.095,0.246
	c-0.053,0.145-0.099,0.291-0.142,0.439c-0.028,0.097-0.059,0.194-0.082,0.292c-0.034,0.138-0.064,0.277-0.09,0.417
	c-0.02,0.104-0.041,0.209-0.057,0.313c-0.021,0.141-0.034,0.283-0.048,0.425c-0.01,0.1-0.02,0.2-0.025,0.3
	c-0.008,0.153-0.008,0.305-0.006,0.459c0,0.088,0,0.177,0.004,0.267c0.007,0.162,0.021,0.324,0.04,0.487
	c0.009,0.079,0.016,0.159,0.027,0.237c0.021,0.162,0.054,0.323,0.087,0.486c0.017,0.081,0.032,0.163,0.053,0.243
	c0.035,0.15,0.079,0.298,0.126,0.447c0.028,0.095,0.058,0.19,0.091,0.283c0.046,0.129,0.095,0.257,0.148,0.384
	c0.047,0.113,0.095,0.225,0.147,0.336c0.024,0.055,0.045,0.109,0.071,0.163c0.019,0.04,0.047,0.074,0.067,0.114
	c0.143,0.274,0.297,0.541,0.472,0.798c0.01,0.013,0.017,0.028,0.026,0.042c0.179,0.258,0.381,0.501,0.593,0.737
	c0.06,0.066,0.12,0.129,0.181,0.192c0.175,0.181,0.362,0.356,0.558,0.521c0.05,0.042,0.097,0.087,0.148,0.128
	c0.239,0.192,0.493,0.37,0.759,0.534c0.065,0.04,0.133,0.074,0.199,0.112c0.132,0.076,0.261,0.156,0.398,0.225
	c0.074,0.038,0.15,0.062,0.225,0.096c0.108,0.051,0.22,0.097,0.331,0.142c0.206,0.083,0.414,0.156,0.622,0.22
	c0.097,0.029,0.193,0.06,0.291,0.085c0.246,0.066,0.494,0.116,0.742,0.154c0.069,0.011,0.138,0.026,0.207,0.037
	c0.325,0.043,0.653,0.069,0.977,0.069c0.025,0,0.052-0.005,0.078-0.005c0.292-0.002,0.586-0.023,0.88-0.061
	c0.108-0.014,0.214-0.038,0.321-0.056c0.208-0.035,0.416-0.076,0.623-0.13c0.127-0.032,0.251-0.072,0.376-0.112
	c0.177-0.056,0.353-0.118,0.527-0.188c0.14-0.055,0.276-0.113,0.412-0.176c0.062-0.029,0.126-0.05,0.188-0.08l114.706-57.352
	c0.133-0.066,0.257-0.144,0.384-0.217c0.071-0.041,0.145-0.078,0.215-0.122c0.266-0.163,0.518-0.341,0.755-0.531
	c0.051-0.041,0.097-0.085,0.147-0.127c0.198-0.167,0.385-0.343,0.563-0.527c0.06-0.061,0.118-0.122,0.174-0.185
	c0.215-0.238,0.419-0.485,0.601-0.746c0.002-0.003,0.003-0.006,0.006-0.009c0.186-0.269,0.347-0.549,0.496-0.837
	c0.018-0.035,0.042-0.065,0.06-0.1l57.351-114.706c0.017-0.033,0.028-0.068,0.045-0.101
	C348.949,178.183,349.017,178.025,349.082,177.865z" fill="#ff4c4d" data-original="#ff4c4d" class=""></path>
    <path style="" d="M256,281.351c-5.418,0-10.511-2.11-14.342-5.94c-7.907-7.908-7.907-20.775,0-28.683
	c3.831-3.83,8.925-5.94,14.342-5.94s10.511,2.11,14.342,5.94c3.83,3.83,5.94,8.924,5.94,14.342c0,5.417-2.11,10.511-5.941,14.342
	C266.511,279.241,261.417,281.351,256,281.351z" fill="#ffb123" data-original="#ffb123"></path>
    <g>
</g>
    <g>
</g>
    <g>
</g>
    <g>
</g>
    <g>
</g>
    <g>
</g>
    <g>
</g>
    <g>
</g>
    <g>
</g>
    <g>
</g>
    <g>
</g>
    <g>
</g>
    <g>
</g>
    <g>
</g>
    <g>
</g>
</g></svg>