<svg xmlns="http://www.w3.org/2000/svg" version="1.1" xmlns:xlink="http://www.w3.org/1999/xlink" xmlns:svgjs="http://svgjs.com/svgjs" width="512" height="512" x="0" y="0" viewBox="0 0 100 100" style="enable-background:new 0 0 512 512" xml:space="preserve" class=""><circle r="50" cx="50" cy="50" fill="#ca81c6" shape="circle"></circle><g transform="matrix(0.7,0,0,0.7,14.902950668334967,15)"><g id="Layer_40" data-name="Layer 40"><path d="m92.481 3h-60.02a2 2 0 0 0 -2 2v39.268h-23.589a2 2 0 0 0 -2 2v35.938a14.811 14.811 0 0 0 14.794 14.794h61.307a13.523 13.523 0 0 0 13.508-13.509v-78.491a2 2 0 0 0 -2-2zm-83.609 79.206v-33.938h21.589v33.938a10.795 10.795 0 0 1 -21.589 0zm81.609 1.285a9.519 9.519 0 0 1 -9.508 9.509h-51.222a14.741 14.741 0 0 0 4.71-10.794v-75.206h56.02z" fill="#e1cc0e" data-original="#000000" class=""></path><path d="m42.433 39.425h39.888a2 2 0 0 0 2-2v-22.014a2 2 0 0 0 -2-2h-39.888a2 2 0 0 0 -2 2v22.014a2 2 0 0 0 2 2zm2-22.014h35.888v18.014h-35.888z" fill="#e1cc0e" data-original="#000000" class=""></path><path d="m70.042 49.958h-16.225a2 2 0 0 0 0 4h16.225a2 2 0 0 0 0-4z" fill="#e1cc0e" data-original="#000000" class=""></path><path d="m70.042 63.31h-16.225a2 2 0 0 0 0 4h16.225a2 2 0 0 0 0-4z" fill="#e1cc0e" data-original="#000000" class=""></path></g></g></svg>