<svg width="24" height="24" viewBox="0 0 24 24" fill="none" xmlns="http://www.w3.org/2000/svg">
<path d="M6.72217 2.5V6.72222" stroke="#121219" stroke-width="1.5" stroke-linecap="round"/>
<path d="M17.2778 2.5V6.72222" stroke="#121219" stroke-width="1.5" stroke-linecap="round"/>
<path d="M22.25 6.61108V19.5H20.75V6.61108H22.25ZM1.75 19.5V6.61108H3.25V19.5H1.75ZM4.5 3.86108H19.5V5.36108H4.5V3.86108ZM4.5 20.75H19.5V22.25H4.5V20.75ZM1.75 6.61108C1.75 5.0923 2.98121 3.86108 4.5 3.86108V5.36108C3.80964 5.36108 3.25 5.92073 3.25 6.61108H1.75ZM3.25 19.5C3.25 20.1903 3.80964 20.75 4.5 20.75V22.25C2.98121 22.25 1.75 21.0188 1.75 19.5H3.25ZM22.25 19.5C22.25 21.0188 21.0188 22.25 19.5 22.25V20.75C20.1904 20.75 20.75 20.1903 20.75 19.5H22.25ZM20.75 6.61108C20.75 5.92073 20.1904 5.36108 19.5 5.36108V3.86108C21.0188 3.86108 22.25 5.0923 22.25 6.61108H20.75Z" fill="#121219"/>
<path d="M15.1665 13.0555L8.83317 13.0555" stroke="#121219" stroke-width="1.5" stroke-linecap="round" stroke-linejoin="round"/>
<path d="M12 9.88892V16.2222" stroke="#121219" stroke-width="1.5" stroke-linecap="round" stroke-linejoin="round"/>
</svg>
