<svg fill="none" height="32" viewBox="0 0 32 32" width="32" xmlns="http://www.w3.org/2000/svg">
    <g clip-path="url(#clip0_6729_82551)">
        <path
            d="M27.3091 27.312C33.5565 21.0646 33.5565 10.9354 27.3091 4.68801C21.0616 -1.55944 10.9325 -1.55943 4.68505 4.68801C-1.5624 10.9354 -1.5624 21.0646 4.68505 27.312C10.9325 33.5594 21.0616 33.5594 27.3091 27.312Z"
            fill="#A3D4FF" />
        <path
            d="M32.0003 16.0004C32.0003 15.9708 32.0002 15.9413 32.0001 15.9117L23.0089 6.88278L20.8266 4.73828L13.7292 14.457L6.52344 14.7298L10.5689 18.7752L9.64356 19.7352L12.4833 22.575L8.31531 28.4334L11.1265 31.2446C12.6631 31.7354 14.3008 32.0004 16.0003 32.0004C24.8369 32.0004 32.0003 24.837 32.0003 16.0004Z"
            fill="#65B1FC" />
        <path
            d="M21.4489 6.03679C21.121 4.48391 19.6443 3.4246 18.0463 3.64104C17.4625 3.7201 16.9396 3.9591 16.5158 4.30773C15.8804 3.78135 15.0353 3.5121 14.1533 3.63154C12.9309 3.7971 11.9756 4.66341 11.6375 5.77054C11.5601 5.7751 11.4823 5.78266 11.4043 5.79323C9.73034 6.01998 8.55715 7.56079 8.7839 9.23473C9.01065 10.9087 10.5515 12.0819 12.2254 11.8551C13.4478 11.6895 14.403 10.8232 14.7412 9.7161C14.8186 9.71154 14.8963 9.70398 14.9744 9.69341C15.5582 9.61435 16.0811 9.37535 16.5049 9.02666C16.8873 9.34348 17.3457 9.56716 17.8424 9.66898C18.1703 11.2219 19.647 12.2812 21.245 12.0647C22.919 11.838 24.0921 10.2972 23.8654 8.62323C23.6863 7.30054 22.6865 6.29048 21.4489 6.03679Z"
            fill="#FF6C52" />
        <path
            d="M23.8654 8.62363C23.6863 7.30082 22.6865 6.29075 21.4489 6.03707C21.1209 4.48425 19.6443 3.42488 18.0463 3.64132C17.4624 3.72038 16.9396 3.95938 16.5157 4.308C16.3584 4.17769 16.1882 4.06325 16.0078 3.9665V9.35963C16.1852 9.26463 16.3516 9.15313 16.5048 9.02707C16.8873 9.34388 17.3456 9.56757 17.8423 9.66938C18.1703 11.2223 19.6469 12.2816 21.2449 12.0651C22.919 11.8384 24.0922 10.2976 23.8654 8.62363Z"
            fill="#FF432E" />
        <path
            d="M11.9805 16.727C11.9805 16.727 8.77158 16.5178 7.30664 14.0762H11.8409L11.9805 16.727Z"
            fill="#FFAA00" />
        <path
            d="M11.9804 11.6348C11.9804 11.6348 8.23381 11.8791 6.52344 14.7298H11.8176L11.9804 11.6348Z"
            fill="#FFCE00" />
        <path
            d="M11.7353 17.5194L8.31445 28.4334L11.8981 26.6416L14.5859 29.5737L16.7035 26.3973L19.9615 28.9221L20.3687 24.6054L23.6266 26.0714L22.8121 21.1031L25.8257 22.0805C25.8257 22.0805 22.8 14.6233 22.1606 11.981C21.5179 9.32501 18.9275 7.0127 16.0927 7.0127C14.3208 7.0127 12.7338 7.80401 11.6657 9.05257L11.7353 17.5194Z"
            fill="white" />
        <path
            d="M25.8265 22.0806C25.8265 22.0806 22.8007 14.6234 22.1614 11.981C21.5187 9.32501 18.9283 7.0127 16.0935 7.0127C16.0649 7.0127 16.0364 7.01338 16.0078 7.01376V27.4421L16.7044 26.3973L19.9623 28.9221L20.3696 24.6054L23.6275 26.0714L22.813 21.1031L25.8265 22.0806Z"
            fill="#E9EDF5" />
        <path
            d="M15.808 12.1957C15.808 10.4577 14.399 9.04883 12.6611 9.04883H11.6692C10.7966 10.0671 10.2695 11.3901 10.2695 12.8361C10.2695 14.0527 10.6425 15.182 11.2804 16.1161L13.8087 15.126C15.0145 14.6537 15.808 13.4908 15.808 12.1957Z"
            fill="#FF9B87" />
        <path
            d="M8.81641 18.0372C8.81641 16.8452 9.76809 12.4884 10.3382 12.4069C11.5183 12.2383 13.1332 16.8452 13.1332 18.0372C13.1332 19.2292 12.1668 20.1956 10.9748 20.1956C9.78272 20.1956 8.81641 19.2292 8.81641 18.0372Z"
            fill="#FF6C52" />
        <path
            d="M13.1612 12.7141C13.6785 12.7141 14.0979 12.2947 14.0979 11.7774C14.0979 11.2602 13.6785 10.8408 13.1612 10.8408C12.644 10.8408 12.2246 11.2602 12.2246 11.7774C12.2246 12.2947 12.644 12.7141 13.1612 12.7141Z"
            fill="#707789" />
    </g>
    <defs>
        <clipPath id="clip0_6729_82551">
            <rect fill="white" height="32" width="32" />
        </clipPath>
    </defs>
</svg>
