<svg fill="none" height="32" viewBox="0 0 32 32" width="32" xmlns="http://www.w3.org/2000/svg">
    <g clip-path="url(#clip0_6729_82017)">
        <path
            d="M16 32C24.8366 32 32 24.8366 32 16C32 7.16344 24.8366 0 16 0C7.16344 0 0 7.16344 0 16C0 24.8366 7.16344 32 16 32Z"
            fill="#FFCE00" />
        <path
            d="M31.9688 17.0177L19.285 4.33398L16.3756 15.1394L8.41514 18.6941L12.5087 22.7877L6.31445 23.6156L14.6618 31.9452C15.1031 31.9818 15.5497 32.0005 16.0006 32.0005C24.4955 32.0005 31.4441 25.3803 31.9688 17.0177Z"
            fill="#FFA300" />
        <path d="M13.6797 4.33398H18.3222V16.6326H13.6797V4.33398Z" fill="#1DD882" />
        <path d="M16.002 4.33398H18.3215V16.6326H16.002V4.33398Z" fill="#2CC47F" />
        <path
            d="M23.8199 24.3696H8.18189C6.69745 24.3696 5.49414 23.1663 5.49414 21.6819C5.49414 20.1975 6.69752 18.9941 8.18189 18.9941H23.8199C25.3043 18.9941 26.5076 20.1975 26.5076 21.6819C26.5076 23.1663 25.3043 24.3696 23.8199 24.3696Z"
            fill="#1DD882" />
        <path
            d="M23.8192 18.9941H16.002V24.3697H23.8192C25.3036 24.3697 26.507 23.1664 26.507 21.682C26.507 20.1975 25.3036 18.9941 23.8192 18.9941Z"
            fill="#2CC47F" />
        <path
            d="M22.0872 19.3242H9.91111C8.7553 19.3242 7.81836 18.3872 7.81836 17.2314C7.81836 16.0756 8.7553 15.1387 9.91111 15.1387H22.0872C23.2431 15.1387 24.18 16.0756 24.18 17.2314C24.18 18.3872 23.2431 19.3242 22.0872 19.3242Z"
            fill="#2CC47F" />
        <path
            d="M22.0883 15.1387H16.002V19.3242H22.0883C23.2441 19.3242 24.181 18.3873 24.181 17.2315C24.181 16.0756 23.2441 15.1387 22.0883 15.1387Z"
            fill="#06B26B" />
        <path d="M17.0378 13.7411L15.9994 12.8248L14.9609 13.7411V9.2207H17.0378V13.7411Z"
            fill="#FF6C52" />
        <path d="M17.0386 9.2207H16.002V12.8263L17.0386 13.7411V9.2207Z" fill="#FF432E" />
        <path
            d="M17.4962 10.524H14.5026C13.8578 10.524 13.301 10.0724 13.168 9.44151L12.3521 5.57207C12.1734 4.7242 12.8202 3.92676 13.6867 3.92676H18.312C19.1785 3.92676 19.8254 4.72426 19.6466 5.57207L18.8307 9.44151C18.6977 10.0724 18.141 10.524 17.4962 10.524Z"
            fill="#2CC47F" />
        <path
            d="M18.3129 3.92676H16.002V10.524H17.497C18.1418 10.524 18.6985 10.0725 18.8315 9.44151L19.6474 5.57207C19.8263 4.72426 19.1794 3.92676 18.3129 3.92676Z"
            fill="#06B26B" />
        <path
            d="M14.6384 7.51354C14.9969 7.36494 15.167 6.95386 15.0184 6.59537C14.8698 6.23688 14.4588 6.06672 14.1003 6.21532C13.7418 6.36391 13.5716 6.77499 13.7202 7.13349C13.8688 7.49198 14.2799 7.66213 14.6384 7.51354Z"
            fill="#555A66" />
        <path
            d="M17.906 7.51256C18.2645 7.36396 18.4346 6.95289 18.286 6.59439C18.1374 6.2359 17.7264 6.06575 17.3679 6.21434C17.0094 6.36294 16.8392 6.77401 16.9878 7.13251C17.1364 7.491 17.5475 7.66116 17.906 7.51256Z"
            fill="#333940" />
        <g clip-path="url(#clip1_6729_82017)">
            <path
                d="M16 32C24.8366 32 32 24.8366 32 16C32 7.16344 24.8366 0 16 0C7.16344 0 0 7.16344 0 16C0 24.8366 7.16344 32 16 32Z"
                fill="#C38778" />
            <path
                d="M32.0003 16.0001C32.0003 14.9072 31.8907 13.84 31.6819 12.8087L27.007 8.13379L8.48828 25.0756L15.4147 31.9896C15.609 31.9966 15.8042 32.0001 16.0003 32.0001C24.8369 32.0001 32.0003 24.8367 32.0003 16.0001Z"
                fill="#A65D4E" />
            <path
                d="M12.9076 15.6917H9.36239C6.47095 15.6917 4.12695 13.3477 4.12695 10.4563C4.12695 8.49832 5.7142 6.91113 7.67208 6.91113C10.5635 6.91113 12.9075 9.25513 12.9075 12.1466V15.6917H12.9076Z"
                fill="#FDBA12" />
            <path
                d="M10.5287 13.3129H8.68291C7.17747 13.3129 5.95703 12.0925 5.95703 10.587C5.95703 9.56759 6.78347 8.74121 7.80284 8.74121C9.30834 8.74121 10.5287 9.96165 10.5287 11.4671V13.3129Z"
                fill="#FFA300" />
            <path
                d="M19.0938 15.6917H22.6389C25.5304 15.6917 27.8744 13.3477 27.8744 10.4563C27.8744 8.49832 26.2871 6.91113 24.3292 6.91113C21.4378 6.91113 19.0938 9.25513 19.0938 12.1466V15.6917H19.0938Z"
                fill="#FFA300" />
            <path
                d="M21.4707 13.3129H23.3165C24.822 13.3129 26.0424 12.0925 26.0424 10.587C26.0424 9.56759 25.216 8.74121 24.1966 8.74121C22.6911 8.74121 21.4707 9.96165 21.4707 11.4671V13.3129Z"
                fill="#FE8205" />
            <path
                d="M7.33882 23.6932C8.97401 26.1168 11.7388 27.659 14.7978 27.659H16.2059V7.93797L13.0591 7.76953C13.0081 7.77666 12.9572 7.78422 12.9064 7.79222L11.1409 8.25916C7.50782 9.63272 5.07088 13.2803 5.34982 17.2807L5.79976 19.7028L6.0442 20.7355C6.14163 21.1472 6.26651 21.5466 6.41657 21.932L7.33882 23.6932Z"
                fill="#FFCE00" />
            <path
                d="M19.0933 7.79224C19.0426 7.78424 18.9918 7.77674 18.9408 7.76955C18.5276 7.71174 16.0078 7.80055 16.0078 7.80055V27.659H17.2022C20.2612 27.659 23.026 26.1168 24.6612 23.6932L25.5835 21.9319C25.7336 21.5465 25.8584 21.1471 25.9559 20.7354L26.2004 19.7021L26.6502 17.28C26.9288 13.28 24.492 9.63274 20.8592 8.25918L19.0933 7.79224Z"
                fill="#FDBA12" />
            <path
                d="M11.1899 17.9824C11.8223 17.9824 12.3349 17.4697 12.3349 16.8374C12.3349 16.205 11.8223 15.6924 11.1899 15.6924C10.5576 15.6924 10.0449 16.205 10.0449 16.8374C10.0449 17.4697 10.5576 17.9824 11.1899 17.9824Z"
                fill="#636978" />
            <path
                d="M20.8091 17.9824C21.4414 17.9824 21.9541 17.4697 21.9541 16.8374C21.9541 16.205 21.4414 15.6924 20.8091 15.6924C20.1767 15.6924 19.6641 16.205 19.6641 16.8374C19.6641 17.4697 20.1767 17.9824 20.8091 17.9824Z"
                fill="#414952" />
            <path
                d="M14.327 7.68262C13.8952 7.68262 13.4718 7.71262 13.0586 7.77037L14.3472 19.3204H16.1647V7.68262H14.327Z"
                fill="white" />
            <path
                d="M18.9409 7.77037C18.5276 7.71255 18.1043 7.68262 17.6724 7.68262H16.0078V19.3204H17.6523L18.9409 7.77037Z"
                fill="#E9EDF5" />
            <path
                d="M16.0007 21.5132C15.2388 21.5132 14.5328 21.113 14.1414 20.4593L13.6956 19.7145C13.3255 19.0963 13.7709 18.3105 14.4915 18.3105H17.5098C18.2304 18.3105 18.6758 19.0963 18.3057 19.7145L17.8599 20.4593C17.4686 21.113 16.7626 21.5132 16.0007 21.5132Z"
                fill="#636978" />
            <path
                d="M5.34961 17.2803C5.38342 17.7659 5.45723 18.2568 5.5738 18.7493L5.79967 19.7036L9.03623 19.9113L5.34961 17.2803Z"
                fill="#636978" />
            <path
                d="M7.33833 23.6938L10.045 21.9326H6.41602C6.66002 22.5592 6.97064 23.1488 7.33833 23.6938Z"
                fill="#636978" />
            <path
                d="M12.9065 12.1468V7.79297C12.293 7.88953 11.7025 8.04753 11.1406 8.25997L12.9065 12.1468Z"
                fill="#636978" />
            <path
                d="M26.6495 17.2803C26.6157 17.7659 26.5419 18.2568 26.4253 18.7493L26.1995 19.7036L22.9629 19.9113L26.6495 17.2803Z"
                fill="#414952" />
            <path
                d="M24.6618 23.6938L21.9551 21.9326H25.5841C25.3401 22.5592 25.0295 23.1488 24.6618 23.6938Z"
                fill="#414952" />
            <path
                d="M19.0938 12.1468V7.79297C19.7072 7.88953 20.2977 8.04753 20.8596 8.25997L19.0938 12.1468Z"
                fill="#414952" />
            <path d="M15.0625 20.8193H16.9375V23.0447H15.0625V20.8193Z" fill="#636978" />
            <path
                d="M17.5094 18.3105H16.0078V23.0455H16.9378V21.2999C17.3147 21.119 17.6377 20.8299 17.8596 20.4593L18.3054 19.7145C18.6754 19.0963 18.2301 18.3105 17.5094 18.3105Z"
                fill="#414952" />
        </g>
    </g>
    <defs>
        <clipPath id="clip0_6729_82017">
            <rect fill="white" height="32" width="32" />
        </clipPath>
        <clipPath id="clip1_6729_82017">
            <rect fill="white" height="32" width="32" />
        </clipPath>
    </defs>
</svg>
