<svg width="24" height="24" viewBox="0 0 24 24" fill="none" xmlns="http://www.w3.org/2000/svg">
<path fill-rule="evenodd" clip-rule="evenodd" d="M11.6137 3.63967C11.8648 3.5581 12.1352 3.5581 12.3863 3.63967C12.4829 3.67108 12.6096 3.73854 12.8292 3.92498C13.0556 4.1171 13.3276 4.38837 13.7324 4.79314L16.4697 7.53039L17.0638 8.12451C17.6079 8.6686 17.7901 8.85763 17.9184 9.06708C18.0418 9.2684 18.1327 9.48787 18.1878 9.71745C18.2452 9.95632 18.25 10.2188 18.25 10.9883V16.2001C18.25 17.0525 18.2494 17.6468 18.2116 18.1094C18.1745 18.5633 18.1054 18.824 18.0048 19.0215C17.789 19.4449 17.4448 19.7891 17.0215 20.0048C16.824 20.1055 16.5632 20.1746 16.1093 20.2117C15.6467 20.2495 15.0525 20.2501 14.2 20.2501H9.8C8.94755 20.2501 8.35331 20.2495 7.89068 20.2117C7.4368 20.1746 7.17604 20.1055 6.97852 20.0048C6.55516 19.7891 6.21095 19.4449 5.99524 19.0215C5.8946 18.824 5.82546 18.5633 5.78838 18.1094C5.75058 17.6468 5.75 17.0525 5.75 16.2001V10.9883C5.75 10.2188 5.75482 9.95632 5.81217 9.71745C5.86729 9.48787 5.95819 9.2684 6.08156 9.06708C6.20955 8.85822 6.39108 8.66968 6.93158 8.12914C6.93313 8.1276 6.93467 8.12605 6.93622 8.12451L7.53033 7.53039C7.53045 7.53027 7.53057 7.53015 7.53069 7.53004L10.2676 4.79313C10.6724 4.38837 10.9445 4.1171 11.1708 3.92497C11.3904 3.73854 11.5171 3.67108 11.6137 3.63967ZM6.46986 6.46955L9.20693 3.73247L9.22844 3.71097C9.60614 3.33325 9.9214 3.01798 10.2 2.78147C10.4906 2.53479 10.7902 2.33005 11.1502 2.21309C11.7025 2.03363 12.2975 2.03363 12.8498 2.21309C13.2098 2.33005 13.5094 2.53479 13.8 2.78147C14.0786 3.01797 14.3939 3.33324 14.7715 3.71095L14.7931 3.73248L17.5303 6.46973L18.1244 7.06385L18.1849 7.12427C18.2238 7.16319 18.2618 7.20109 18.2987 7.23811L22.5303 11.4697C22.8232 11.7626 22.8232 12.2375 22.5303 12.5304C22.2374 12.8233 21.7626 12.8233 21.4697 12.5304L19.75 10.8108C19.75 10.841 19.75 10.8717 19.75 10.9028V10.9028L19.75 10.9883V16.2001V16.2322C19.75 17.045 19.75 17.7006 19.7066 18.2315C19.662 18.7782 19.5676 19.2583 19.3413 19.7025C18.9818 20.4081 18.4081 20.9818 17.7025 21.3413C17.2582 21.5677 16.7781 21.662 16.2315 21.7067C15.7006 21.7501 15.045 21.7501 14.2321 21.7501H14.2H9.8H9.76788C8.95505 21.7501 8.29944 21.7501 7.76853 21.7067C7.2219 21.662 6.74175 21.5677 6.29754 21.3413C5.59193 20.9818 5.01825 20.4081 4.65873 19.7025C4.43238 19.2583 4.33803 18.7782 4.29336 18.2315C4.24999 17.7006 4.24999 17.045 4.25 16.2322L4.25 16.2001V10.9883L4.24998 10.9028C4.24997 10.8717 4.24997 10.841 4.24997 10.8108L2.53033 12.5304C2.23744 12.8233 1.76256 12.8233 1.46967 12.5304C1.17678 12.2375 1.17678 11.7626 1.46967 11.4697L5.70103 7.23837C5.73806 7.20127 5.77608 7.16328 5.81511 7.12427L5.87556 7.06385L6.46967 6.46973C6.46973 6.46967 6.46979 6.46961 6.46986 6.46955Z" fill="#22282F"/>
</svg>
