<svg xmlns="http://www.w3.org/2000/svg" version="1.1" xmlns:xlink="http://www.w3.org/1999/xlink" xmlns:svgjs="http://svgjs.com/svgjs" width="512" height="512" x="0" y="0" viewBox="0 0 512 512" style="enable-background:new 0 0 512 512" xml:space="preserve" class=""><rect width="512" height="512" rx="20" ry="20" fill="#7d11d9" shape="rounded"></rect><g transform="matrix(0.7,0,0,0.7,76.80000000000001,76.80000000000001)">
<ellipse style="" cx="253.972" cy="253.502" rx="99.273" ry="97.405" fill="#18c9d4" data-original="#18c9d4"></ellipse>
    <path style="" d="M343.879,249.756c0,0-40.255,59.941-89.912,59.941s-89.912-59.941-89.912-59.941
	s40.255-59.941,89.912-59.941S343.879,249.756,343.879,249.756z" fill="#ffd840" data-original="#ffd840"></path>
    <path style="" d="M253.967,236.644c28.476,0,53.856,19.711,70.33,36.526c12.254-12.508,19.582-23.414,19.582-23.414
	s-40.255-59.941-89.912-59.941s-89.912,59.941-89.912,59.941s7.328,10.906,19.582,23.415
	C200.111,256.355,225.491,236.644,253.967,236.644z" fill="#f9ac11" data-original="#f9ac11" class=""></path>
    <circle style="" cx="253.972" cy="249.756" r="37.463" fill="#ffffff" data-original="#ffffff" class=""></circle>
    <path d="M403.802,256l80.75-139.863h-161.5L256,0l-67.052,116.137h-161.5L108.198,256l-80.75,139.863h161.5L256,512l67.052-116.137
	h161.5L403.802,256z M458.596,131.122l-63.447,109.893l-63.447-109.893H458.596z M386.499,256L314.4,380.878H197.6L125.501,256
	L197.6,131.122h116.8L386.499,256z M256,29.971l49.748,86.166h-99.496L256,29.971z M53.404,131.122h126.893L116.85,241.015
	L53.404,131.122z M53.404,380.878l63.447-109.893l63.447,109.893H53.404z M256,482.029l-49.748-86.166h99.496L256,482.029z
	 M395.15,270.985l63.447,109.893H331.703L395.15,270.985z" fill="#000000" data-original="#000000"></path>
    <path d="M253.967,317.19c-53.041,0-94.398-60.674-96.132-63.257l-2.805-4.177l2.805-4.177c1.734-2.582,43.091-63.257,96.132-63.257
	s94.398,60.674,96.133,63.257l2.805,4.177l-2.805,4.177C348.366,256.516,307.008,317.19,253.967,317.19z M173.314,249.751
	c9.927,13.089,42.924,52.454,80.653,52.454c37.721,0,70.713-39.349,80.649-52.449c-9.935-13.1-42.928-52.449-80.649-52.449
	C216.152,197.307,183.228,236.649,173.314,249.751z" fill="#000000" data-original="#000000"></path>
    <path d="M253.967,294.712c-24.789,0-44.956-20.167-44.956-44.956s20.167-44.956,44.956-44.956s44.956,20.167,44.956,44.956
	S278.757,294.712,253.967,294.712z M253.967,219.785c-16.526,0-29.971,13.445-29.971,29.971s13.445,29.971,29.971,29.971
	s29.971-13.445,29.971-29.971S270.493,219.785,253.967,219.785z" fill="#000000" data-original="#000000"></path>
    <g>
	<polygon style="" points="268.952,242.263 261.46,242.263 261.46,234.771 246.474,234.771 246.474,242.263
		238.982,242.263 238.982,257.249 246.474,257.249 246.474,264.741 261.46,264.741 261.46,257.249 268.952,257.249 	" fill="#96c90c" data-original="#96c90c"></polygon>
        <rect x="246.479" y="77.424" style="" width="14.985" height="14.985" fill="#96c90c" data-original="#96c90c"></rect>
        <rect x="246.479" y="422.088" style="" width="14.985" height="14.985" fill="#96c90c" data-original="#96c90c"></rect>
        <rect x="388.83" y="339.668" style="" width="14.985" height="14.985" fill="#96c90c" data-original="#96c90c"></rect>
        <rect x="104.118" y="339.668" style="" width="14.985" height="14.985" fill="#96c90c" data-original="#96c90c"></rect>
        <rect x="388.83" y="159.844" style="" width="14.985" height="14.985" fill="#96c90c" data-original="#96c90c"></rect>
        <rect x="104.118" y="159.844" style="" width="14.985" height="14.985" fill="#96c90c" data-original="#96c90c"></rect>
</g>
    <g>
	<polygon style="" points="373.529,57.463 362.933,46.866 352.337,57.462 341.741,46.866 331.144,57.463
		341.74,68.059 331.144,78.654 341.741,89.251 352.337,78.655 362.933,89.251 373.529,78.654 362.934,68.059 	" fill="#dd2323" data-original="#dd2323" class=""></polygon>
        <polygon style="" points="177.754,434.878 167.159,424.283 156.562,434.878 145.966,424.283 135.37,434.878
		145.966,445.475 135.37,456.072 145.966,466.667 156.562,456.072 167.159,466.667 177.754,456.072 167.159,445.475 	" fill="#dd2323" data-original="#dd2323" class=""></polygon>
        <polygon style="" points="478.427,243.815 467.83,233.219 457.234,243.815 446.639,233.219 436.041,243.815
		446.638,254.412 436.041,265.008 446.639,275.604 457.234,265.008 467.83,275.604 478.427,265.008 467.831,254.412 	" fill="#dd2323" data-original="#dd2323" class=""></polygon>
        <polygon style="" points="177.754,57.463 167.159,46.866 156.562,57.463 145.966,46.866 135.37,57.463
		145.966,68.059 135.37,78.654 145.966,89.251 156.562,78.654 167.159,89.251 177.754,78.654 167.159,68.059 	" fill="#dd2323" data-original="#dd2323" class=""></polygon>
        <polygon style="" points="70.663,231.346 60.066,241.943 49.471,231.346 38.874,241.942 49.471,252.538
		38.874,263.135 49.471,273.731 60.066,263.135 70.663,273.731 81.259,263.135 70.663,252.538 81.259,241.942 	" fill="#dd2323" data-original="#dd2323" class=""></polygon>
        <polygon style="" points="373.529,434.878 362.933,424.283 352.337,434.878 341.741,424.283 331.144,434.878
		341.74,445.475 331.144,456.072 341.741,466.667 352.337,456.072 362.933,466.667 373.529,456.072 362.934,445.475 	" fill="#dd2323" data-original="#dd2323" class=""></polygon>
</g>
    <g>
</g>
    <g>
</g>
    <g>
</g>
    <g>
</g>
    <g>
</g>
    <g>
</g>
    <g>
</g>
    <g>
</g>
    <g>
</g>
    <g>
</g>
    <g>
</g>
    <g>
</g>
    <g>
</g>
    <g>
</g>
    <g>
</g>
</g></svg>