<svg fill="none" height="32" viewBox="0 0 32 32" width="32" xmlns="http://www.w3.org/2000/svg">
    <g clip-path="url(#clip0_6729_82519)">
        <path
            d="M16 32C24.8366 32 32 24.8366 32 16C32 7.16344 24.8366 0 16 0C7.16344 0 0 7.16344 0 16C0 24.8366 7.16344 32 16 32Z"
            fill="#FFCE00" />
        <path
            d="M31.9999 16.0002C31.9999 14.1179 31.6748 12.3115 31.0777 10.6341L25.9124 5.46875L20.0022 16.9883L11.4301 8.39787L6.90039 24.5108L14.317 31.9128C14.8701 31.9706 15.4315 32.0002 15.9999 32.0002C24.8364 32.0002 31.9999 24.8368 31.9999 16.0002Z"
            fill="#FFA300" />
        <path
            d="M11.6467 8.66537C12.5244 10.0071 12.1482 11.8062 10.8065 12.6839C9.46473 13.5616 7.66561 13.1854 6.78792 11.8437C5.91024 10.5019 6.0868 5.46875 6.0868 5.46875C6.0868 5.46875 10.7691 7.32362 11.6467 8.66537Z"
            fill="#FF6C52" />
        <path
            d="M20.3528 8.66537C19.4751 10.0071 19.8514 11.8062 21.1931 12.6839C22.5348 13.5616 24.334 13.1854 25.2116 11.8437C26.0893 10.5019 25.9128 5.46875 25.9128 5.46875C25.9128 5.46875 21.2305 7.32362 20.3528 8.66537Z"
            fill="#FF432E" />
        <path
            d="M27.1988 19.341C27.1988 24.7148 22.1848 27.6057 15.9998 27.6057C9.81478 27.6057 4.80078 24.7148 4.80078 19.341C4.80078 13.9672 9.81472 8.14551 15.9998 8.14551C22.1848 8.14551 27.1988 13.9672 27.1988 19.341Z"
            fill="#FF8870" />
        <path
            d="M15.9997 8.14453C15.9958 8.14453 15.9921 8.14472 15.9883 8.14472V27.6047C15.9921 27.6047 15.9958 27.6048 15.9997 27.6048C22.1847 27.6048 27.1987 24.7138 27.1987 19.3401C27.1987 13.9663 22.1847 8.14453 15.9997 8.14453Z"
            fill="#FF583E" />
        <path
            d="M20.2346 21.1948C20.7127 18.8633 19.2104 16.5856 16.8789 16.1075C14.5475 15.6293 12.2698 17.1316 11.7916 19.4631C11.3134 21.7946 12.8158 24.0722 15.1473 24.5504C17.4787 25.0286 19.7564 23.5262 20.2346 21.1948Z"
            fill="#FF6C52" />
        <path
            d="M15.9997 16.0166C15.9958 16.0166 15.9921 16.0169 15.9883 16.0169V24.6317C15.9921 24.6317 15.9958 24.632 15.9997 24.632C18.3787 24.632 20.3073 22.7034 20.3073 20.3243C20.3073 17.9452 18.3787 16.0166 15.9997 16.0166Z"
            fill="#F92814" />
        <path
            d="M10.6191 16.791C11.2631 16.791 11.7851 16.2689 11.7851 15.625C11.7851 14.981 11.2631 14.459 10.6191 14.459C9.97516 14.459 9.45312 14.981 9.45312 15.625C9.45312 16.2689 9.97516 16.791 10.6191 16.791Z"
            fill="#636978" />
        <path
            d="M21.3828 16.791C22.0268 16.791 22.5488 16.2689 22.5488 15.625C22.5488 14.981 22.0268 14.459 21.3828 14.459C20.7388 14.459 20.2168 14.981 20.2168 15.625C20.2168 16.2689 20.7388 16.791 21.3828 16.791Z"
            fill="#414952" />
        <path
            d="M14.3505 21.3533C14.9971 21.3533 15.5213 20.8292 15.5213 20.1825C15.5213 19.5359 14.9971 19.0117 14.3505 19.0117C13.7039 19.0117 13.1797 19.5359 13.1797 20.1825C13.1797 20.8292 13.7039 21.3533 14.3505 21.3533Z"
            fill="#636978" />
        <path
            d="M17.6493 21.3533C18.296 21.3533 18.8201 20.8292 18.8201 20.1825C18.8201 19.5359 18.296 19.0117 17.6493 19.0117C17.0027 19.0117 16.4785 19.5359 16.4785 20.1825C16.4785 20.8292 17.0027 21.3533 17.6493 21.3533Z"
            fill="#414952" />
    </g>
    <defs>
        <clipPath id="clip0_6729_82519">
            <rect fill="white" height="32" width="32" />
        </clipPath>
    </defs>
</svg>
