<svg xmlns="http://www.w3.org/2000/svg" version="1.1" xmlns:xlink="http://www.w3.org/1999/xlink" xmlns:svgjs="http://svgjs.com/svgjs" width="512" height="512" x="0" y="0" viewBox="0 0 511.773 511.773" style="enable-background:new 0 0 512 512" xml:space="preserve" class=""><circle r="255.8865" cx="255.8865" cy="255.8865" fill="#3d6e94" shape="circle"></circle><g transform="matrix(0.7,0,0,0.7,76.76612091064453,76.76595554351809)"><g><g><path d="m298.868 395.246c0-1.963 0-70.915 0-70.915h-93.245v85.147h93.245z" fill="#fee8c8" data-original="#fee8c8" class=""></path><path d="m413.57 394.446-30.4-32.16-17.5-17.06-5.554-10.946h-69.605l.688 10.946.851 6.94v10.08c0 10.04-4.07 19.12-10.64 25.69-6.58 6.57-15.66 10.64-25.7 10.64-20.07 0-36.34-16.26-36.34-36.33v-10.32l.309-6.473.31-.228v-10.945h-65.026l-9.213 10.946-17.5 17.06-30.4 32.16c-16.05 16.98-24.99 39.46-24.99 62.83v47.19h365.7v-47.19c0-23.37-8.94-45.85-24.99-62.83z" fill="#fdea84" data-original="#fdea84" class=""></path><g><path d="m153.802 394.446 30.4-32.16 17.5-17.06 9.213-10.946h-55.952l-9.213 10.946-17.5 17.06-30.4 32.16c-16.05 16.98-24.99 39.46-24.99 62.83v47.19h55.952v-47.19c.001-23.37 8.94-45.85 24.99-62.83z" fill="#fde044" data-original="#fde044"></path></g><g><g id="XMLID_319_"><g><path d="m438.56 457.276v8.18h-72.89-219.92-72.89v-8.18c0-14.25 3.32-28.17 9.56-40.71h.01 63.32 219.92 61.67l1.33-.65c6.45 12.71 9.89 26.86 9.89 41.36z" fill="#fde044" data-original="#fde044"></path></g></g></g><g><path d="m412.207 170.464v33.59c0 13.394-10.812 24.252-24.148 24.252h-9.293l-246.11-.247h-9.293c-13.337 0-24.148-10.812-24.148-24.148v-35.447c-.097-1.798-.113-13.574-.098-26.629.024-21.262 17.267-38.49 38.529-38.49h236.034c21.279 0 38.529 17.25 38.529 38.529v28.59z" fill="#6ef5c2" data-original="#6ef5c2"></path></g><path d="m180.401 217.215c-2.524-3.815-3.998-8.387-3.998-13.304v-35.447c-.097-1.798-.113-13.574-.098-26.629.024-21.262 17.267-38.49 38.529-38.49h-77.19c-21.262 0-38.505 17.229-38.529 38.49-.015 13.055.001 24.831.098 26.629v35.447c0 13.337 10.812 24.148 24.148 24.148h9.293l47.746.048v-10.892z" fill="#05f2a7" data-original="#05f2a7"></path><g id="XMLID_310_"><g><path d="m377.26 177.936v90.74c0 4.94-.6 9.87-1.79 14.66-2.86 11.55-8.95 21.75-17.25 29.61-8.3 7.87-18.81 13.4-30.5 15.64l-1.65.32-3.6 3.99c-11.56 12.81-28.02 20.13-45.28 20.13h-41.96c-17.26 0-33.72-7.32-45.28-20.13l-3.6-3.99-1.65-.32c-23.39-4.47-42.03-22.14-47.75-45.25-1.19-4.79-1.79-9.72-1.79-14.66v-90.74c-.26-2.76 0-97.31 0-97.31h242.1z" fill="#fef1dc" data-original="#fef1dc"></path></g></g><path d="m260.889 332.896-3.6-3.99-1.65-.32c-23.39-4.47-42.03-22.14-47.75-45.25-1.19-4.79-1.79-9.72-1.79-14.66v-90.74c-.26-2.76 0-97.31 0-97.31h-70.939s-.26 94.55 0 97.31v90.74c0 4.94.6 9.87 1.79 14.66 5.72 23.11 24.36 40.78 47.75 45.25l1.65.32 3.6 3.99c11.56 12.81 28.02 20.13 45.28 20.13h41.96c4.929 0 9.787-.616 14.49-1.768-11.766-2.88-22.532-9.21-30.791-18.362z" fill="#f9e2c2" data-original="#f9e2c2"></path><g><path d="m314.469 103.713v4.174c0 13.885 10.684 25.768 24.552 26.46.446.022.895.034 1.346.034 1.937 0 3.823-.212 5.642-.606-.087 1.094-.145 2.196-.145 3.312 0 23.564 19.887 42.484 43.793 40.89 20.534-1.369 37.058-18.177 38.119-38.73.301-5.829-.625-11.404-2.53-16.502 12.294-6.304 20.536-19.388 19.764-34.323-.898-17.367-14.271-31.81-31.506-34.133-4.513-.608-8.87-.338-12.973.6-2.466-22.504-21.531-40.016-44.692-40.016-7.17 0-13.947 1.679-19.961 4.665l-158.542.403c-6.209-3.238-13.267-5.068-20.754-5.068-23.162 0-42.226 17.512-44.694 40.016-4.103-.938-8.46-1.208-12.973-.6-17.235 2.323-30.608 16.766-31.506 34.133-.772 14.935 7.471 28.019 19.764 34.323-1.905 5.098-2.83 10.673-2.53 16.502 1.061 20.553 17.584 37.361 38.119 38.73 23.906 1.594 43.793-17.326 43.793-40.89 0-1.116-.057-2.218-.145-3.312 1.819.394 3.705.606 5.642.606.452 0 .9-.011 1.346-.034 13.868-.693 24.552-12.575 24.552-26.46v-4.174z" fill="#9df8d3" data-original="#9df8d3"></path></g><g fill="#6ef5c2"><path d="m435.941 68.457c.497-.114.998-.217 1.502-.31-.59-.761-1.211-1.496-1.858-2.208.139.833.263 1.671.356 2.518z" fill="#6ef5c2" data-original="#6ef5c2"></path><path d="m186.738 19.917-9.402.024c-6.208-3.238-13.267-5.068-20.754-5.068-23.162 0-42.226 17.512-44.694 40.016-4.103-.938-8.461-1.208-12.974-.6-17.234 2.323-30.606 16.766-31.504 34.132-.772 14.935 7.47 28.02 19.764 34.323-1.905 5.098-2.831 10.673-2.53 16.502 1.061 20.553 17.584 37.361 38.119 38.73 2.578.172 5.105.092 7.569-.194-5.981-6.749-9.789-15.456-10.28-24.968-.164-3.173.036-6.272.559-9.259.753-4.299-.944-8.604-4.336-11.35-8.7-7.043-14.089-18.011-13.458-30.216.898-17.366 14.269-31.807 31.502-34.132 1.168-.158 2.326-.256 3.471-.3 5.31-.202 9.913-3.618 11.626-8.649 5.491-16.123 19.884-28.122 37.322-30.152z" fill="#6ef5c2" data-original="#6ef5c2"></path></g><circle cx="255.71" cy="233.639" fill="#ea596c" r="38.183" data-original="#ea596c"></circle><g><path d="m336.81 242.686c11.58 11.85 11.35 30.84-.5 42.42-25.42 24.82-52.37 37.41-80.1 37.41s-54.68-12.59-80.1-37.41c-11.85-11.58-12.08-30.57-.5-42.42 11.57-11.86 30.57-12.08 42.42-.51 13.82 13.5 26.67 20.34 38.18 20.34s24.36-6.84 38.18-20.34c11.85-11.58 30.85-11.35 42.42.51z" fill="#f9f7f8" data-original="#f9f7f8"></path></g><path d="m207.889 283.336c-1.19-4.79-1.79-9.72-1.79-14.66v-33.641c-10.446-3.286-22.319-.724-30.489 7.651-11.58 11.85-11.35 30.84.5 42.42 18.473 18.037 37.754 29.608 57.555 34.589-12.639-8.284-22.009-21.141-25.776-36.359z" fill="#efedef" data-original="#efedef"></path><path d="m184.22 440.301h-38.471v-97.09c0-6.908 5.6-12.508 12.508-12.508h13.456c6.908 0 12.508 5.6 12.508 12.508v97.09z" fill="#84ace1" data-original="#84ace1"></path><path d="m175.646 331.344c-1.238-.41-2.558-.641-3.934-.641h-13.456c-6.908 0-12.508 5.6-12.508 12.508v97.09h21.323v-97.09c.001-5.532 3.596-10.217 8.575-11.867z" fill="#558ed6" data-original="#558ed6"></path><path d="m327.201 437.301h38.471v-94.09c0-6.908-5.6-12.508-12.508-12.508h-13.456c-6.908 0-12.508 5.6-12.508 12.508v94.09z" fill="#84ace1" data-original="#84ace1"></path><g id="XMLID_313_"><g><path d="m145.75 426.296h219.92v77.98h-219.92z" fill="#558ed6" data-original="#558ed6"></path></g></g><path d="m145.75 426.296h21.275v77.98h-21.275z" fill="#1471cb" data-original="#1471cb"></path><path d="m313.618 465.287h-115.815c-3.512 0-6.358 2.847-6.358 6.358v32.819h128.531v-32.819c0-3.511-2.847-6.358-6.358-6.358z" fill="#84ace1" data-original="#84ace1"></path><path d="m299.845 7.5h-88.27c-29.46 0-53.342 24.882-53.342 54.342v11.13 17.051h194.954v-17.051-11.13c0-29.46-23.882-54.342-53.342-54.342z" fill="#ea596c" data-original="#ea596c"></path><path d="m214.999 61.842c0-29.46 23.882-54.342 53.342-54.342h-56.766c-29.46 0-53.342 24.882-53.342 54.342v11.13 17.051h56.766v-17.051z" fill="#e43e54" data-original="#e43e54"></path><g><path d="m355.701 103.713h-198.982c-8.765 0-15.87-7.105-15.87-15.87 0-8.765 7.105-15.87 15.87-15.87h198.982c8.765 0 15.87 7.105 15.87 15.87.001 8.764-7.105 15.87-15.87 15.87z" fill="#e43e54" data-original="#e43e54"></path></g><path d="m207.485 87.842c0-8.765 7.105-15.87 15.871-15.87h-66.637c-8.765 0-15.87 7.105-15.87 15.87 0 8.765 7.105 15.871 15.87 15.871h66.637c-8.765 0-15.871-7.106-15.871-15.871z" fill="#c93347" data-original="#c93347"></path><g><path d="m454.247 511.773h-396.721c-4.143 0-7.5-3.358-7.5-7.5s3.357-7.5 7.5-7.5h396.722c4.143 0 7.5 3.358 7.5 7.5s-3.358 7.5-7.501 7.5z" fill="#fde044" data-original="#fde044"></path></g><path d="m82.43 416.566h-.01c-6.24 12.54-9.56 26.46-9.56 40.71v8.18h55.952v-8.18c0-14.252 3.342-28.165 9.577-40.71z" fill="#fdd62f" data-original="#fdd62f"></path></g><g><path d="m256.21 300.016c21.647 0 43.307-10.433 64.377-31.009 2.963-2.894 3.02-7.642.126-10.606-2.894-2.963-7.642-3.021-10.606-.125-18.17 17.744-36.303 26.741-53.896 26.741s-35.727-8.997-53.896-26.741c-2.964-2.895-7.713-2.838-10.606.125-2.894 2.964-2.837 7.712.126 10.606 21.069 20.576 42.728 31.009 64.375 31.009z" fill="#000000" data-original="#000000"></path><path d="m256.21 330.017c29.756 0 58.467-13.305 85.337-39.546 7.166-6.998 11.179-16.369 11.297-26.384.119-10.016-3.67-19.478-10.668-26.644-6.998-7.167-16.367-11.179-26.384-11.298-5.068-.059-9.987.882-14.54 2.728-1.749-23.604-21.5-42.278-45.542-42.278-23.92 0-43.591 18.483-45.515 41.915-4.284-1.598-8.866-2.417-13.567-2.365-10.017.118-19.387 4.131-26.383 11.297-6.999 7.167-10.788 16.629-10.669 26.645.118 10.016 4.131 19.386 11.297 26.384 26.87 26.24 55.581 39.546 85.337 39.546zm-.5-128.423c16.918 0 30.683 13.764 30.683 30.683 0 2.763-.391 5.492-1.123 8.146-10.726 9.558-20.706 14.594-29.059 14.594-8.694 0-19.148-5.447-30.373-15.779-.531-2.281-.809-4.614-.809-6.962-.001-16.918 13.763-30.682 30.681-30.682zm-74.733 46.327c4.198-4.3 9.819-6.707 15.829-6.778.091-.001.182-.001.273-.001 5.908 0 11.479 2.268 15.714 6.403 15.27 14.912 29.877 22.472 43.417 22.472s28.147-7.561 43.417-22.473c4.3-4.199 9.977-6.481 15.986-6.401 6.01.072 11.632 2.479 15.831 6.779 4.198 4.3 6.472 9.977 6.4 15.986-.07 6.009-2.479 11.631-6.778 15.831-23.97 23.409-49.154 35.278-74.856 35.278s-50.887-11.869-74.856-35.278c-4.3-4.199-6.708-9.821-6.778-15.831-.072-6.009 2.202-11.686 6.401-15.987z" fill="#000000" data-original="#000000"></path><path d="m454.247 496.773h-8.184v-39.497c0-25.389-9.604-49.532-27.044-67.981l-30.396-32.157c-.07-.074-.142-.147-.215-.219l-15.297-14.912c-.548-9.135-7.229-16.641-15.987-18.407 12.5-9.317 21.753-22.798 25.631-38.456 1.333-5.381 2.009-10.922 2.009-16.468v-33.118h3.295c17.451 0 31.648-14.197 31.648-31.648v-31.15c9.031-8.325 14.884-20.041 15.56-33.127.236-4.588-.16-9.11-1.181-13.507 12.108-8.62 19.197-22.966 18.416-38.092-1.089-21.04-17.067-38.357-37.994-41.178-2.63-.355-5.274-.47-7.908-.343-5.927-22.774-26.554-39.141-50.761-39.141-7.121 0-13.984 1.393-20.446 4.138-10.008-7.231-22.284-11.51-35.548-11.51h-88.27c-13.112 0-25.259 4.184-35.204 11.267-6.254-2.543-13.003-3.894-19.79-3.894-24.207 0-44.834 16.366-50.761 39.141-2.64-.128-5.279-.013-7.908.343-20.927 2.82-36.905 20.138-37.994 41.179-.781 15.125 6.308 29.471 18.416 38.091-1.021 4.397-1.417 8.919-1.181 13.507.65 12.595 6.101 23.913 14.56 32.168v32.109c0 17.451 14.197 31.648 31.648 31.648h4.295v33.118c0 5.545.676 11.086 2.009 16.468 3.861 15.587 13.047 29.016 25.462 38.328-9.158 1.448-16.253 9.115-16.818 18.534l-15.297 14.912c-.073.071-.145.145-.215.219l-30.396 32.157c-17.439 18.449-27.044 42.592-27.044 67.981v39.497h-7.831c-4.143 0-7.5 3.358-7.5 7.5s3.357 7.5 7.5 7.5h396.722c4.143 0 7.5-3.358 7.5-7.5s-3.358-7.5-7.501-7.5zm-23.183-39.497v.68h-57.892v-31.655-2.233h51.048c4.471 10.377 6.844 21.635 6.844 33.208zm-57.892 15.68h57.892v23.817h-57.892zm34.947-73.358c2.825 2.989 5.403 6.155 7.733 9.47h-42.68v-46.053l4.655 4.538zm-49.947 19.203h-23.472v-13.156c0-4.142-3.357-7.5-7.5-7.5s-7.5 3.358-7.5 7.5v13.156h-127.98v-73.893c6.036 4.961 12.861 8.83 20.153 11.479v5.856c0 24.172 19.665 43.837 43.837 43.837s43.837-19.665 43.837-43.837v-5.502c7.266-2.513 14.088-6.229 20.153-11.026v27.967c0 4.142 3.357 7.5 7.5 7.5s7.5-3.358 7.5-7.5v-30.471c0-2.761 2.246-5.008 5.008-5.008h13.456c2.762 0 5.008 2.247 5.008 5.008zm-131.299-58.811c2.76.341 5.548.535 8.357.535h41.959c2.469 0 4.925-.138 7.357-.402v2.12c0 15.901-12.937 28.837-28.837 28.837s-28.837-12.936-28.837-28.837v-2.253zm177.834-156.079c0 9.18-7.469 16.648-16.648 16.648h-3.295v-35.034c.677.028 1.355.047 2.036.047 1.113 0 2.233-.038 3.357-.112 5.113-.341 9.999-1.481 14.55-3.281zm-11.63-148.204c.233 2.127 1.363 4.053 3.106 5.293 1.743 1.241 3.935 1.677 6.02 1.201 3.411-.78 6.876-.94 10.301-.479 13.78 1.857 24.302 13.25 25.018 27.087.588 11.371-5.573 22.072-15.696 27.262-3.387 1.736-4.936 5.734-3.604 9.3 1.609 4.307 2.305 8.845 2.064 13.489-.858 16.632-14.53 30.527-31.127 31.633-9.407.629-18.343-2.552-25.181-8.95-6.845-6.403-10.614-15.089-10.614-24.457 0-.805.04-1.693.121-2.718.188-2.365-.754-4.679-2.54-6.24-1.786-1.562-4.207-2.189-6.523-1.684-1.658.359-3.352.499-5.027.412-8.678-.433-15.672-7.058-17.132-15.643h33.439c12.887 0 23.37-10.484 23.37-23.371 0-11.175-7.886-20.539-18.385-22.829v-4.17c0-14.171-4.884-27.215-13.038-37.569 2.662-.593 5.397-.9 8.19-.9 19.146-.001 35.154 14.33 37.238 33.333zm-93.232-40.707c25.277 0 45.842 20.565 45.842 45.842v3.629h-35.517c-4.143 0-7.5 3.358-7.5 7.5s3.357 7.5 7.5 7.5h45.531c4.615 0 8.37 3.755 8.37 8.37 0 4.616-3.755 8.371-8.37 8.371h-41.223c-.003 0-.006 0-.01 0s-.006 0-.01 0h-116.497c-.003 0-.006 0-.01 0s-.006 0-.01 0h-41.223c-4.615 0-8.37-3.755-8.37-8.371 0-4.615 3.755-8.37 8.37-8.37h121.488c4.143 0 7.5-3.358 7.5-7.5s-3.357-7.5-7.5-7.5h-112.472v-3.629c0-25.277 20.564-45.842 45.842-45.842zm-209.25 101.071c-10.123-5.19-16.284-15.892-15.696-27.261.716-13.838 11.237-25.23 25.018-27.088 3.424-.462 6.889-.301 10.301.479 2.084.477 4.276.04 6.02-1.201 1.743-1.24 2.873-3.167 3.106-5.293 2.084-19.003 18.093-33.333 37.238-33.333 2.496 0 4.941.25 7.33.723-8.239 10.382-13.178 23.494-13.178 37.747v4.41c-9.996 2.651-17.385 11.772-17.385 22.59 0 12.887 10.483 23.371 23.37 23.371h33.439c-1.46 8.585-8.455 15.21-17.135 15.643-1.659.086-3.366-.053-5.024-.412-2.322-.505-4.738.122-6.523 1.684-1.786 1.562-2.728 3.875-2.54 6.24.081 1.024.121 1.913.121 2.718 0 9.368-3.77 18.054-10.614 24.457-6.839 6.398-15.785 9.577-25.181 8.95-16.597-1.106-30.269-15.001-31.127-31.633-.24-4.644.455-9.183 2.064-13.489 1.332-3.568-.217-7.566-3.604-9.302zm32.767 104.488c-9.18 0-16.648-7.468-16.648-16.648v-22.136c4.831 2.037 10.061 3.32 15.55 3.686 1.125.075 2.243.112 3.357.112.681 0 1.359-.02 2.036-.047v35.034h-4.295zm20.864 60.978c-1.041-4.202-1.569-8.529-1.569-12.86v-86.189c5.863-2.206 11.297-5.559 16.033-9.99 8.603-8.049 13.974-19.024 15.131-30.663 16.644-.854 29.897-14.023 31.473-30.622h101.833c1.576 16.601 14.831 29.77 31.473 30.622 1.157 11.639 6.528 22.613 15.131 30.663 4.736 4.431 10.17 7.784 16.033 9.99v86.189c0 4.331-.528 8.658-1.569 12.861-5.003 20.198-21.442 35.774-41.882 39.682l-1.646.315c-1.604.307-3.064 1.129-4.158 2.342l-3.604 3.993c-10.125 11.22-24.601 17.655-39.714 17.655h-41.959c-15.113 0-29.589-6.435-39.715-17.655l-3.604-3.993c-1.094-1.212-2.554-2.035-4.158-2.342l-1.647-.315c-20.44-3.907-36.879-19.484-41.882-39.683zm9.022 61.674c0-2.761 2.246-5.008 5.008-5.008h13.456c2.762 0 5.008 2.247 5.008 5.008v75.59h-23.472zm-72.891 114.065c0-11.573 2.373-22.831 6.843-33.208h51.048v1.233c0 .169.014.334.025.5-.011.166-.025.331-.025.5v31.655h-57.891zm53.236-89.724 4.655-4.538v46.053h-42.68c2.33-3.314 4.908-6.481 7.733-9.47zm-53.236 105.404h57.892v23.817h-57.892zm247.119 23.817v-25.127c0-7.642-6.217-13.858-13.858-13.858h-61.161c-4.143 0-7.5 3.358-7.5 7.5s3.357 7.5 7.5 7.5h60.02v23.986h-113.532v-23.986h21.549c4.143 0 7.5-3.358 7.5-7.5s-3.357-7.5-7.5-7.5h-22.69c-7.642 0-13.858 6.217-13.858 13.858v25.127h-30.696v-62.972h204.924v62.972z" fill="#000000" data-original="#000000"></path><path d="m191.445 199.138c4.143 0 7.5-3.358 7.5-7.5v-13.568c0-4.142-3.357-7.5-7.5-7.5s-7.5 3.358-7.5 7.5v13.568c0 4.142 3.357 7.5 7.5 7.5z" fill="#000000" data-original="#000000"></path><path d="m312.476 178.07v13.568c0 4.142 3.357 7.5 7.5 7.5s7.5-3.358 7.5-7.5v-13.568c0-4.142-3.357-7.5-7.5-7.5s-7.5 3.358-7.5 7.5z" fill="#000000" data-original="#000000"></path></g></g></g></svg>