<svg xmlns="http://www.w3.org/2000/svg" version="1.1" xmlns:xlink="http://www.w3.org/1999/xlink" xmlns:svgjs="http://svgjs.com/svgjs" width="512" height="512" x="0" y="0" viewBox="0 0 512 512" style="enable-background:new 0 0 512 512" xml:space="preserve" class=""><circle r="256" cx="256" cy="256" fill="#5dc6dd" shape="circle"></circle><g transform="matrix(0.7,0,0,0.7,76.80221385955812,76.7985580444336)"><g id="filled_outline" data-name="filled outline"><polygon points="243.096 20 76.213 20 76.213 186.883 326.537 270.325 243.096 20" style="" fill="#ff2b63" data-original="#ff2b63" class=""></polygon><path d="M232,136a400.794,400.794,0,0,1-12.28,98.719l106.817,35.606L243.1,20H214.914A400.011,400.011,0,0,1,232,136Z" style="" fill="#e5235f" data-original="#e5235f"></path><rect x="208" y="424" width="96" height="48" style="" fill="#b3b3b3" data-original="#b3b3b3" class=""></rect><path d="M120,312a23.91,23.91,0,0,0-9.231,1.843,15.981,15.981,0,0,0-25.761-5.449A24,24,0,0,0,41.4,328.07c-.461-.039-.924-.07-1.4-.07a16,16,0,0,0,0,32h80a24,24,0,0,0,0-48Z" style="" fill="#48bdff" data-original="#48bdff" class=""></path><path d="M126.969,313.031A24.009,24.009,0,0,1,104,344H24a16,16,0,0,0,16,16h80a24,24,0,0,0,6.969-46.969Z" style="" fill="#3ba4f2" data-original="#3ba4f2"></path><path d="M368,120a23.928,23.928,0,0,1,8.844,1.69,23.994,23.994,0,0,1,40.671-10.09A24,24,0,0,1,464,120a24,24,0,0,1,0,48H368a24,24,0,0,1,0-48Z" style="" fill="#48bdff" data-original="#48bdff" class=""></path><path d="M470.969,121.031A24.009,24.009,0,0,1,448,152H352a24.008,24.008,0,0,1-6.969-1.031A24.009,24.009,0,0,0,368,168h96a24,24,0,0,0,6.969-46.969Z" style="" fill="#3ba4f2" data-original="#3ba4f2"></path><rect x="288" y="408" width="32" height="80" rx="16" style="" fill="#703f16" data-original="#703f16"></rect><rect x="192" y="408" width="32" height="80" rx="16" style="" fill="#703f16" data-original="#703f16"></rect><path d="M460.442,397.488c-18.713,10-32.857,12.974-39.823,8.379-8.838-5.831-8.23-24.89-7.644-43.322.767-24.094,1.56-49.008-16.4-60.7-10.049-6.546-20.878-5.258-30.429-4.123-9.455,1.124-17.621,2.094-25.121-3.561-6.822-5.145-11.159-14.13-12.891-26.7a8.179,8.179,0,0,0-.268-1.2,7.984,7.984,0,0,0-.067-4.787L251.313,32h4.9c7.377,0,14.344,0,20.824,2.8,7.188,3.108,11.37,7.285,15.8,11.708,4.384,4.378,8.918,8.906,16,12.2,18.085,8.416,41.546,3.007,71.725-16.538a8,8,0,0,0-8.7-13.43C347.033,44.828,328.1,50.03,315.589,44.207c-4.525-2.106-7.733-5.309-11.446-9.018-5.048-5.041-10.77-10.754-20.754-15.072C273.869,16,264.488,16,256.213,16h-176a8,8,0,0,0-8,8V183.792c-1.1,15.891,2.237,28.484,9.936,37.427,7.614,8.844,16.961,11.5,26,14.064,7.957,2.259,15.474,4.393,22.824,10.762a49.21,49.21,0,0,1,13.725,20.7,8.125,8.125,0,0,0,.358.831l8,16a8,8,0,1,0,14.31-7.156l-7.8-15.605a64.813,64.813,0,0,0-18.113-26.863c-10.038-8.7-20.514-11.673-28.932-14.062-7.691-2.184-13.765-3.908-18.245-9.112-3.3-3.827-5.3-9.074-5.992-15.657l93.365,31.122L244.9,416H230.624A24,24,0,0,0,184,424v16H160a8,8,0,0,0,0,16h24v16a24,24,0,0,0,46.624,8h50.752A24,24,0,0,0,328,472V456h24a8,8,0,0,0,0-16H328V424a24,24,0,0,0-46.624-8H261.767L200.623,232.569,312.313,269.8c2.353,16.861,8.772,29.355,19.083,37.131,12.634,9.528,25.947,7.946,36.643,6.675,9.066-1.077,14.87-1.574,19.808,1.641,10.41,6.781,9.762,27.12,9.136,46.79-.726,22.825-1.478,46.428,14.824,57.184a30.338,30.338,0,0,0,17.133,4.8c10.594,0,23.527-4.129,39.043-12.419a8,8,0,1,0-7.541-14.112ZM208,480a8.009,8.009,0,0,1-8-8V424a8,8,0,0,1,16,0v48A8.009,8.009,0,0,1,208,480Zm24-48h16v32H232Zm72-16a8.009,8.009,0,0,1,8,8v48a8,8,0,0,1-16,0V424A8.009,8.009,0,0,1,304,416Zm-24,48H264V432h16ZM99.527,32H206a309.6,309.6,0,0,0-61.186,45.29ZM133.5,88.6a309.606,309.606,0,0,0-45.287,61.184V43.314ZM235.409,34.885l66.5,199.5L156.136,88.61A293.721,293.721,0,0,1,235.409,34.885ZM91.1,179.2a293.608,293.608,0,0,1,49.832-75.1l34.391,103.174Zm71.1-61.9L290.593,245.694l-96.3-32.1Z" fill="#000000" data-original="#000000" class=""></path><path d="M120,304a32.1,32.1,0,0,0-5.667.5A24.017,24.017,0,0,0,87,297.752,32,32,0,0,0,32,320q0,.683.028,1.361A24,24,0,0,0,40,368h80a32,32,0,0,0,0-64Zm0,48H40a8,8,0,0,1,0-16c.239,0,.476.021.709.041a8,8,0,0,0,8.22-10.66,16,16,0,0,1,29.08-13.112,8,8,0,0,0,12.5,1.932,7.98,7.98,0,0,1,12.875,2.724,8,8,0,0,0,10.463,4.3A16,16,0,1,1,120,352Z" fill="#000000" data-original="#000000" class=""></path><path d="M471.187,112.813a31.988,31.988,0,0,0-56.018-12.974,31.965,31.965,0,0,0-43.033,12.427A32,32,0,1,0,368,176h96a32,32,0,0,0,7.187-63.187ZM464,160H368a16,16,0,1,1,5.893-30.875,8,8,0,0,0,10.67-5.336A16.026,16.026,0,0,1,400,112a15.844,15.844,0,0,1,11.676,5.069,8,8,0,0,0,13.333-2.668A16,16,0,0,1,456,120a8,8,0,0,0,8,8,16,16,0,0,1,0,32Z" fill="#000000" data-original="#000000" class=""></path></g></g></svg>