<svg width="42" height="42" viewBox="0 0 42 42" fill="none" xmlns="http://www.w3.org/2000/svg">
<g clip-path="url(#clip0_368_5856)">
<path d="M41.9979 20.9307C41.9601 9.36364 32.5697 0 21.0011 0C9.42823 0 0.0398699 9.36364 0.00209827 20.9307L0 20.8762V21.1112L0.00209827 21.063C0.0377715 32.6322 9.42613 42 21.0011 42C32.5718 42 41.9601 32.6364 41.9979 21.0693L42 21.1238V21.0105V21V20.8762L41.9979 20.9307ZM15.2786 30.5483C10.0137 30.5483 5.735 26.2694 5.735 21.0021C5.735 15.7348 10.0137 11.4559 15.2786 11.4559C17.8597 11.4559 20.0169 12.4023 21.6704 13.9489L18.953 16.5826C18.271 15.9341 17.0665 15.1703 15.2786 15.1703C12.1205 15.1703 9.54364 17.7955 9.54364 21.0147C9.54364 24.2317 12.1226 26.857 15.2786 26.857C18.9341 26.857 20.2813 24.3262 20.5289 22.8278H15.2744V19.2645H24.2033C24.3417 19.8647 24.4446 20.4271 24.4446 21.2203C24.4446 26.6702 20.7891 30.5483 15.2786 30.5483ZM37.224 21.9548H33.4069V25.7721H30.5447V21.9548H26.7256V19.0924H30.5447V15.2731H33.4069V19.0924H37.224V21.9548Z" fill="#FC3637"/>
</g>
<defs>
<clipPath id="clip0_368_5856">
<rect width="42" height="42" fill="white"/>
</clipPath>
</defs>
</svg>
