<svg xmlns="http://www.w3.org/2000/svg" version="1.1" xmlns:xlink="http://www.w3.org/1999/xlink" xmlns:svgjs="http://svgjs.com/svgjs" width="512" height="512" x="0" y="0" viewBox="0 0 512 512" style="enable-background:new 0 0 512 512" xml:space="preserve" class=""><rect width="512" height="512" rx="20" ry="20" fill="#f38787" shape="rounded"></rect><g transform="matrix(0.7,0,0,0.7,76.80000000000001,76.7999267578125)"><g><g><path d="m256 22c-135.31 0-245 109.69-245 245 0 84.375 42.655 158.783 107.574 202.85h52.809l39.147 37.921c14.736 2.766 29.931 4.229 45.47 4.229s30.734-1.463 45.47-4.229l39.147-37.921h52.809c64.919-44.067 107.574-118.475 107.574-202.85 0-135.31-109.69-245-245-245z" fill="#024788" data-original="#024788"></path></g><g><circle cx="256" cy="222" fill="#003060" r="180" data-original="#003060"></circle></g><g><g><path d="m305.968 3.392c-27.614-12.274-49.968 12.711-49.968 12.711s-22.354-24.985-49.968-12.711c-27.614 12.273-27.614 53.036-3.068 80.212 15.123 16.744 31.744 27.664 42.276 33.58 6.685 3.755 14.835 3.755 21.52 0 10.532-5.916 27.153-16.836 42.276-33.58 24.546-27.176 24.546-67.94-3.068-80.212z" fill="#ff7186" data-original="#ff7186"></path></g><g><path d="m266.76 117.184c-16.129-20.826-29.362-79.835-10.76-101.082 0 0-22.354-24.984-49.968-12.711s-27.614 53.036-3.068 80.212c15.123 16.744 31.744 27.664 42.276 33.58 6.685 3.756 14.835 3.756 21.52.001z" fill="#ff4155" data-original="#ff4155"></path></g></g><g><g><path d="m196.653 108.21c-24.553-.627-33.567 25.086-33.567 25.086s-24.557-11.808-41.475 5.997c-16.918 17.804-4.239 48.414 22.645 61.185 16.564 7.869 32.441 10.899 42.19 12.066 6.188.741 12.308-1.795 16.16-6.693 6.068-7.718 15.152-21.088 21.301-38.364 9.978-28.041-2.701-58.65-27.254-59.277z" fill="#ff7186" data-original="#ff7186"></path></g><g><path d="m202.605 205.851c-18.589-10.621-46.879-50.815-39.519-72.555 0 0-24.557-11.808-41.474 5.997-16.918 17.804-4.239 48.414 22.645 61.185 16.564 7.869 32.441 10.899 42.19 12.066 6.186.741 12.307-1.794 16.158-6.693z" fill="#ff4155" data-original="#ff4155"></path></g></g><g><g><path d="m390.388 139.293c-16.918-17.805-41.475-5.997-41.475-5.997s-9.015-25.713-33.567-25.086-37.231 31.236-27.252 59.277c6.148 17.277 15.232 30.646 21.301 38.364 3.852 4.899 9.972 7.434 16.16 6.694 9.749-1.167 25.626-4.197 42.19-12.066 26.883-12.772 39.562-43.381 22.643-61.186z" fill="#ff7186" data-original="#ff7186"></path></g><g><path d="m325.554 212.545c-5.634-20.655 2.783-69.08 23.36-79.248 0 0-9.015-25.713-33.567-25.086-24.553.627-37.231 31.236-27.252 59.277 6.148 17.277 15.232 30.646 21.301 38.364 3.85 4.898 9.971 7.433 16.158 6.693z" fill="#ff4155" data-original="#ff4155"></path></g></g><g><g><path d="m186.125 305.757s-23.421-29.739-39.907-52.229-28.03-69.339-28.815-88.89c-.554-13.787-1.799-56.769-2.485-80.916-.271-9.527-7.852-17.225-17.373-17.645-10.191-.449-18.759 7.566-18.978 17.765-.801 37.179-1.898 120.009 3.219 153.373 6.729 43.871 16.665 86.903 59.71 138.07z" fill="#feb98a" data-original="#feb98a"></path></g><g><path d="m240.584 395.72-30.03 112.07c-33.58-6.3-64.74-19.44-91.98-37.94l8.41-31.38c6.95-25.94.96-53.72-16.3-74.29-.09-.11-.18-.22-.28-.33-43.04-51.17-52.98-94.2-59.71-138.07-2.88-18.77-3.79-53.21-3.89-86.36-.08-25.76.33-50.75.68-67.01.22-10.22 8.81-18.24 19.02-17.77 9.58.45 17.07 8.51 17.34 18.1.16 5.67.35 12.34.55 19.41.68 23.14 1.5 50.55 1.92 61.05.79 19.55 13 63.11 28.82 88.89 7.696 12.547 18.385 26.401 26.762 36.686 2.199 2.7 6.458.105 5.075-3.091l-34.838-80.525c-3.67-8.48-.4-18.37 7.61-23 2.87-1.66 6-2.44 9.09-2.44 6.29 0 12.42 3.27 15.79 9.11l28.27 48.97c8.74 15.13 19.51 28.97 31.79 41.41 49.871 50.58 35.901 126.51 35.901 126.51z" fill="#ffc9a4" data-original="#ffc9a4"></path></g><g><path d="m126.984 438.47c6.95-25.94.96-53.72-16.3-74.29-.09-.11-.18-.22-.28-.33-43.04-51.17-52.98-94.2-59.71-138.07-2.88-18.77-3.79-53.21-3.89-86.36-.08-25.76.33-50.75.68-67.01.22-10.2 8.78-18.22 18.97-17.77 0 0 .5 24.56 1.67 55.12 1.36 35.64 3.62 79.42 7.07 101.88 6.73 43.87 16.66 86.9 59.71 138.07.09.11.18.22.27.33 17.27 20.57 23.25 48.35 16.3 74.29l-1.27 4.75c-6.05 22.58-1.64 45.49 10.27 63.6-14.76-6.26-28.79-13.92-41.9-22.83z" fill="#feb98a" data-original="#feb98a"></path></g></g><g><g><path d="m325.883 305.757s23.421-29.739 39.907-52.229 28.03-69.339 28.815-88.89c.554-13.787 1.799-56.769 2.485-80.916.271-9.527 7.852-17.225 17.373-17.645 10.191-.449 18.759 7.566 18.978 17.765.801 37.179 1.898 120.009-3.219 153.373-6.729 43.871-16.665 86.903-59.71 138.07z" fill="#feb98a" data-original="#feb98a"></path></g><g><path d="m465.194 139.42c-.09 33.15-1 67.59-3.88 86.36-6.73 43.87-16.67 86.9-59.71 138.07-.1.11-.19.22-.28.33-17.26 20.57-23.25 48.35-16.3 74.29l8.41 31.38c-27.24 18.5-58.4 31.64-91.98 37.94l-30.03-112.07s-13.97-75.93 35.9-126.51c12.28-12.44 23.05-26.28 31.79-41.41l28.27-48.97c3.37-5.84 9.5-9.11 15.79-9.11 3.09 0 6.22.78 9.09 2.44 8.01 4.63 11.28 14.52 7.61 23l-34.838 80.525c-1.383 3.196 2.876 5.791 5.075 3.091 8.378-10.285 19.066-24.139 26.762-36.686 15.82-25.78 28.03-69.34 28.82-88.89.42-10.5 1.24-37.91 1.92-61.05.2-7.07.39-13.74.55-19.41.27-9.59 7.76-17.65 17.34-18.1 10.21-.47 18.8 7.55 19.02 17.77.351 16.26.761 41.25.671 67.01z" fill="#ffc9a4" data-original="#ffc9a4"></path></g><g><path d="m465.194 139.42c.01.01 0 .01 0 .01-.09 33.15-1 67.58-3.88 86.35-6.73 43.87-16.67 86.9-59.71 138.07-.1.11-.19.22-.28.33-17.26 20.57-23.25 48.35-16.3 74.29l8.41 31.38c-13.11 8.91-27.14 16.57-41.9 22.82 11.91-18.1 16.32-41.02 10.27-63.59l-1.27-4.75c-6.95-25.94-.97-53.72 16.3-74.29.09-.11.18-.22.27-.33 43.05-51.17 52.98-94.2 59.71-138.07 3.45-22.46 5.71-66.24 7.07-101.88 1.17-30.56 1.67-55.12 1.67-55.12 10.19-.45 18.75 7.57 18.97 17.77.35 16.26.76 41.25.67 67.01z" fill="#feb98a" data-original="#feb98a"></path></g></g></g></g></svg>