<svg xmlns="http://www.w3.org/2000/svg" version="1.1" xmlns:xlink="http://www.w3.org/1999/xlink" xmlns:svgjs="http://svgjs.com/svgjs" width="512" height="512" x="0" y="0" viewBox="0 0 511 511.99947" style="enable-background:new 0 0 512 512" xml:space="preserve" class=""><circle r="255.5" cx="255.5" cy="255.999735" fill="#013156" shape="circle"></circle><g transform="matrix(0.6,0,0,0.6,102.50625,102.39990625381469)"><path d="m512.03125 256.234375c0 68.320313-26.601562 132.546875-74.910156 180.855469s-112.539063 74.910156-180.855469 74.910156c-68.160156 0-132.347656-26.648438-180.738281-75.027344-48.378906-48.390625-75.027344-112.578125-75.027344-180.738281 0-68.320313 26.597656-132.546875 74.910156-180.855469 48.308594-48.308594 112.535156-74.910156 180.855469-74.910156h.148437c8.601563 0 15.960938 5.859375 17.890626 14.230469 1.941406 8.390625-2.101563 16.890625-9.832032 20.667969-2.777344 1.363281-5.519531 2.800781-8.207031 4.332031-22.480469 12.6875-41.539063 30.738281-55.488281 52.628906-16.019532 25.167969-24.5 54.320313-24.5 84.308594 0 41.878906 16.128906 81.21875 45.417968 110.777343 10.378907 10.480469 22.019532 19.320313 34.570313 26.371094 22.847656 12.839844 48.75 19.789063 75.777344 20.027344.460937.011719.929687.011719 1.398437.011719 61.71875 0 117.878906-36.199219 143.328125-92.539063 3.539063-7.839844 11.910157-12.140625 20.332031-10.460937 8.449219 1.679687 14.539063 8.871093 14.808594 17.492187.078125 2.628906.121094 5.296875.121094 7.917969zm0 0" fill="#f5f0eb" data-original="#f5f0eb" class=""></path><path d="m472.601562 32.417969v120.398437c0 20.320313-16.53125 36.859375-36.851562 36.859375-20.328125 0-36.859375-16.539062-36.859375-36.859375 0-20.320312 16.53125-36.847656 36.859375-36.847656 2.339844 0 4.632812.226562 6.851562.648438v-24.058594l-58.449218 16.238281-19.519532 5.421875v68.597656c0 .078125-.019531.160156-.019531.238282.007813.160156.019531.320312.019531.480468 0 20.320313-16.539062 36.851563-36.859374 36.851563-20.320313 0-36.847657-16.53125-36.847657-36.851563 0-20.320312 16.527344-36.847656 36.847657-36.847656 2.339843 0 4.628906.230469 6.859374.648438v-94.585938c0-14.5 9.75-27.332031 23.71875-31.210938l25.800782-7.167968 47.378906-13.171875c9.839844-2.730469 20.140625-.75 28.269531 5.429687 8.128907 6.179688 12.800781 15.578125 12.800781 25.789063zm0 0" fill="#ffc44d" data-original="#ffc44d" class=""></path><path d="m264.472656 35.367188c-2.777344 1.363281-5.519531 2.800781-8.207031 4.332031v-39.230469h.148437c8.601563 0 15.960938 5.859375 17.890626 14.230469 1.941406 8.390625-2.101563 16.886719-9.832032 20.667969zm0 0" fill="#f2d8c7" data-original="#f2d8c7"></path><path d="m512.03125 256.234375c0 68.320313-26.601562 132.546875-74.910156 180.855469s-112.539063 74.910156-180.855469 74.910156v-198.214844c22.847656 12.839844 48.75 19.789063 75.777344 20.027344.460937.011719.929687.011719 1.398437.011719 61.71875 0 117.878906-36.199219 143.328125-92.539063 3.539063-7.839844 11.910157-12.140625 20.332031-10.460937 8.449219 1.679687 14.539063 8.871093 14.808594 17.492187.078125 2.628906.121094 5.296875.121094 7.917969zm0 0" fill="#f2d8c7" data-original="#f2d8c7"></path><path d="m472.601562 32.417969v120.398437c0 20.320313-16.53125 36.859375-36.851562 36.859375-20.328125 0-36.859375-16.539062-36.859375-36.859375 0-20.320312 16.53125-36.847656 36.859375-36.847656 2.339844 0 4.632812.226562 6.851562.648438v-24.058594l-58.449218 16.238281v-94.425781l47.378906-13.171875c9.839844-2.730469 20.140625-.75 28.269531 5.429687 8.128907 6.179688 12.800781 15.578125 12.800781 25.789063zm0 0" fill="#ffa80d" data-original="#ffa80d" class=""></path></g></svg>