<svg fill="none" height="32" viewBox="0 0 32 32" width="32" xmlns="http://www.w3.org/2000/svg">
    <path
        d="M16 32C24.8366 32 32 24.8366 32 16C32 7.16344 24.8366 0 16 0C7.16344 0 0 7.16344 0 16C0 24.8366 7.16344 32 16 32Z"
        fill="#FF6C52" />
    <path
        d="M16.9979 31.9693C25.3691 31.4536 31.9989 24.5011 31.9989 16C31.9989 14.1084 31.6707 12.2936 31.068 10.6093L25.2713 4.8125L19.0919 15.6242L10.4298 6.96212L11.3801 16.3531L6.72656 18.0764L14.5287 25.8786L12.6065 27.5779L16.9979 31.9693Z"
        fill="#F92814" />
    <path
        d="M14.1331 13.2968C14.1331 13.2968 12.4557 6.48194 6.72656 4.8125C6.72656 4.8125 10.2986 11.0142 9.51244 15.3811L14.1331 13.2968Z"
        fill="#707789" />
    <path
        d="M17.8652 13.2968C17.8652 13.2968 19.5426 6.48194 25.2718 4.8125C25.2718 4.8125 21.6998 11.0142 22.4859 15.3811L17.8652 13.2968Z"
        fill="#555A66" />
    <path
        d="M10.0232 14.3408H4.24609C4.24609 14.3408 5.13272 18.8848 9.61478 18.8848L10.0232 14.3408Z"
        fill="#AFB4C8" />
    <path
        d="M21.9766 14.3408H27.7537C27.7537 14.3408 26.8671 18.8848 22.385 18.8848L21.9766 14.3408Z"
        fill="#7E8596" />
    <path
        d="M16.0003 11.0088C11.529 11.0088 7.9043 12.9166 7.9043 17.1183C7.9043 21.0049 11.0078 27.9108 15.0119 28.9258C15.3365 29.0082 16.229 28.7186 16.229 28.7186V11.0105C16.153 11.0095 16.0769 11.0088 16.0003 11.0088Z"
        fill="white" />
    <path
        d="M24.096 17.1178C24.096 12.9184 20.4754 11.0105 16 11.0098V28.9904C16 28.9904 16.6642 29.0078 16.9883 28.9253C20.9962 27.9051 24.096 21.003 24.096 17.1178Z"
        fill="#E9EDF5" />
    <path
        d="M15.9995 23.2941L14.6966 21.9912L13.2988 23.389L15.0111 25.1013V28.9255C15.3351 29.0126 15.665 29.0588 15.9995 29.0588C16.3341 29.0588 16.664 29.0126 16.9879 28.9255V25.1013L18.7002 23.389L17.3025 21.9912L15.9995 23.2941Z"
        fill="#CDD2E1" />
    <path
        d="M17.3029 21.9912L16 23.2942L16.0076 29.0587C16.3396 29.058 16.6669 29.0121 16.9884 28.9255V25.1014L18.7007 23.389L17.3029 21.9912Z"
        fill="#AFB4C8" />
    <path
        d="M12.6009 19.1531C12.9482 18.8059 12.9482 18.2429 12.6009 17.8957C12.2537 17.5485 11.6908 17.5485 11.3435 17.8957C10.9963 18.2429 10.9963 18.8059 11.3435 19.1531C11.6908 19.5003 12.2537 19.5003 12.6009 19.1531Z"
        fill="#636978" />
    <path
        d="M20.892 18.7391C21.005 18.2613 20.7092 17.7823 20.2313 17.6694C19.7535 17.5564 19.2745 17.8522 19.1616 18.3301C19.0486 18.8079 19.3444 19.2869 19.8223 19.3998C20.3001 19.5128 20.7791 19.217 20.892 18.7391Z"
        fill="#414952" />
</svg>
