<svg fill="none" height="32" viewBox="0 0 32 32" width="32" xmlns="http://www.w3.org/2000/svg">
    <g clip-path="url(#clip0_6729_82105)">
        <path
            d="M16 32C24.8366 32 32 24.8366 32 16C32 7.16344 24.8366 0 16 0C7.16344 0 0 7.16344 0 16C0 24.8366 7.16344 32 16 32Z"
            fill="#FFCE00" />
        <path
            d="M31.9688 17.0177L19.285 4.33398L16.3756 15.1394L8.41514 18.6941L12.5087 22.7877L6.31445 23.6156L14.6618 31.9452C15.1031 31.9818 15.5497 32.0005 16.0006 32.0005C24.4955 32.0005 31.4441 25.3803 31.9688 17.0177Z"
            fill="#FFA300" />
        <path d="M13.6797 4.33398H18.3222V16.6326H13.6797V4.33398Z" fill="#1DD882" />
        <path d="M16.002 4.33398H18.3215V16.6326H16.002V4.33398Z" fill="#2CC47F" />
        <path
            d="M23.8199 24.3696H8.18189C6.69745 24.3696 5.49414 23.1663 5.49414 21.6819C5.49414 20.1975 6.69752 18.9941 8.18189 18.9941H23.8199C25.3043 18.9941 26.5076 20.1975 26.5076 21.6819C26.5076 23.1663 25.3043 24.3696 23.8199 24.3696Z"
            fill="#1DD882" />
        <path
            d="M23.8192 18.9941H16.002V24.3697H23.8192C25.3036 24.3697 26.507 23.1664 26.507 21.682C26.507 20.1975 25.3036 18.9941 23.8192 18.9941Z"
            fill="#2CC47F" />
        <path
            d="M22.0872 19.3242H9.91111C8.7553 19.3242 7.81836 18.3872 7.81836 17.2314C7.81836 16.0756 8.7553 15.1387 9.91111 15.1387H22.0872C23.2431 15.1387 24.18 16.0756 24.18 17.2314C24.18 18.3872 23.2431 19.3242 22.0872 19.3242Z"
            fill="#2CC47F" />
        <path
            d="M22.0883 15.1387H16.002V19.3242H22.0883C23.2441 19.3242 24.181 18.3873 24.181 17.2315C24.181 16.0756 23.2441 15.1387 22.0883 15.1387Z"
            fill="#06B26B" />
        <path d="M17.0378 13.7411L15.9994 12.8248L14.9609 13.7411V9.2207H17.0378V13.7411Z"
            fill="#FF6C52" />
        <path d="M17.0386 9.2207H16.002V12.8263L17.0386 13.7411V9.2207Z" fill="#FF432E" />
        <path
            d="M17.4962 10.524H14.5026C13.8578 10.524 13.301 10.0724 13.168 9.44151L12.3521 5.57207C12.1734 4.7242 12.8202 3.92676 13.6867 3.92676H18.312C19.1785 3.92676 19.8254 4.72426 19.6466 5.57207L18.8307 9.44151C18.6977 10.0724 18.141 10.524 17.4962 10.524Z"
            fill="#2CC47F" />
        <path
            d="M18.3129 3.92676H16.002V10.524H17.497C18.1418 10.524 18.6985 10.0725 18.8315 9.44151L19.6474 5.57207C19.8263 4.72426 19.1794 3.92676 18.3129 3.92676Z"
            fill="#06B26B" />
        <path
            d="M14.6384 7.51354C14.9969 7.36494 15.167 6.95386 15.0184 6.59537C14.8698 6.23688 14.4588 6.06672 14.1003 6.21532C13.7418 6.36391 13.5716 6.77499 13.7202 7.13349C13.8688 7.49198 14.2799 7.66213 14.6384 7.51354Z"
            fill="#555A66" />
        <path
            d="M17.906 7.51256C18.2645 7.36396 18.4346 6.95289 18.286 6.59439C18.1374 6.2359 17.7264 6.06575 17.3679 6.21434C17.0094 6.36294 16.8392 6.77401 16.9878 7.13251C17.1364 7.491 17.5475 7.66116 17.906 7.51256Z"
            fill="#333940" />
        <path
            d="M16 32C24.8366 32 32 24.8366 32 16C32 7.16344 24.8366 0 16 0C7.16344 0 0 7.16344 0 16C0 24.8366 7.16344 32 16 32Z"
            fill="#F6C863" />
        <path
            d="M32 16C32 14.9071 31.8905 13.8398 31.6816 12.8085L26 7.12695L6.5 21.5L15.4144 31.9895C15.6088 31.9965 15.8039 32 16 32C24.8366 32 32 24.8365 32 16Z"
            fill="#EAB542" />
        <path
            d="M25.1354 13.2226C25.1354 13.2226 27.0854 17.0539 26.2342 20.9719C25.7467 23.2126 23.6252 24.5578 21.4393 25.3595C17.9265 26.6451 14.0719 26.6451 10.5591 25.3595C8.37288 24.5575 6.25138 23.2123 5.7648 20.9716C4.91298 17.0536 6.86363 13.2223 6.86363 13.2223C6.0279 10.863 4.62357 6.22692 6.04771 5.24138C7.97947 3.90762 11.613 8.536 11.613 8.536C13.4578 7.3146 15.999 7.57027 15.999 7.57027C15.999 7.57027 18.539 7.3146 20.3857 8.536C20.3857 8.536 24.0192 3.90762 25.9495 5.24138C27.3755 6.22785 25.9702 10.8643 25.1354 13.2226Z"
            fill="#575B6D" />
        <path
            d="M21.9211 13.5171C21.9211 13.5171 21.9446 15.3477 20.9885 15.9005C20.0324 16.4533 18.459 15.517 18.459 15.517C18.459 15.517 18.4355 13.6864 19.3916 13.1336C20.3478 12.5808 21.9211 13.5171 21.9211 13.5171Z"
            fill="#EEEFEE" />
        <path
            d="M20.9283 14.5188C20.9138 14.7631 20.8388 15 20.71 15.2082C20.5813 15.4163 20.4029 15.5893 20.1907 15.7114C19.9786 15.5893 19.8002 15.4163 19.6714 15.2082C19.5427 15 19.4677 14.7631 19.4531 14.5188C19.4583 14.2722 19.5295 14.0316 19.6592 13.8218C19.7889 13.6121 19.9724 13.4409 20.1907 13.3262C20.4099 13.4398 20.5942 13.6107 20.7241 13.8207C20.8539 14.0307 20.9245 14.2719 20.9283 14.5188Z"
            fill="#414451" />
        <path
            d="M23.7438 11.8667C23.1724 10.6595 21.6427 9.98321 21.1632 9.79626C21.1461 9.78967 21.1308 9.77918 21.1185 9.76561C21.1061 9.75205 21.0972 9.7358 21.0922 9.71815C21.0873 9.7005 21.0866 9.68195 21.0901 9.66396C21.0936 9.64598 21.1012 9.62906 21.1125 9.61456C21.5371 9.05215 23.2965 6.81829 24.5767 6.64309C24.6193 6.63813 24.6625 6.64563 24.701 6.66469C24.7394 6.68376 24.7715 6.71356 24.7934 6.7505C25.0073 7.10027 25.4124 8.33745 23.9607 11.8577C23.9522 11.879 23.9376 11.8973 23.9189 11.9105C23.9002 11.9237 23.878 11.9313 23.8551 11.9322C23.8322 11.9332 23.8096 11.9275 23.7898 11.9159C23.77 11.9042 23.7541 11.8872 23.7438 11.8667Z"
            fill="#414451" />
        <path
            d="M10.0782 13.5171C10.0782 13.5171 10.0547 15.3477 11.0108 15.9005C11.9669 16.4533 13.5402 15.517 13.5402 15.517C13.5402 15.517 13.5638 13.6864 12.6076 13.1336C11.6515 12.5808 10.0782 13.5171 10.0782 13.5171Z"
            fill="#EEEFEE" />
        <path
            d="M11.0703 14.5188C11.0848 14.7631 11.1599 15 11.2886 15.2082C11.4174 15.4163 11.5958 15.5893 11.8079 15.7114C12.02 15.5893 12.1985 15.4163 12.3272 15.2082C12.456 15 12.531 14.7631 12.5455 14.5188C12.5403 14.2722 12.4692 14.0316 12.3395 13.8218C12.2097 13.6121 12.0262 13.4409 11.8079 13.3262C11.5887 13.4398 11.4044 13.6107 11.2746 13.8207C11.1447 14.0307 11.0741 14.2719 11.0703 14.5188Z"
            fill="#414451" />
        <path
            d="M8.25512 11.8667C8.82651 10.6595 10.3562 9.98321 10.8357 9.79626C10.8528 9.78967 10.8681 9.77918 10.8804 9.76561C10.8927 9.75205 10.9017 9.7358 10.9067 9.71815C10.9116 9.7005 10.9123 9.68195 10.9088 9.66396C10.9053 9.64598 10.8976 9.62906 10.8864 9.61456C10.4618 9.05215 8.70239 6.81829 7.42217 6.64309C7.37954 6.63813 7.33638 6.64563 7.29793 6.66469C7.25947 6.68376 7.22737 6.71356 7.2055 6.7505C6.99162 7.10027 6.58645 8.33745 8.03814 11.8577C8.04671 11.879 8.06123 11.8973 8.07996 11.9105C8.09869 11.9237 8.12083 11.9313 8.14373 11.9322C8.16663 11.9332 8.18932 11.9275 8.20908 11.9159C8.22883 11.9042 8.24482 11.8872 8.25512 11.8667Z"
            fill="#414451" />
        <path
            d="M26.235 20.9716C25.7478 23.2117 23.627 24.5575 21.4395 25.3598C17.9265 26.6442 14.0723 26.6442 10.5593 25.3598C8.37371 24.5575 6.25282 23.2117 5.76562 20.9716L8.53374 20.2526C9.77909 19.9293 10.9317 19.3196 11.8997 18.472C12.8677 17.6244 13.6243 16.5625 14.1093 15.3707L14.1297 15.3178C14.3629 14.7455 14.7318 14.2386 15.2047 13.8407C15.4275 13.6535 15.7092 13.5508 16.0002 13.5508C16.2912 13.5508 16.5729 13.6535 16.7957 13.8407C17.268 14.2387 17.6363 14.7456 17.8688 15.3178L17.8911 15.3707C18.3757 16.5627 19.1323 17.6248 20.1003 18.4725C21.0684 19.3202 22.2211 19.9298 23.4666 20.2529L26.235 20.9716Z"
            fill="#EEEFEE" />
        <path
            d="M28.9593 19.8762C28.9515 19.8762 28.9438 19.8738 28.9373 19.8694C25.5325 17.5789 20.3671 19.7372 20.3154 19.7592C20.3106 19.7617 20.3053 19.7631 20.2999 19.7635C20.2944 19.7638 20.289 19.763 20.2839 19.7612C20.2788 19.7593 20.2741 19.7564 20.2702 19.7527C20.2662 19.7489 20.2631 19.7444 20.261 19.7394C20.2588 19.7344 20.2578 19.729 20.2578 19.7236C20.2579 19.7182 20.259 19.7128 20.2612 19.7078C20.2634 19.7029 20.2666 19.6984 20.2706 19.6947C20.2746 19.6911 20.2793 19.6883 20.2845 19.6865C20.3368 19.6645 25.5393 17.4907 28.9822 19.8038C28.9891 19.8086 28.9943 19.8154 28.997 19.8233C28.9998 19.8313 28.9999 19.8398 28.9975 19.8478C28.995 19.8559 28.9901 19.8629 28.9834 19.8679C28.9767 19.873 28.9686 19.8758 28.9602 19.8759L28.9593 19.8762Z"
            fill="white" />
        <path
            d="M28.7903 22.0606C28.7843 22.0605 28.7783 22.0591 28.773 22.0563C28.7676 22.0536 28.7629 22.0497 28.7593 22.0448C26.2506 18.6995 20.9066 20.2824 20.853 20.2988C20.8433 20.301 20.8331 20.2994 20.8244 20.2944C20.8158 20.2894 20.8094 20.2813 20.8064 20.2718C20.8035 20.2622 20.8043 20.2519 20.8086 20.2429C20.813 20.234 20.8205 20.2269 20.8298 20.2233C20.884 20.2069 26.28 18.6072 28.8228 21.9975C28.8268 22.0033 28.8291 22.0101 28.8296 22.0171C28.8301 22.0242 28.8286 22.0312 28.8255 22.0375C28.8223 22.0438 28.8175 22.0492 28.8116 22.053C28.8057 22.0569 28.7989 22.0591 28.7918 22.0594L28.7903 22.0606Z"
            fill="white" />
        <path
            d="M28.0525 23.2556C28.0465 23.2555 28.0406 23.2541 28.0353 23.2514C28.0299 23.2487 28.0252 23.2449 28.0216 23.2401C25.5113 19.9492 20.1945 21.2533 20.141 21.2663C20.1308 21.2686 20.1202 21.2669 20.1113 21.2616C20.1024 21.2563 20.0958 21.2478 20.093 21.2378C20.0904 21.2276 20.092 21.2169 20.0973 21.2079C20.1027 21.1989 20.1113 21.1924 20.1215 21.1898C20.1756 21.1765 25.5422 19.8588 28.0841 23.1915C28.0881 23.1973 28.0904 23.2041 28.0909 23.2112C28.0914 23.2182 28.0899 23.2253 28.0868 23.2316C28.0836 23.2379 28.0789 23.2432 28.0729 23.2471C28.067 23.2509 28.0602 23.2531 28.0531 23.2534L28.0525 23.2556Z"
            fill="white" />
        <path
            d="M3.03895 19.8769C3.03057 19.8768 3.02246 19.874 3.01577 19.8689C3.00908 19.8639 3.00416 19.8568 3.00172 19.8488C2.99928 19.8408 2.99944 19.8322 3.00218 19.8243C3.00492 19.8164 3.0101 19.8096 3.01697 19.8048C6.45893 17.4916 11.6621 19.6655 11.7147 19.6875C11.7195 19.6895 11.7239 19.6924 11.7275 19.6962C11.7312 19.6999 11.7341 19.7043 11.736 19.7091C11.738 19.7139 11.739 19.7191 11.7389 19.7243C11.7389 19.7295 11.7378 19.7347 11.7358 19.7395C11.7314 19.7489 11.7236 19.7564 11.714 19.7603C11.7043 19.7642 11.6935 19.7643 11.6838 19.7605C11.6318 19.7385 6.46759 17.5814 3.06185 19.8704C3.05508 19.8749 3.04707 19.8772 3.03895 19.8769Z"
            fill="white" />
        <path
            d="M3.20972 22.0604C3.20267 22.0601 3.19583 22.0579 3.18991 22.0541C3.184 22.0502 3.17921 22.0449 3.17606 22.0386C3.1729 22.0323 3.17149 22.0252 3.17197 22.0182C3.17244 22.0111 3.17479 22.0044 3.17876 21.9985C5.72061 18.6073 11.1169 20.2067 11.1714 20.2228C11.1767 20.224 11.1817 20.2262 11.1861 20.2295C11.1905 20.2327 11.1942 20.2368 11.1969 20.2415C11.1997 20.2463 11.2014 20.2515 11.202 20.2569C11.2026 20.2623 11.2021 20.2678 11.2005 20.273C11.1989 20.2783 11.1963 20.2831 11.1927 20.2872C11.1892 20.2914 11.1848 20.2947 11.1799 20.2971C11.175 20.2995 11.1696 20.3008 11.1642 20.301C11.1587 20.3012 11.1533 20.3003 11.1482 20.2983C11.0946 20.2819 5.75094 18.6992 3.24191 22.0443C3.23821 22.0494 3.23336 22.0535 3.22776 22.0563C3.22216 22.0591 3.21598 22.0605 3.20972 22.0604Z"
            fill="white" />
        <path
            d="M3.948 23.2553C3.94095 23.255 3.93411 23.2528 3.9282 23.2489C3.92228 23.2451 3.91749 23.2397 3.91434 23.2334C3.91118 23.2271 3.90977 23.2201 3.91025 23.213C3.91072 23.206 3.91307 23.1992 3.91705 23.1934C6.4592 19.861 11.8258 21.1783 11.8797 21.1917C11.889 21.195 11.8967 21.2016 11.9013 21.2104C11.906 21.2191 11.9072 21.2292 11.9048 21.2388C11.9023 21.2483 11.8964 21.2567 11.8881 21.2621C11.8799 21.2675 11.8699 21.2697 11.8602 21.2681C11.8066 21.2548 6.48985 19.9508 3.97988 23.2414C3.97598 23.246 3.97107 23.2496 3.96555 23.252C3.96002 23.2544 3.95402 23.2555 3.948 23.2553Z"
            fill="white" />
        <path
            d="M15.8679 18.2314V19.5525C15.8679 19.5525 13.144 21.0571 13.5034 21.3914C13.8627 21.7257 15.9988 19.7973 15.9988 19.7973C15.9988 19.8868 18.1364 21.7257 18.4945 21.3914C18.8526 21.0571 16.13 19.5525 16.13 19.5525V18.2314H15.8679Z"
            fill="#414451" />
        <path
            d="M17.3781 17.8465C17.2119 18.1855 16.7798 18.5235 15.9995 18.512C15.2201 18.5235 14.788 18.1852 14.6217 17.8465C14.5877 17.7754 14.5723 17.6969 14.577 17.6182C14.5817 17.5395 14.6064 17.4633 14.6487 17.3968C14.691 17.3303 14.7495 17.2756 14.8188 17.238C14.888 17.2003 14.9657 17.181 15.0446 17.1817H16.9553C17.0341 17.181 17.1118 17.2003 17.1811 17.238C17.2503 17.2756 17.3089 17.3303 17.3512 17.3968C17.3935 17.4633 17.4181 17.5395 17.4228 17.6182C17.4276 17.6969 17.4122 17.7754 17.3781 17.8465Z"
            fill="#EF5261" />
    </g>
    <defs>
        <clipPath id="clip0_6729_82105">
            <rect fill="white" height="32" width="32" />
        </clipPath>
    </defs>
</svg>
