<svg fill="none" height="32" viewBox="0 0 32 32" width="32" xmlns="http://www.w3.org/2000/svg">
    <g clip-path="url(#clip0_6729_82382)">
        <path
            d="M16 32C24.8366 32 32 24.8366 32 16C32 7.16344 24.8366 0 16 0C7.16344 0 0 7.16344 0 16C0 24.8366 7.16344 32 16 32Z"
            fill="#C38778" />
        <path
            d="M32.0011 15.9996C32.0011 13.4564 31.4077 11.0519 30.3519 8.9168L27.524 6.08887L7 11.9681L16.8219 21.7901L11.0226 27.3869L11.1151 27.4858L15.6311 31.9954C15.7541 31.9982 15.8774 31.9996 16.0011 31.9996C24.8376 31.9996 32.0011 24.8361 32.0011 15.9996Z"
            fill="#A65D4E" />
        <path
            d="M25.0018 11.9681C23.8976 12.9602 22.1982 12.8694 21.2061 11.7652C20.214 10.661 20.3048 8.96162 21.409 7.96949C22.5132 6.97737 27.5236 6.08887 27.5236 6.08887C27.5236 6.08887 26.106 10.976 25.0018 11.9681Z"
            fill="#AFB4C8" />
        <path
            d="M23.7847 10.4187C23.5633 11.1543 23.6722 11.9107 24.0259 12.5287C24.3765 12.4165 24.7096 12.2301 25.0011 11.9681C26.0796 10.9992 27.4593 6.30699 27.523 6.08887C26.4676 7.06018 24.1149 9.32162 23.7847 10.4187Z"
            fill="#CDD2E1" />
        <path
            d="M6.99844 11.9681C8.10262 12.9602 9.802 12.8694 10.7941 11.7652C11.7863 10.661 11.6954 8.96162 10.5912 7.96949C9.487 6.97737 4.47656 6.08887 4.47656 6.08887C4.47656 6.08887 5.89425 10.976 6.99844 11.9681Z"
            fill="#CDD2E1" />
        <path
            d="M8.21493 10.4187C8.43637 11.1543 8.32743 11.9107 7.97375 12.5287C7.62312 12.4165 7.29006 12.2301 6.9985 11.9681C5.92006 10.9992 4.54031 6.30699 4.47656 6.08887C5.53206 7.06018 7.88475 9.32162 8.21493 10.4187Z"
            fill="#E9EDF5" />
        <path
            d="M13.1016 6.86719C9.62608 6.86719 7.03683 10.0739 7.76908 13.4715L10.506 26.1703H16.3788V6.86719H13.1016Z"
            fill="white" />
        <path
            d="M18.8992 6.86719H16.0078V26.1703H21.4948L24.2317 13.4715C24.964 10.074 22.3747 6.86719 18.8992 6.86719Z"
            fill="#E9EDF5" />
        <path
            d="M18.7916 28.3656H13.2087C11.5876 28.3656 10.2734 27.0515 10.2734 25.4304C10.2734 23.8092 11.5876 22.4951 13.2087 22.4951H18.7916C20.4127 22.4951 21.7268 23.8093 21.7268 25.4304C21.7268 27.0514 20.4127 28.3656 18.7916 28.3656Z"
            fill="#CDD2E1" />
        <path
            d="M18.7917 22.4951H16.0078V28.3656H18.7917C20.4129 28.3656 21.727 27.0515 21.727 25.4304C21.727 23.8092 20.4129 22.4951 18.7917 22.4951Z"
            fill="#AFB4C8" />
        <path
            d="M11.6871 17.3284C12.2133 17.3284 12.6399 16.9018 12.6399 16.3756C12.6399 15.8494 12.2133 15.4229 11.6871 15.4229C11.1609 15.4229 10.7344 15.8494 10.7344 16.3756C10.7344 16.9018 11.1609 17.3284 11.6871 17.3284Z"
            fill="#636978" />
        <path
            d="M20.3121 17.3284C20.8383 17.3284 21.2649 16.9018 21.2649 16.3756C21.2649 15.8494 20.8383 15.4229 20.3121 15.4229C19.7859 15.4229 19.3594 15.8494 19.3594 16.3756C19.3594 16.9018 19.7859 17.3284 20.3121 17.3284Z"
            fill="#414952" />
        <path
            d="M13.1381 26.3124C13.6254 26.3124 14.0204 25.9174 14.0204 25.4301C14.0204 24.9428 13.6254 24.5479 13.1381 24.5479C12.6509 24.5479 12.2559 24.9428 12.2559 25.4301C12.2559 25.9174 12.6509 26.3124 13.1381 26.3124Z"
            fill="#636978" />
        <path
            d="M18.8627 26.3124C19.35 26.3124 19.745 25.9174 19.745 25.4301C19.745 24.9428 19.35 24.5479 18.8627 24.5479C18.3755 24.5479 17.9805 24.9428 17.9805 25.4301C17.9805 25.9174 18.3755 26.3124 18.8627 26.3124Z"
            fill="#414952" />
        <path
            d="M14.6412 1.50977L20.3558 7.06314L13.9946 10.9706L13.3157 9.22608C12.5806 7.33695 12.6981 5.22227 13.6381 3.42627L14.6412 1.50977Z"
            fill="#FFCE00" />
        <path d="M16.0078 2.83789V9.73345L20.3555 7.06289L16.0078 2.83789Z" fill="#FDBA12" />
    </g>
    <defs>
        <clipPath id="clip0_6729_82382">
            <rect fill="white" height="32" width="32" />
        </clipPath>
    </defs>
</svg>
