<svg width="24" height="24" viewBox="0 0 24 24" fill="none" xmlns="http://www.w3.org/2000/svg">
<path d="M2.67568 5.36258C3.3018 4.69241 4.32778 3.66797 5.17214 2.83536C5.95381 2.06455 7.21006 2.07963 7.98062 2.86155L9.93802 4.8478C10.5184 5.43677 10.496 6.37211 9.96577 7.0066C8.35895 8.9293 8.65646 10.1295 11.2684 12.7415C13.8827 15.3558 15.0467 15.6154 16.9694 14.0006C17.6005 13.4705 18.5328 13.4512 19.1198 14.0297L21.1387 16.0195C21.9211 16.7906 21.9356 18.0479 21.1639 18.8297C20.3331 19.6715 19.3114 20.6945 18.6389 21.3258C14.5753 25.1407 -1.12983 9.43584 2.67568 5.36258Z" stroke="#121219" stroke-width="1.5"/>
</svg>
