<svg xmlns="http://www.w3.org/2000/svg" version="1.1" xmlns:xlink="http://www.w3.org/1999/xlink" xmlns:svgjs="http://svgjs.com/svgjs" width="512" height="512" x="0" y="0" viewBox="0 0 512 512" style="enable-background:new 0 0 512 512" xml:space="preserve" class=""><rect width="512" height="512" rx="20" ry="20" fill="#61b000" shape="rounded"></rect><g transform="matrix(0.7,0,0,0.7,76.80000000000001,76.79999542236328)"><g><path d="m512 256c0 141.38-114.62 256-256 256-70.82 0-134.92-28.76-181.27-75.23l-.03-.71c-.18-4.09-3.54-7.31-7.63-7.31-41.65-45.53-67.07-106.18-67.07-172.75 0-45.09 11.66-87.46 32.13-124.26 43.71-78.57 127.58-131.74 223.87-131.74 95.65 0 179.04 52.46 222.98 130.17.07.12.14.25.22.37 20.88 37.08 32.8 79.88 32.8 125.46z" fill="#4c1760" data-original="#4c1760"></path><g><g><g><path d="m512 256c0 141.38-114.62 256-256 256-70.82 0-134.92-28.76-181.27-75.23l-.03-.71c-.18-4.09-3.54-7.31-7.63-7.31-41.65-45.53-67.07-106.18-67.07-172.75 0-45.09 11.66-87.46 32.13-124.26.25-.42.49-.84.73-1.26.23-.39.46-.78.69-1.18.05-.1.1-.21.15-.26 25.39 44.39 63.69 80.43 109.82 103.01 5.22 2.56 10.6 4.97 16.02 7.17 29.03 11.83 60.72 18.48 93.9 18.79h5.12c33.18-.31 64.87-6.96 93.9-18.79 5.42-2.2 10.8-4.61 16.02-7.17 46.08-22.58 84.43-58.62 109.82-103.01.05.05.1.16.15.26.15.24.29.49.44.74.02.04.05.09.09.13.07.12.14.25.22.37 20.88 37.08 32.8 79.88 32.8 125.46z" fill="#3a004d" data-original="#3a004d"></path></g></g><g><g><path d="m227.93 61.716h-1.665c-7.375 0-13.354-5.979-13.354-13.354v-1.665h-9.52v1.665c0 7.376-5.979 13.354-13.354 13.354h-1.666v9.519h1.666c7.375 0 13.354 5.979 13.354 13.354v1.665h9.52v-1.664c0-7.375 5.979-13.354 13.354-13.354h1.665z" fill="#ffffff" data-original="#ffffff"></path></g></g><g><g><path d="m100.311 274.752h-1.665c-7.375 0-13.354-5.979-13.354-13.354v-1.665h-9.52v1.665c0 7.375-5.979 13.354-13.354 13.354h-1.665v9.519h1.665c7.375 0 13.354 5.979 13.354 13.354v1.665h9.52v-1.665c0-7.375 5.979-13.354 13.354-13.354h1.665z" fill="#ffffff" data-original="#ffffff"></path></g></g><g><g><path d="m309.351 448.049h-1.665c-7.375 0-13.354-5.979-13.354-13.354v-1.665h-9.52v1.665c0 7.375-5.979 13.354-13.354 13.354h-1.665v9.519h1.665c7.375 0 13.354 5.979 13.354 13.354v1.665h9.52v-1.665c0-7.376 5.979-13.354 13.354-13.354h1.665z" fill="#ffffff" data-original="#ffffff"></path></g></g><g><g><path d="m86.124 421.867-8.343-8.626 140.548-135.93 69.95-160.951 182.82 65.288-42.086 179.184-204.167-73.13zm145.291-144.559 188.99 67.694 36.56-155.659-162.152-57.908z" fill="#00b3ff" data-original="#00b3ff"></path></g><path d="m82.614 432.572-.655.778c-.717 0-1.423.174-2.068.512l-5.284 2.775c-2.519-2.519-4.976-5.099-7.383-7.721l.645-3.778c.246-1.454-.235-2.918-1.28-3.942l-5.55-5.417c-2.652-2.58-1.198-7.065 2.458-7.587l7.68-1.116c1.444-.215 2.703-1.126 3.358-2.437l3.42-6.963c.829-1.659 2.417-2.478 4.004-2.478l3.256 5.499c6.001 10.096 4.956 22.885-2.601 31.875z" fill="#ffe706" data-original="#ffe706"></path><path d="m97.324 421.191c-1.059 1.024-1.529 2.495-1.282 3.942l1.306 7.648c.624 3.636-3.189 6.413-6.46 4.695l-6.86-3.612c-.647-.341-1.353-.518-2.071-.518v-38.148c1.6 0 3.165.823 3.989 2.483l3.436 6.955c.647 1.317 1.894 2.223 3.354 2.435l7.672 1.118c3.648.53 5.107 5.013 2.471 7.59z" fill="#ffbf03" data-original="#ffbf03"></path></g><path d="m158.02 171.757c0 6.145-4.981 11.127-11.127 11.127-6.145 0-11.127-4.982-11.127-11.127s4.982-11.127 11.127-11.127c6.146 0 11.127 4.982 11.127 11.127z" fill="#ffbf03" data-original="#ffbf03"></path><path d="m223.361 417.554c0 6.145-4.982 11.127-11.127 11.127s-11.127-4.982-11.127-11.127 4.982-11.127 11.127-11.127 11.127 4.982 11.127 11.127z" fill="#e682fa" data-original="#e682fa"></path><ellipse cx="397.418" cy="92.376" fill="#fd4b4a" rx="16.133" ry="16.133" transform="matrix(.23 -.973 .973 .23 216.205 457.94)" data-original="#fd4b4a"></ellipse></g><g><path d="m293.38 148.191-1.829 2.58-26.525 13.949 5.062-29.537-21.455-20.916 29.651-4.311 13.266-26.874 7.999 24.361c4.524 13.791 2.24 28.916-6.169 40.748z" fill="#ffe706" data-original="#ffe706"></path><path d="m313.013 135.183 5.063 29.537-26.525-13.949v-67.688l13.266 26.873 29.651 4.311z" fill="#ffbf03" data-original="#ffbf03"></path></g><g><path d="m461.704 200.12-1.361 1.92-19.738 10.38 3.767-21.981-15.966-15.565 22.065-3.208 9.872-19.998 5.953 18.129c3.365 10.262 1.665 21.518-4.592 30.323z" fill="#ffe706" data-original="#ffe706"></path><path d="m476.314 190.439 3.767 21.981-19.738-10.38v-50.371l9.872 19.998 22.065 3.208z" fill="#ffbf03" data-original="#ffbf03"></path></g><g><path d="m426.758 364.105-1.183 1.669-17.156 9.022 3.274-19.104-13.877-13.528 19.178-2.788 8.58-17.381 5.174 15.757c2.926 8.918 1.449 18.701-3.99 26.353z" fill="#ffe706" data-original="#ffe706"></path><path d="m439.457 355.692 3.274 19.104-17.156-9.022v-43.779l8.58 17.381 19.178 2.788z" fill="#ffbf03" data-original="#ffbf03"></path></g><g><path d="m226.425 295.221-1.183 1.669-17.155 9.022 3.274-19.104-13.877-13.528 19.178-2.788 8.58-17.381 5.174 15.756c2.925 8.919 1.448 18.702-3.991 26.354z" fill="#ffe706" data-original="#ffe706"></path><path d="m239.123 286.808 3.274 19.104-17.155-9.022v-43.779l8.58 17.381 19.178 2.788z" fill="#ffbf03" data-original="#ffbf03"></path></g><g><path d="m83.14 431.31-1.18 1.66-7.23 3.8c-2.61-2.62-5.16-5.29-7.66-8.02l1.01-5.86-13.88-13.53 19.18-2.78 8.58-17.38 5.17 15.75c2.93 8.92 1.45 18.7-3.99 26.36z" fill="#ffe706" data-original="#ffe706"></path><path d="m95.838 422.892 3.274 19.105-17.155-9.022v-43.78l8.58 17.381 19.178 2.789z" fill="#ffbf03" data-original="#ffbf03"></path></g></g></g></svg>