<svg width="24" height="24" viewBox="0 0 24 24" fill="none" xmlns="http://www.w3.org/2000/svg">
<path d="M7 2.75H4.75C3.64543 2.75 2.75 3.64543 2.75 4.75V7M17 2.75H19.25C20.3546 2.75 21.25 3.64543 21.25 4.75V7M2.75 16.7514V19.25C2.75 20.3546 3.64543 21.25 4.75 21.25H7M21.25 16.7381V19.25C21.25 20.3546 20.3546 21.25 19.25 21.25H17" stroke="#121219" stroke-width="2" stroke-linecap="round"/>
<path d="M14 17H10C9.44772 17 9 16.5523 9 16V8C9 7.44772 9.44772 7 10 7H14C14.5523 7 15 7.44772 15 8V16C15 16.5523 14.5523 17 14 17Z" stroke="#121219" stroke-width="2"/>
<path d="M21 12L3 12" stroke="#121219" stroke-width="2" stroke-linecap="round" stroke-linejoin="round"/>
</svg>
