<svg xmlns="http://www.w3.org/2000/svg" version="1.1" xmlns:xlink="http://www.w3.org/1999/xlink" xmlns:svgjs="http://svgjs.com/svgjs" width="512" height="512" x="0" y="0" viewBox="0 0 32 32" style="enable-background:new 0 0 512 512" xml:space="preserve" class=""><g><g id="outline"><g><path d="m30 5c0-1.657-1.343-3-3-3h-22c-1.657 0-3 1.343-3 3v22c0 1.657 1.343 3 3 3h22c1.657 0 3-1.343 3-3z" fill="#5f1a97" data-original="#5f1a97"></path><path d="m15.966 30v-17.486c0-2.591-2.101-4.692-4.693-4.692s-4.693 2.101-4.693 4.692v17.486" fill="#2f69f1" data-original="#2f69f1"></path><path d="m20.205 18.049c0-1.771-1.435-3.206-3.206-3.206-.001 0-.002 0-.003 0-1.77 0-3.205 1.435-3.205 3.206v11.951h6.414z" fill="#a2beff" data-original="#a2beff"></path><circle cx="24.002" cy="9.194" fill="#ffed35" r="1.896" data-original="#ffed35"></circle></g></g></g></svg>