<svg xmlns="http://www.w3.org/2000/svg" version="1.1" xmlns:xlink="http://www.w3.org/1999/xlink" xmlns:svgjs="http://svgjs.com/svgjs" width="512" height="512" x="0" y="0" viewBox="0 0 511.911 511.911" style="enable-background:new 0 0 512 512" xml:space="preserve" class=""><circle r="255.9555" cx="255.9555" cy="255.9555" fill="#d99949" shape="circle"></circle><g transform="matrix(0.7,0,0,0.7,76.78667335510266,61.78663158416762)">
<path style="" d="M19.911,492L19.911,492c0,0-44.8-117.333,0-162.133l90.667-90.667l162.133,162.133L182.044,492
	C137.244,536.8,19.911,492,19.911,492z" fill="#e8eae9" data-original="#e8eae9" class=""></path>
    <rect x="167.06" y="223.954" transform="matrix(-0.7071 0.7071 -0.7071 -0.7071 625.6882 237.8065)" style="" width="193.065" height="49.066" fill="#ffd15c" data-original="#ffd15c" class=""></rect>
    <path style="" d="M196.978,280.8l-29.867,29.867c-25.6,25.6-45.867,56.533-58.667,92.8
	c36.267-12.8,67.2-33.067,92.8-58.667l29.867-29.867L196.978,280.8z" fill="#ced6e0" data-original="#ced6e0" class=""></path>
    <path style="" d="M506.311,125.067c7.467-7.467,7.467-18.133,0-25.6c-6.4-6.4-16-7.467-22.4-2.133L414.578,28
	c4.267-7.467,4.267-17.067-2.133-22.4c-7.467-7.467-18.133-7.467-25.6,0c-37.333,37.333-53.333,84.267-43.733,119.467
	l-34.133,33.067l44.8,44.8l34.133-34.133C422.044,178.4,468.978,162.4,506.311,125.067z M384.711,127.2
	c-11.733-11.733-10.667-36.267,3.2-62.933L447.644,124C420.978,137.867,395.378,138.933,384.711,127.2z" fill="#f3705a" data-original="#f3705a" class=""></path>
    <g>
</g>
    <g>
</g>
    <g>
</g>
    <g>
</g>
    <g>
</g>
    <g>
</g>
    <g>
</g>
    <g>
</g>
    <g>
</g>
    <g>
</g>
    <g>
</g>
    <g>
</g>
    <g>
</g>
    <g>
</g>
    <g>
</g>
</g></svg>