<svg fill="none" height="32" viewBox="0 0 32 32" width="32" xmlns="http://www.w3.org/2000/svg">
    <g clip-path="url(#clip0_6729_82423)">
        <path
            d="M16 32C24.8366 32 32 24.8366 32 16C32 7.16344 24.8366 0 16 0C7.16344 0 0 7.16344 0 16C0 24.8366 7.16344 32 16 32Z"
            fill="#1DD882" />
        <path
            d="M32.0004 15.9998C32.0004 14.9117 31.8918 13.849 31.6849 12.8219L21.8785 3.01562L21.9617 3.28312L23.3661 16.2594L10.1223 3.01562L10.0114 3.2895L9.19123 13.7826L2.37891 13.4135L14.0078 25.0424L10.1652 27.1873L14.9434 31.9654C15.2928 31.9882 15.6452 31.9998 16.0004 31.9998C24.837 31.9998 32.0004 24.8363 32.0004 15.9998Z"
            fill="#1FB563" />
        <path
            d="M21.8791 3.01562C21.8791 3.01562 22.4808 6.36494 18.9258 8.46663L22.2859 10.4327C22.2858 10.4327 24.8621 7.32725 21.8791 3.01562Z"
            fill="#414952" />
        <path
            d="M23.3728 14.7823C21.9235 14.4613 21.0088 13.0262 21.3298 11.5769C21.6508 10.1276 23.0859 9.2129 24.5352 9.5339C25.9845 9.8549 29.622 13.4133 29.622 13.4133C29.622 13.4133 24.8221 15.1033 23.3728 14.7823Z"
            fill="#AFB4C8" />
        <path
            d="M10.1218 3.01562C10.1218 3.01562 9.52001 6.36494 13.0751 8.46663L9.71495 10.4327C9.71501 10.4327 7.13876 7.32725 10.1218 3.01562Z"
            fill="#636978" />
        <path
            d="M8.62809 14.7823C10.0774 14.4613 10.9921 13.0262 10.6711 11.5769C10.3501 10.1276 8.91503 9.2129 7.46572 9.5339C6.01641 9.8549 2.37891 13.4133 2.37891 13.4133C2.37891 13.4133 7.17878 15.1033 8.62809 14.7823Z"
            fill="#CDD2E1" />
        <path
            d="M13.1016 8.27344C9.62608 8.27344 7.03683 11.4802 7.76908 14.8777L9.69458 23.8115H16.218V8.27344H13.1016Z"
            fill="white" />
        <path
            d="M18.8991 8.27344H16.0078V23.8115H22.3062L24.2317 14.8777C24.964 11.4802 22.3747 8.27344 18.8991 8.27344Z"
            fill="#E9EDF5" />
        <path
            d="M19.511 28.0114H12.4901C10.4515 28.0114 8.79883 26.3588 8.79883 24.3202C8.79883 22.2815 10.4515 20.6289 12.4901 20.6289H19.5109C21.5495 20.6289 23.2022 22.2815 23.2022 24.3202C23.2022 26.3588 21.5495 28.0114 19.511 28.0114Z"
            fill="#FFCE00" />
        <path
            d="M19.5107 20.6289H16.0078V28.0114H19.5107C21.5493 28.0114 23.2019 26.3588 23.2019 24.3202C23.2019 22.2815 21.5492 20.6289 19.5107 20.6289Z"
            fill="#FDBA12" />
        <path
            d="M11.6871 17.3284C12.2133 17.3284 12.6399 16.9018 12.6399 16.3756C12.6399 15.8494 12.2133 15.4229 11.6871 15.4229C11.1609 15.4229 10.7344 15.8494 10.7344 16.3756C10.7344 16.9018 11.1609 17.3284 11.6871 17.3284Z"
            fill="#636978" />
        <path
            d="M20.3121 17.3284C20.8383 17.3284 21.2649 16.9018 21.2649 16.3756C21.2649 15.8494 20.8383 15.4229 20.3121 15.4229C19.7859 15.4229 19.3594 15.8494 19.3594 16.3756C19.3594 16.9018 19.7859 17.3284 20.3121 17.3284Z"
            fill="#414952" />
        <path
            d="M11.9748 25.561C12.6599 25.561 13.2153 25.0056 13.2153 24.3205C13.2153 23.6354 12.6599 23.0801 11.9748 23.0801C11.2897 23.0801 10.7344 23.6354 10.7344 24.3205C10.7344 25.0056 11.2897 25.561 11.9748 25.561Z"
            fill="#636978" />
        <path
            d="M20.0236 25.561C20.7087 25.561 21.2641 25.0056 21.2641 24.3205C21.2641 23.6354 20.7087 23.0801 20.0236 23.0801C19.3386 23.0801 18.7832 23.6354 18.7832 24.3205C18.7832 25.0056 19.3386 25.561 20.0236 25.561Z"
            fill="#414952" />
    </g>
    <defs>
        <clipPath id="clip0_6729_82423">
            <rect fill="white" height="32" width="32" />
        </clipPath>
    </defs>
</svg>
