<svg xmlns="http://www.w3.org/2000/svg" version="1.1" xmlns:xlink="http://www.w3.org/1999/xlink" xmlns:svgjs="http://svgjs.com/svgjs" width="512" height="512" x="0" y="0" viewBox="0 0 461.618 461.618" style="enable-background:new 0 0 512 512" xml:space="preserve" class=""><rect width="461.618" height="461.618" rx="20" ry="20" fill="#ecfd09" shape="rounded"></rect><g transform="matrix(0.7,0,0,0.7,69.24258270263672,69.24265594482424)">
<g>
	<g>
		<path d="M179.984,275.38c-16.649-15.205-42.255-14.832-58.453,0.853c-7.804,7.982-12.17,18.704-12.16,29.867
			c0.21,10.867,4.559,21.244,12.16,29.013c7.868,7.662,18.459,11.883,29.44,11.733c10.847,0.107,21.29-4.116,29.013-11.733
			C196.246,318.523,196.246,291.971,179.984,275.38z" fill="#000000" data-original="#000000" class=""></path>
	</g>
</g>
    <g>
	<g>
		<path d="M390.544,65.887c-0.493,0.092-1,0.092-1.493,0l-5.76-6.187C289.683-25.446,144.774-18.586,59.628,75.022
			c-81.927,90.068-79.1,228.483,6.436,315.132l1.92,1.92l5.547,5.973c91.723,87.541,237.046,84.15,324.587-7.573
			S482.267,153.428,390.544,65.887z M276.411,121.78c16.425-15.443,42.029-15.443,58.453,0c15.712,16.482,15.712,42.398,0,58.88
			c-15.884,16.436-42.085,16.883-58.521,0.999c-0.339-0.327-0.672-0.66-0.999-0.999c-7.794-7.64-12.178-18.099-12.16-29.013
			C263.457,140.331,268.215,129.587,276.411,121.78z M377.531,377.78c-81.745,81.421-213.936,81.421-295.68,0h-1.707
			c-38.943-39.188-38.943-102.465,0-141.653c39.283-38.711,102.37-38.711,141.653,0l6.613,6.613
			c49.901,42.441,124.759,36.394,167.2-13.507c17.505-20.582,27.459-46.524,28.214-73.533
			C452.833,232.435,434.783,319.027,377.531,377.78z" fill="#000000" data-original="#000000" class=""></path>
	</g>
</g>
    <g>
</g>
    <g>
</g>
    <g>
</g>
    <g>
</g>
    <g>
</g>
    <g>
</g>
    <g>
</g>
    <g>
</g>
    <g>
</g>
    <g>
</g>
    <g>
</g>
    <g>
</g>
    <g>
</g>
    <g>
</g>
    <g>
</g>
</g></svg>