<svg xmlns="http://www.w3.org/2000/svg" version="1.1" xmlns:xlink="http://www.w3.org/1999/xlink" xmlns:svgjs="http://svgjs.com/svgjs" width="512" height="512" x="0" y="0" viewBox="0 0 512 512" style="enable-background:new 0 0 512 512" xml:space="preserve" class=""><rect width="512" height="512" rx="20" ry="20" fill="#0bd08e" shape="rounded"></rect><g transform="matrix(0.7,0,0,0.7,76.78950376510622,76.80150089263918)"><circle cx="256.05" cy="256.01" fill="#fbc85c" r="83.44" data-original="#fbc85c" class=""></circle><path d="m255.5 114.18-22.38 38.78h44.77z" fill="#ff7259" data-original="#ff7259" class=""></path><path d="m255.5 397.84-22.38-38.77h44.77z" fill="#ff7259" data-original="#ff7259" class=""></path><path d="m397.33 256.01-38.77-22.38v44.77z" fill="#ff7259" data-original="#ff7259" class=""></path><path d="m113.67 256.01 38.78-22.38v44.77z" fill="#ff7259" data-original="#ff7259" class=""></path><g fill="#fbc85c"><path d="m354.73 154.67-43.13 12.04 32 31.32z" fill="#fbc85c" data-original="#fbc85c" class=""></path><path d="m156.28 357.36 11.13-43.37 31.99 31.32z" fill="#fbc85c" data-original="#fbc85c" class=""></path><path d="m356.57 355.52-11.92-43.16-31.41 31.91z" fill="#fbc85c" data-original="#fbc85c" class=""></path><path d="m154.44 156.51 43.33 11.25-31.41 31.9z" fill="#fbc85c" data-original="#fbc85c" class=""></path></g><path d="m285.47 177.93a83.44 83.44 0 1 0 0 156.17c-.64-.2-63-19.37-63-77.58s62.37-78.39 63-78.59z" fill="#5e6670" data-original="#5e6670" class=""></path><circle cx="41.5" cy="123.24" fill="#a78fe9" r="32.51" data-original="#a78fe9" class=""></circle><circle cx="316.73" cy="85.31" fill="#abf5ff" r="19.5" data-original="#abf5ff" class=""></circle><circle cx="324.31" cy="424.47" fill="#a78fe9" r="34.67" data-original="#a78fe9" class=""></circle><circle cx="471.13" cy="133.53" fill="#a78fe9" r="28.71" data-original="#a78fe9" class=""></circle><circle cx="61.54" cy="416.34" fill="#abf5ff" r="26.55" data-original="#abf5ff" class=""></circle><circle cx="471.68" cy="378.96" fill="#abf5ff" r="22.76" data-original="#abf5ff" class=""></circle><path d="m340.44 93.33a3 3 0 0 1 -1.34-.33c-1.43-.73-2.9-1.46-4.36-2.15a3 3 0 0 1 2.56-5.35c1.51.72 3 1.47 4.5 2.22a3 3 0 0 1 -1.35 5.61z" fill="#000000" data-original="#000000" class=""></path><path d="m377 400.1a3 3 0 0 1 -1.93-5.22c2.51-2.15 5-4.41 7.39-6.69a3 3 0 0 1 4.1 4.29c-2.47 2.36-5 4.69-7.62 6.91a3 3 0 0 1 -1.94.71zm21.36-21.57a3 3 0 0 1 -2.27-4.87c2.13-2.54 4.22-5.16 6.21-7.8a3 3 0 1 1 4.74 3.57c-2 2.73-4.21 5.43-6.41 8.05a3 3 0 0 1 -2.25 1.05zm17.64-24.75a3 3 0 0 1 -2.55-4.48c1.69-2.84 3.32-5.77 4.85-8.7a3 3 0 1 1 5.26 2.75c-1.58 3-3.27 6.05-5 9a3 3 0 0 1 -2.56 1.43zm13.32-27.28a3 3 0 0 1 -2.76-4c1.2-3.08 2.33-6.24 3.37-9.38a3 3 0 1 1 5.64 1.85c-1.07 3.25-2.23 6.51-3.48 9.69a3 3 0 0 1 -2.81 1.84zm8.67-29.1a3 3 0 0 1 -2.9-3.58c.68-3.24 1.28-6.54 1.78-9.81a3 3 0 0 1 5.86.9c-.52 3.38-1.14 6.78-1.84 10.13a3 3 0 0 1 -2.94 2.36zm3.79-30.12h-.13a3 3 0 0 1 -2.83-3.09c.12-2.7.18-5.44.18-8.17q0-.9 0-1.8a3 3 0 0 1 5.93-.05q0 .93 0 1.86c0 2.81-.06 5.65-.19 8.43a3 3 0 0 1 -3 2.82zm-1.12-30.34a3 3 0 0 1 -2.94-2.62c-.39-3.29-.87-6.61-1.44-9.86a3 3 0 1 1 5.84-1c.58 3.36 1.08 6.78 1.48 10.18a3 3 0 0 1 -2.6 3.29zm-6-29.74a3 3 0 0 1 -2.85-2.14c-.92-3.18-1.94-6.37-3-9.49a3 3 0 1 1 5.6-2c1.13 3.22 2.18 6.52 3.13 9.8a3 3 0 0 1 -2.85 3.79zm-10.8-28.35a3 3 0 0 1 -2.68-1.69c-1.43-3-3-6-4.55-8.87a3 3 0 0 1 5.2-2.85c1.64 3 3.22 6.08 4.69 9.16a3 3 0 0 1 -2.67 4.25zm-15.3-26.22a3 3 0 0 1 -2.43-1.27c-1.9-2.72-3.89-5.41-5.93-8a3 3 0 0 1 4.67-3.66c2.1 2.68 4.16 5.47 6.12 8.27a3 3 0 0 1 -2.43 4.66zm-19.36-23.39a3 3 0 0 1 -2.12-.9c-2.31-2.37-4.72-4.71-7.15-6.95a3 3 0 0 1 4-4.36c2.51 2.31 5 4.73 7.38 7.17a3 3 0 0 1 -2.12 5zm-22.94-19.94a3 3 0 0 1 -1.76-.58c-2.67-2-5.42-3.88-8.18-5.7a3 3 0 1 1 3.26-5c2.85 1.87 5.69 3.85 8.44 5.88a3 3 0 0 1 -1.76 5.35z" fill="#000000" data-original="#000000" class=""></path><path d="m356.77 415.22a3 3 0 0 1 -1.61-5.46c1.35-.88 2.72-1.78 4.05-2.69a3 3 0 0 1 3.35 4.9c-1.38.94-2.78 1.88-4.18 2.78a3 3 0 0 1 -1.61.47z" fill="#000000" data-original="#000000" class=""></path><path d="m287.65 442.18a3 3 0 0 1 -.5-5.89c1.59-.27 3.2-.57 4.78-.89a3 3 0 0 1 1.16 5.82c-1.63.33-3.29.63-4.94.92a2.94 2.94 0 0 1 -.5.04z" fill="#000000" data-original="#000000" class=""></path><path d="m257.57 444.85a3 3 0 0 1 0-5.93c3.31 0 6.64-.14 9.91-.34a3 3 0 1 1 .36 5.92c-3.38.21-6.82.33-10.23.35zm-20.11-.91h-.3c-3.38-.34-6.8-.77-10.15-1.29a3 3 0 1 1 .9-5.86c3.25.5 6.56.92 9.83 1.25a3 3 0 0 1 -.29 5.92zm-29.7-5.42a3 3 0 0 1 -.77-.1c-3.28-.88-6.58-1.86-9.81-2.92a3 3 0 0 1 1.85-5.64c3.13 1 6.33 2 9.5 2.83a3 3 0 0 1 -.77 5.83zm-28.43-10.19a3 3 0 0 1 -1.22-.27c-3.1-1.41-6.2-2.92-9.22-4.49a3 3 0 0 1 2.74-5.26c2.92 1.52 5.92 3 8.92 4.35a3 3 0 0 1 -1.23 5.67zm-26.4-14.69a3 3 0 0 1 -1.64-.5c-2.83-1.89-5.64-3.88-8.36-5.92a3 3 0 1 1 3.56-4.75c2.63 2 5.36 3.9 8.1 5.73a3 3 0 0 1 -1.65 5.43zm-23.67-18.76a3 3 0 0 1 -2-.8c-2.48-2.32-4.94-4.74-7.29-7.18a3 3 0 1 1 4.27-4.11c2.28 2.37 4.66 4.71 7.06 7a3 3 0 0 1 -2 5.13zm-20.34-22.32a3 3 0 0 1 -2.35-1.15c-2.07-2.68-4.1-5.46-6-8.26a3 3 0 0 1 4.88-3.37c1.87 2.71 3.84 5.4 5.85 8a3 3 0 0 1 -2.34 4.78zm-16.47-25.3a3 3 0 0 1 -2.61-1.56c-1.61-3-3.17-6.05-4.62-9.12a3 3 0 1 1 5.36-2.54c1.4 3 2.91 5.94 4.47 8.83a3 3 0 0 1 -2.61 4.38zm-12.16-27.62a3 3 0 0 1 -2.8-2c-1.11-3.21-2.14-6.49-3.07-9.76a3 3 0 1 1 5.7-1.63c.9 3.17 1.91 6.35 3 9.45a3 3 0 0 1 -2.8 3.93zm-7.48-29.25a3 3 0 0 1 -2.92-2.47c-.57-3.35-1.06-6.76-1.44-10.13a3 3 0 0 1 5.89-.68c.37 3.26.85 6.57 1.4 9.81a3 3 0 0 1 -2.93 3.46zm-2.64-30.07a3 3 0 0 1 -3-2.95v-1.37c0-3 .07-5.94.21-8.87a3 3 0 1 1 5.92.27c-.13 2.84-.2 5.74-.2 8.6v1.32a3 3 0 0 1 -2.95 3zm2.21-30.11a3 3 0 0 1 -.46 0 3 3 0 0 1 -2.48-3.39c.52-3.36 1.14-6.74 1.85-10.07a3 3 0 0 1 5.8 1.23c-.68 3.22-1.28 6.5-1.79 9.75a3 3 0 0 1 -2.91 2.48zm7.06-29.36a3 3 0 0 1 -2.82-3.89c1.07-3.24 2.23-6.48 3.47-9.65a3 3 0 0 1 5.53 2.16c-1.2 3.07-2.33 6.21-3.36 9.35a3 3 0 0 1 -2.82 2.02zm11.76-27.85a3 3 0 0 1 -2.63-4.34c1.58-3 3.26-6 5-9a3 3 0 0 1 5.1 3c-1.68 2.83-3.31 5.75-4.83 8.67a3 3 0 0 1 -2.64 1.67zm16.12-25.55a3 3 0 0 1 -2.37-4.75c2-2.72 4.18-5.41 6.37-8a3 3 0 0 1 4.54 3.81c-2.12 2.52-4.19 5.14-6.17 7.77a3 3 0 0 1 -2.36 1.18zm20-22.6a3 3 0 0 1 -2.05-5.11c2.45-2.35 5-4.67 7.57-6.88a3 3 0 0 1 3.87 4.49c-2.49 2.15-5 4.39-7.33 6.67a3 3 0 0 1 -2.02.83zm23.4-19.08a3 3 0 0 1 -1.69-5.41c2.79-1.92 5.68-3.8 8.58-5.57a3 3 0 1 1 3.09 5.06c-2.81 1.72-5.6 3.53-8.31 5.39a3 3 0 0 1 -1.63.54zm26.16-15a3 3 0 0 1 -1.27-5.65c3.07-1.45 6.22-2.83 9.36-4.1a3 3 0 0 1 2.23 5.5c-3 1.23-6.08 2.57-9.06 4a3 3 0 0 1 -1.21.22zm28.25-10.59a3 3 0 0 1 -.81-5.82c3.27-.93 6.6-1.78 9.92-2.53a3 3 0 0 1 1.31 5.79c-3.21.73-6.44 1.55-9.61 2.45a3 3 0 0 1 -.76.08zm29.67-5.88a3 3 0 0 1 -.33-5.91c3.37-.38 6.8-.68 10.19-.88a3 3 0 1 1 .35 5.92c-3.29.2-6.61.48-9.88.86zm40.2-.24h-.3c-3.27-.33-6.6-.58-9.89-.73a3 3 0 0 1 .28-5.92c3.4.16 6.83.42 10.21.76a3 3 0 0 1 -.3 5.92z" fill="#000000" data-original="#000000" class=""></path><path d="m300 78.32a3 3 0 0 1 -.7-.08c-1.56-.38-3.16-.74-4.74-1.08a3 3 0 1 1 1.24-5.8c1.63.35 3.28.73 4.89 1.12a3 3 0 0 1 -.7 5.85z" fill="#000000" data-original="#000000" class=""></path><path d="m59.73 99.29a3 3 0 0 1 -2.3-4.84q1.58-1.94 3.2-3.85a3 3 0 1 1 4.52 3.84q-1.58 1.86-3.15 3.76a3 3 0 0 1 -2.27 1.09z" fill="#000000" data-original="#000000" class=""></path><path d="m445.25 90.93a3 3 0 0 1 -2.22-1c-2.1-2.36-4.27-4.72-6.46-7a3 3 0 1 1 4.28-4.1c2.24 2.33 4.46 4.74 6.61 7.16a3 3 0 0 1 -2.22 4.94zm-369.36-9.66a3 3 0 0 1 -2.11-5c2.27-2.3 4.62-4.59 7-6.81a3 3 0 1 1 4.06 4.32c-2.3 2.16-4.59 4.4-6.81 6.65a3 3 0 0 1 -2.14.84zm349-10.81a3 3 0 0 1 -2-.76c-2.35-2.11-4.78-4.2-7.21-6.22a3 3 0 0 1 3.79-4.56c2.49 2.07 5 4.21 7.38 6.37a3 3 0 0 1 -2 5.17zm-327.58-8.57a3 3 0 0 1 -1.86-5.27c2.52-2 5.11-4 7.7-6a3 3 0 0 1 3.55 4.75c-2.53 1.88-5.06 3.85-7.52 5.83a3 3 0 0 1 -1.87.69zm305-9.45a3 3 0 0 1 -1.71-.55c-2.58-1.83-5.23-3.63-7.87-5.36a3 3 0 0 1 3.24-5c2.71 1.77 5.42 3.61 8.06 5.49a3 3 0 0 1 -1.72 5.38zm-281.5-7.37a3 3 0 0 1 -1.59-5.47c2.74-1.74 5.54-3.44 8.33-5.06a3 3 0 1 1 3 5.13c-2.72 1.58-5.46 3.24-8.13 4.94a3 3 0 0 1 -1.63.46zm257-8a3 3 0 0 1 -1.43-.37c-2.78-1.53-5.61-3-8.43-4.43a3 3 0 1 1 2.66-5.3c2.89 1.45 5.79 3 8.63 4.54a3 3 0 0 1 -1.43 5.56zm-231.81-6.07a3 3 0 0 1 -1.29-5.64c2.92-1.41 5.89-2.78 8.85-4.07a3 3 0 1 1 2.44 5.47c-2.89 1.26-5.8 2.6-8.64 4a3 3 0 0 1 -1.36.24zm205.72-6.39a3 3 0 0 1 -1.12-.22c-2.93-1.2-5.92-2.35-8.89-3.44a3 3 0 0 1 2-5.57c3 1.11 6.1 2.29 9.1 3.52a3 3 0 0 1 -1.12 5.71zm-179.03-4.61a3 3 0 0 1 -1-5.77c3.05-1.07 6.17-2.08 9.26-3a3 3 0 0 1 1.74 5.67c-3 .92-6.06 1.92-9 3a3 3 0 0 1 -1 .1zm151.71-4.73a3 3 0 0 1 -.8-.11c-3.05-.85-6.15-1.66-9.22-2.39a3 3 0 1 1 1.38-5.77c3.14.75 6.32 1.58 9.44 2.45a3 3 0 0 1 -.8 5.82zm-124-3.21a3 3 0 0 1 -.65-5.86c3.15-.71 6.36-1.36 9.54-1.95a3 3 0 0 1 1.07 5.83c-3.1.57-6.24 1.21-9.32 1.9a3 3 0 0 1 -.6.07zm95.72-3a3 3 0 0 1 -.47 0c-3.12-.5-6.3-.94-9.44-1.32a3 3 0 0 1 .79-5.9c3.22.39 6.47.84 9.67 1.35a3 3 0 0 1 -.46 5.89zm-67.2-1.7a3 3 0 0 1 -.31-5.91c3.21-.34 6.47-.63 9.71-.85a3 3 0 0 1 .41 5.92c-3.16.22-6.35.5-9.48.83zm38.48-1.18h-.13c-3.15-.14-6.35-.22-9.52-.24a3 3 0 0 1 0-5.93c3.24 0 6.52.1 9.74.25a3 3 0 0 1 -.13 5.93z" fill="#000000" data-original="#000000" class=""></path><path d="m460.49 109.83a3 3 0 0 1 -2.4-1.22q-1.44-2-2.92-3.92a3 3 0 0 1 4.72-3.59q1.51 2 3 4a3 3 0 0 1 -2.39 4.72z" fill="#000000" data-original="#000000" class=""></path><path d="m82.3 443a3 3 0 0 1 -2-.81q-1.82-1.72-3.6-3.47a3 3 0 0 1 4.16-4.23q1.74 1.71 3.52 3.39a3 3 0 0 1 -2 5.12z" fill="#000000" data-original="#000000" class=""></path><path d="m260.14 512a3 3 0 0 1 0-5.93c3.21-.05 6.46-.16 9.66-.34a3 3 0 0 1 .32 5.92c-3.27.18-6.6.29-9.89.35zm-19.55-.43h-.18c-3.28-.2-6.6-.46-9.86-.78a3 3 0 0 1 .58-5.9c3.19.32 6.43.57 9.63.77a3 3 0 0 1 -.18 5.93zm48.82-1.71a3 3 0 0 1 -.38-5.91c3.18-.42 6.4-.91 9.57-1.45a3 3 0 0 1 1 5.85c-3.25.56-6.54 1.06-9.8 1.48zm-77.93-1.74a3 3 0 0 1 -.52 0c-3.23-.57-6.5-1.22-9.71-1.92a3 3 0 0 1 1.26-5.79c3.14.68 6.33 1.32 9.48 1.88a3 3 0 0 1 -.52 5.89zm106.77-3.79a3 3 0 0 1 -.72-5.84c3.12-.79 6.26-1.65 9.34-2.55a3 3 0 1 1 1.68 5.69c-3.15.93-6.37 1.81-9.56 2.61a3 3 0 0 1 -.75.09zm-135.3-3a3 3 0 0 1 -.86-.13c-3.14-.95-6.31-2-9.42-3a3 3 0 1 1 1.93-5.61c3 1 6.13 2 9.2 3a3 3 0 0 1 -.85 5.81zm163.29-5.82a3 3 0 0 1 -1.06-5.74c3-1.14 6-2.36 9-3.62a3 3 0 1 1 2.33 5.45c-3 1.29-6.12 2.54-9.18 3.71a3 3 0 0 1 -1.1.18zm-190.84-4.29a3 3 0 0 1 -1.18-.25c-3-1.3-6-2.69-9-4.12a3 3 0 1 1 2.57-5.34c2.9 1.39 5.85 2.75 8.79 4a3 3 0 0 1 -1.18 5.69zm217.6-7.77a3 3 0 0 1 -1.38-5.59c2.84-1.48 5.7-3 8.49-4.64a3 3 0 0 1 2.95 5.15c-2.85 1.63-5.78 3.23-8.69 4.75a3 3 0 0 1 -1.37.33zm-243.78-5.45a3 3 0 0 1 -1.49-.4c-2.84-1.65-5.69-3.38-8.46-5.13a3 3 0 0 1 3.17-5c2.71 1.71 5.49 3.4 8.27 5a3 3 0 0 1 -1.49 5.53zm269-9.62a3 3 0 0 1 -1.72-5.38c2.65-1.8 5.31-3.68 7.89-5.59a3 3 0 0 1 3.52 4.77c-2.65 2-5.36 3.88-8.08 5.72a3 3 0 0 1 -1.66.48zm-293.42-6.54a3 3 0 0 1 -1.77-.59c-2.64-2-5.26-4-7.81-6.07a3 3 0 1 1 3.73-4.61c2.49 2 5.06 4 7.63 5.93a3 3 0 0 1 -1.78 5.34zm316.69-11.33a3 3 0 0 1 -1.94-5.21c2.43-2.1 4.85-4.27 7.19-6.46a3 3 0 0 1 4 4.34c-2.4 2.24-4.88 4.47-7.36 6.61a3 3 0 0 1 -1.95.72zm21-20.43a3 3 0 0 1 -2.18-5c2.16-2.36 4.32-4.8 6.4-7.25a3 3 0 0 1 4.52 3.84c-2.13 2.51-4.34 5-6.55 7.42a3 3 0 0 1 -2.2.99z" fill="#000000" data-original="#000000" class=""></path><path d="m461.05 407.35a3 3 0 0 1 -2.4-4.71q1.43-2 2.83-4a3 3 0 0 1 4.87 3.39q-1.43 2.05-2.9 4.08a3 3 0 0 1 -2.4 1.24z" fill="#000000" data-original="#000000" class=""></path><path d="m23.51 159a3 3 0 0 1 -2.72-4.14q1-2.3 2-4.57a3 3 0 0 1 5.4 2.45q-1 2.22-2 4.46a3 3 0 0 1 -2.68 1.8z" fill="#000000" data-original="#000000" class=""></path><path d="m32.74 378.11a3 3 0 0 1 -2.62-1.57c-1.49-2.79-3-5.66-4.35-8.51a3 3 0 0 1 5.33-2.6c1.36 2.79 2.79 5.59 4.25 8.32a3 3 0 0 1 -2.61 4.36zm-11.94-25.7a3 3 0 0 1 -2.8-1.87c-1.17-2.94-2.3-5.95-3.36-8.95a3 3 0 0 1 5.59-2c1 2.93 2.14 5.87 3.29 8.74a3 3 0 0 1 -2.76 4.06zm-9-26.88a3 3 0 0 1 -2.8-2.18c-.83-3.05-1.62-6.17-2.34-9.27a3 3 0 0 1 5.78-1.34c.7 3 1.47 6.07 2.28 9.05a3 3 0 0 1 -2.86 3.75zm-5.8-27.72a3 3 0 0 1 -3-2.51c-.48-3.13-.91-6.31-1.28-9.48a3 3 0 0 1 5.89-.68c.36 3.09.78 6.2 1.25 9.26a3 3 0 0 1 -2.48 3.38 3 3 0 0 1 -.38.03zm-2.74-28.2a3 3 0 0 1 -3-2.84c-.14-3.16-.26-6.37-.26-9.56a3 3 0 0 1 3-3 3 3 0 0 1 3 3c0 3.11.09 6.25.21 9.34a3 3 0 0 1 -2.84 3.09zm.4-28.33h-.26a3 3 0 0 1 -2.75-3.16c.22-3.16.5-6.36.84-9.52a3 3 0 1 1 5.9.63c-.33 3.09-.6 6.21-.82 9.3a3 3 0 0 1 -2.97 2.75zm3.53-28.11a3 3 0 0 1 -2.92-3.5c.57-3.12 1.21-6.27 1.9-9.37a3 3 0 0 1 5.79 1.29c-.67 3-1.29 6.1-1.85 9.15a3 3 0 0 1 -2.98 2.43zm6.66-27.53a3 3 0 0 1 -2.85-3.83c.92-3 1.91-6.1 2.94-9.09a3 3 0 0 1 5.61 1.93c-1 2.93-2 5.92-2.87 8.88a3 3 0 0 1 -2.89 2.11z" fill="#000000" data-original="#000000" class=""></path><path d="m45 398.58a3 3 0 0 1 -2.48-1.33q-1.38-2.08-2.72-4.19a3 3 0 1 1 5-3.18q1.31 2.06 2.66 4.1a3 3 0 0 1 -2.47 4.6z" fill="#000000" data-original="#000000" class=""></path><path d="m490.57 163.79a3 3 0 0 1 -2.75-1.85q-.92-2.26-1.88-4.5a3 3 0 1 1 5.45-2.34q1 2.29 1.93 4.61a3 3 0 0 1 -2.75 4.08z" fill="#000000" data-original="#000000" class=""></path><path d="m495.47 341.08a3 3 0 0 1 -2.8-3.93c1.07-3.13 2.1-6.31 3-9.47a3 3 0 1 1 5.68 1.7c-1 3.24-2 6.5-3.11 9.7a3 3 0 0 1 -2.77 2zm8.07-29.08a3 3 0 0 1 -2.9-3.58c.69-3.22 1.32-6.51 1.88-9.77a3 3 0 0 1 5.85 1c-.57 3.34-1.22 6.7-1.93 10a3 3 0 0 1 -2.9 2.35zm4.52-29.84h-.27a3 3 0 0 1 -2.68-3.22c.3-3.28.54-6.62.7-9.93a3 3 0 0 1 5.92.3c-.17 3.38-.42 6.8-.72 10.16a3 3 0 0 1 -2.95 2.68zm.94-30.16a3 3 0 0 1 -3-2.88c-.09-3.31-.25-6.65-.47-9.94a3 3 0 0 1 5.92-.39c.22 3.36.38 6.79.48 10.17a3 3 0 0 1 -2.88 3zm-2.6-30.07a3 3 0 0 1 -2.93-2.54c-.48-3.26-1-6.56-1.64-9.81a3 3 0 1 1 5.83-1.09c.63 3.33 1.19 6.71 1.68 10a3 3 0 0 1 -2.94 3.4zm-6.16-29.54a3 3 0 0 1 -2.86-2.19c-.87-3.19-1.81-6.4-2.81-9.54a3 3 0 0 1 5.66-1.79c1 3.22 2 6.5 2.87 9.77a3 3 0 0 1 -2.86 3.75z" fill="#000000" data-original="#000000" class=""></path><path d="m486.15 364.37a3 3 0 0 1 -2.69-4.2q1-2.22 2-4.45a3 3 0 1 1 5.44 2.37q-1 2.29-2 4.56a3 3 0 0 1 -2.75 1.72z" fill="#000000" data-original="#000000" class=""></path><path d="m256 342.41a86.4 86.4 0 1 1 86.4-86.4 86.5 86.5 0 0 1 -86.4 86.4zm0-166.87a80.47 80.47 0 1 0 80.52 80.46 80.56 80.56 0 0 0 -80.52-80.46z" fill="#000000" data-original="#000000" class=""></path><path d="m277.89 155.92h-44.77a3 3 0 0 1 -2.57-4.45l22.39-38.77a3 3 0 0 1 5.14 0l22.39 38.77a3 3 0 0 1 -2.57 4.45zm-39.64-5.92h34.5l-17.25-29.89z" fill="#000000" data-original="#000000" class=""></path><path d="m255.5 400.81a3 3 0 0 1 -2.57-1.48l-22.39-38.77a3 3 0 0 1 2.57-4.45h44.77a3 3 0 0 1 2.57 4.45l-22.39 38.77a3 3 0 0 1 -2.56 1.48zm-17.25-38.81 17.25 29.88 17.25-29.88z" fill="#000000" data-original="#000000" class=""></path><path d="m358.56 281.37a3 3 0 0 1 -3-3v-44.74a3 3 0 0 1 4.45-2.57l38.77 22.39a3 3 0 0 1 0 5.14l-38.78 22.41a3 3 0 0 1 -1.44.37zm3-42.6v34.5l29.84-17.27z" fill="#000000" data-original="#000000" class=""></path><path d="m152.45 281.37a3 3 0 0 1 -1.45-.37l-38.77-22.39a3 3 0 0 1 0-5.14l38.77-22.41a3 3 0 0 1 4.45 2.57v44.77a3 3 0 0 1 -3 3zm-32.85-25.37 29.88 17.25v-34.5z" fill="#000000" data-original="#000000" class=""></path><path d="m343.6 201a3 3 0 0 1 -2.07-.85l-32-31.32a3 3 0 0 1 1.28-5l43.12-12a3 3 0 0 1 3.67 3.59l-11.13 43.37a3 3 0 0 1 -2.87 2.21zm-26.25-32.81 24.65 24.13 8.58-33.42z" fill="#000000" data-original="#000000" class=""></path><path d="m156.28 360.32a3 3 0 0 1 -2.87-3.7l11.13-43.37a3 3 0 0 1 4.95-1.38l32 31.32a3 3 0 0 1 -1.28 5l-43.12 12a3 3 0 0 1 -.81.13zm12.72-40.62-8.58 33.42 33.23-9.28z" fill="#000000" data-original="#000000" class=""></path><path d="m356.57 358.48a3 3 0 0 1 -.75-.1l-43.34-11.25a3 3 0 0 1 -1.37-5l31.41-31.9a3 3 0 0 1 5 1.29l11.92 43.16a3 3 0 0 1 -2.86 3.76zm-37.57-15.79 33.39 8.67-9.19-33.25z" fill="#000000" data-original="#000000" class=""></path><path d="m166.36 202.63a3 3 0 0 1 -2.86-2.18l-11.92-43.15a3 3 0 0 1 3.6-3.66l43.34 11.25a3 3 0 0 1 1.37 5l-31.41 31.9a3 3 0 0 1 -2.12.84zm-7.7-42 9.19 33.25 24.2-24.58z" fill="#000000" data-original="#000000" class=""></path><path d="m256 342.41a86.4 86.4 0 1 1 30.47-167.26 3 3 0 0 1 -.14 5.6 109 109 0 0 0 -30.81 17c-20 15.75-30.14 35.51-30.14 58.72s10.13 42.78 30.11 58.2a108.92 108.92 0 0 0 30.8 16.55 3 3 0 0 1 .18 5.61 86.06 86.06 0 0 1 -30.47 5.58zm0-166.87a80.47 80.47 0 1 0 20.46 158.3 116.92 116.92 0 0 1 -24.6-14.44c-21.16-16.4-32.37-38.1-32.37-62.88s11.2-46.69 32.4-63.38a119.46 119.46 0 0 1 24.8-14.91 80.27 80.27 0 0 0 -20.69-2.69z" fill="#000000" data-original="#000000" class=""></path><path d="m41.5 158.71a35.47 35.47 0 1 1 35.5-35.47 35.51 35.51 0 0 1 -35.5 35.47zm0-65a29.54 29.54 0 1 0 29.5 29.53 29.58 29.58 0 0 0 -29.5-29.54z" fill="#000000" data-original="#000000" class=""></path><path d="m316.73 107.78a22.47 22.47 0 1 1 22.47-22.47 22.5 22.5 0 0 1 -22.47 22.47zm0-39a16.54 16.54 0 1 0 16.54 16.54 16.56 16.56 0 0 0 -16.54-16.55z" fill="#000000" data-original="#000000" class=""></path><path d="m324.31 462.11a37.64 37.64 0 1 1 37.69-37.64 37.68 37.68 0 0 1 -37.69 37.64zm0-69.35a31.71 31.71 0 1 0 31.69 31.71 31.74 31.74 0 0 0 -31.69-31.71z" fill="#000000" data-original="#000000" class=""></path><path d="m471.14 165.21a31.68 31.68 0 1 1 31.68-31.68 31.72 31.72 0 0 1 -31.68 31.68zm0-57.43a25.75 25.75 0 1 0 25.75 25.75 25.78 25.78 0 0 0 -25.75-25.75z" fill="#000000" data-original="#000000" class=""></path><path d="m61.54 445.86a29.51 29.51 0 1 1 29.51-29.51 29.55 29.55 0 0 1 -29.51 29.51zm0-53.09a23.58 23.58 0 1 0 23.58 23.58 23.61 23.61 0 0 0 -23.58-23.59z" fill="#000000" data-original="#000000" class=""></path><path d="m471.68 404.68a25.72 25.72 0 1 1 25.72-25.68 25.75 25.75 0 0 1 -25.72 25.68zm0-45.51a19.79 19.79 0 1 0 19.79 19.83 19.81 19.81 0 0 0 -19.79-19.83z" fill="#000000" data-original="#000000" class=""></path></g></svg>