<svg fill="none" height="32" viewBox="0 0 32 32" width="32" xmlns="http://www.w3.org/2000/svg">
    <g clip-path="url(#clip0_6729_82300)">
        <path
            d="M16 32C24.8366 32 32 24.8366 32 16C32 7.16344 24.8366 0 16 0C7.16344 0 0 7.16344 0 16C0 24.8366 7.16344 32 16 32Z"
            fill="#FFCE00" />
        <path
            d="M31.9688 17.0177L19.285 4.33398L16.3756 15.1394L8.41514 18.6941L12.5087 22.7877L6.31445 23.6156L14.6618 31.9452C15.1031 31.9818 15.5497 32.0005 16.0006 32.0005C24.4955 32.0005 31.4441 25.3803 31.9688 17.0177Z"
            fill="#FFA300" />
        <path d="M13.6797 4.33398H18.3222V16.6326H13.6797V4.33398Z" fill="#1DD882" />
        <path d="M16.002 4.33398H18.3215V16.6326H16.002V4.33398Z" fill="#2CC47F" />
        <path
            d="M23.8199 24.3696H8.18189C6.69745 24.3696 5.49414 23.1663 5.49414 21.6819C5.49414 20.1975 6.69752 18.9941 8.18189 18.9941H23.8199C25.3043 18.9941 26.5076 20.1975 26.5076 21.6819C26.5076 23.1663 25.3043 24.3696 23.8199 24.3696Z"
            fill="#1DD882" />
        <path
            d="M23.8192 18.9941H16.002V24.3697H23.8192C25.3036 24.3697 26.507 23.1664 26.507 21.682C26.507 20.1975 25.3036 18.9941 23.8192 18.9941Z"
            fill="#2CC47F" />
        <path
            d="M22.0872 19.3242H9.91111C8.7553 19.3242 7.81836 18.3872 7.81836 17.2314C7.81836 16.0756 8.7553 15.1387 9.91111 15.1387H22.0872C23.2431 15.1387 24.18 16.0756 24.18 17.2314C24.18 18.3872 23.2431 19.3242 22.0872 19.3242Z"
            fill="#2CC47F" />
        <path
            d="M22.0883 15.1387H16.002V19.3242H22.0883C23.2441 19.3242 24.181 18.3873 24.181 17.2315C24.181 16.0756 23.2441 15.1387 22.0883 15.1387Z"
            fill="#06B26B" />
        <path d="M17.0378 13.7411L15.9994 12.8248L14.9609 13.7411V9.2207H17.0378V13.7411Z"
            fill="#FF6C52" />
        <path d="M17.0386 9.2207H16.002V12.8263L17.0386 13.7411V9.2207Z" fill="#FF432E" />
        <path
            d="M17.4962 10.524H14.5026C13.8578 10.524 13.301 10.0724 13.168 9.44151L12.3521 5.57207C12.1734 4.7242 12.8202 3.92676 13.6867 3.92676H18.312C19.1785 3.92676 19.8254 4.72426 19.6466 5.57207L18.8307 9.44151C18.6977 10.0724 18.141 10.524 17.4962 10.524Z"
            fill="#2CC47F" />
        <path
            d="M18.3129 3.92676H16.002V10.524H17.497C18.1418 10.524 18.6985 10.0725 18.8315 9.44151L19.6474 5.57207C19.8263 4.72426 19.1794 3.92676 18.3129 3.92676Z"
            fill="#06B26B" />
        <path
            d="M14.6384 7.51354C14.9969 7.36494 15.167 6.95386 15.0184 6.59537C14.8698 6.23688 14.4588 6.06672 14.1003 6.21532C13.7418 6.36391 13.5716 6.77499 13.7202 7.13349C13.8688 7.49198 14.2799 7.66213 14.6384 7.51354Z"
            fill="#555A66" />
        <path
            d="M17.906 7.51256C18.2645 7.36396 18.4346 6.95289 18.286 6.59439C18.1374 6.2359 17.7264 6.06575 17.3679 6.21434C17.0094 6.36294 16.8392 6.77401 16.9878 7.13251C17.1364 7.491 17.5475 7.66116 17.906 7.51256Z"
            fill="#333940" />
    </g>
    <defs>
        <clipPath id="clip0_6729_82300">
            <rect fill="white" height="32" width="32" />
        </clipPath>
    </defs>
</svg>
