<svg fill="none" height="32" viewBox="0 0 32 32" width="32" xmlns="http://www.w3.org/2000/svg">
    <path
        d="M16 32C24.8366 32 32 24.8366 32 16C32 7.16344 24.8366 0 16 0C7.16344 0 0 7.16344 0 16C0 24.8366 7.16344 32 16 32Z"
        fill="#FFCE00" />
    <path
        d="M16.8779 31.9762C25.3059 31.5201 31.9995 24.5417 31.9995 15.9999C31.9995 14.9951 31.9069 14.0121 31.7297 13.0586L24.9408 6.26977L24.5258 9.34883L19.4211 4.24414L18.6761 8.46745L14.4528 4.24414L13.4974 12.7091L10.8484 11.7865L6.23438 17.9998L12.3313 24.0967L10.7386 25.8368L16.8779 31.9762Z"
        fill="#FFA300" />
    <path
        d="M19.041 12.3768L24.9412 6.26953L27.5941 9.85009L26.4868 12.5397L27.4892 14.4997L25.765 17.9995L20.8338 17.9007L19.041 12.3768Z"
        fill="#FF432E" />
    <path d="M27.5946 9.85059L20.0254 16.506L27.4897 14.5002L27.5946 9.85059Z" fill="#DB0404" />
    <path
        d="M12.9594 12.3768L7.05919 6.26953L4.40625 9.85009L5.65719 12.5193L4.51119 14.4997L6.23538 17.9995L11.1666 17.9007L12.9594 12.3768Z"
        fill="#FF6C52" />
    <path d="M4.40625 9.85059L11.9754 16.506L4.51119 14.5002L4.40625 9.85059Z" fill="#FF432E" />
    <path
        d="M8.83984 21.1039L9.16909 23.0981C9.52934 25.2801 11.4158 26.8806 13.6273 26.8806H18.3729C20.5843 26.8806 22.4709 25.2801 22.8311 23.0981L23.1603 21.1039L16.0001 20.208L8.83984 21.1039Z"
        fill="#2CC47F" />
    <path
        d="M16.0009 20.208L16 20.2081V26.8807H18.3737C20.5851 26.8807 22.4717 25.2801 22.8319 23.0982L23.1611 21.1039L16.0009 20.208Z"
        fill="#06B26B" />
    <path d="M12.5781 4.24414H14.4531V12.3771H12.5781V4.24414Z" fill="#FF6C52" />
    <path d="M17.5469 4.24414H19.4219V12.3771H17.5469V4.24414Z" fill="#FF432E" />
    <path
        d="M12.4181 10.5156C9.6287 10.5156 7.50551 13.0181 7.95989 15.7703L8.84045 21.1039L16.0007 22.4681L16.2252 22.4253V10.5156H12.4181Z"
        fill="#1DD882" />
    <path
        d="M19.5835 10.5156H16V22.468L16.0009 22.4681L23.1611 21.1039L24.0417 15.7703C24.496 13.0181 22.3729 10.5156 19.5835 10.5156Z"
        fill="#2CC47F" />
    <path
        d="M12.6009 17.1346C12.9482 16.7873 12.9482 16.2244 12.6009 15.8772C12.2537 15.5299 11.6908 15.5299 11.3435 15.8772C10.9963 16.2244 10.9963 16.7873 11.3435 17.1346C11.6908 17.4818 12.2537 17.4818 12.6009 17.1346Z"
        fill="#636978" />
    <path
        d="M20.889 16.7067C21.0025 16.2289 20.7071 15.7495 20.2292 15.6361C19.7513 15.5226 19.272 15.818 19.1585 16.2959C19.0451 16.7738 19.3405 17.2531 19.8184 17.3665C20.2962 17.48 20.7756 17.1846 20.889 16.7067Z"
        fill="#414952" />
    <path
        d="M14.5644 21.8985C14.76 21.0778 14.2534 20.254 13.4328 20.0583C12.6121 19.8626 11.7882 20.3693 11.5926 21.1899C11.3969 22.0105 11.9035 22.8344 12.7242 23.0301C13.5448 23.2257 14.3687 22.7191 14.5644 21.8985Z"
        fill="#079E59" />
    <path
        d="M19.9988 22.6314C20.5951 22.0351 20.5951 21.0684 19.9988 20.4721C19.4025 19.8758 18.4357 19.8758 17.8394 20.4721C17.2432 21.0684 17.2432 22.0351 17.8394 22.6314C18.4357 23.2277 19.4025 23.2277 19.9988 22.6314Z"
        fill="#0A9154" />
</svg>
