<svg fill="none" height="32" viewBox="0 0 32 32" width="32" xmlns="http://www.w3.org/2000/svg">
    <g clip-path="url(#clip0_6729_82494)">
        <path
            d="M27.3091 27.312C33.5565 21.0646 33.5565 10.9354 27.3091 4.68801C21.0616 -1.55944 10.9325 -1.55943 4.68505 4.68801C-1.5624 10.9354 -1.5624 21.0646 4.68505 27.312C10.9325 33.5594 21.0616 33.5594 27.3091 27.312Z"
            fill="#A3D4FF" />
        <path
            d="M4.76758 19.6552L17.0765 31.9642C25.4113 31.4107 32.0005 24.4748 32.0005 15.9999C32.0005 15.7467 31.9946 15.4948 31.9829 15.2445L26.132 9.39355L4.76758 19.6552Z"
            fill="#65B1FC" />
        <path
            d="M10.6905 20.2043H6.06252C5.06689 20.2043 4.25977 19.3972 4.25977 18.4016V13.1072C4.25977 10.2946 6.53977 8.01465 9.35233 8.01465H10.6905V20.2043Z"
            fill="#B46E5A" />
        <path
            d="M21.3105 20.2043H25.9385C26.9342 20.2043 27.7413 19.3972 27.7413 18.4016V13.1072C27.7413 10.2946 25.4613 8.01465 22.6487 8.01465H21.3105V20.2043Z"
            fill="#915041" />
        <path
            d="M16.9798 24.945H16.9377L16.007 24.8228L15.0619 24.945H15.0191C12.6004 24.945 10.458 23.384 9.71683 21.0817L7.77327 15.0445C6.50233 11.0967 9.44664 7.05566 13.594 7.05566H18.405C22.5523 7.05566 25.4966 11.0967 24.2257 15.0445L22.2821 21.0817C21.5409 23.384 19.3986 24.945 16.9798 24.945Z"
            fill="#C38778" />
        <path
            d="M18.4058 7.05469H16.0078V24.7875L16.9377 24.9441H16.9806C19.3994 24.9441 21.5418 23.3831 22.2829 21.0807L24.2265 15.0436C25.4974 11.0957 22.5531 7.05469 18.4058 7.05469Z"
            fill="#B46E5A" />
        <path
            d="M17.5278 17.3594H14.4718C13.7423 17.3594 13.2913 18.1549 13.666 18.7809L14.1174 19.5349C14.3443 19.9139 14.6756 20.2088 15.0623 20.3916V24.9449H16.9373V20.3916C17.324 20.2088 17.6553 19.9139 17.8823 19.5349L18.3336 18.7809C18.7083 18.1549 18.2573 17.3594 17.5278 17.3594Z"
            fill="#636978" />
        <path
            d="M17.5282 17.3594H16.0078V24.945H16.9377V20.3916C17.3244 20.2088 17.6557 19.9139 17.8827 19.5349L18.3341 18.7809C18.7087 18.1549 18.2578 17.3594 17.5282 17.3594Z"
            fill="#414952" />
        <path
            d="M11.3273 16.0296C11.9104 16.0296 12.3831 15.5569 12.3831 14.9738C12.3831 14.3907 11.9104 13.918 11.3273 13.918C10.7442 13.918 10.2715 14.3907 10.2715 14.9738C10.2715 15.5569 10.7442 16.0296 11.3273 16.0296Z"
            fill="#636978" />
        <path
            d="M20.675 16.0296C21.2581 16.0296 21.7308 15.5569 21.7308 14.9738C21.7308 14.3907 21.2581 13.918 20.675 13.918C20.0918 13.918 19.6191 14.3907 19.6191 14.9738C19.6191 15.5569 20.0918 16.0296 20.675 16.0296Z"
            fill="#414952" />
    </g>
    <defs>
        <clipPath id="clip0_6729_82494">
            <rect fill="white" height="32" width="32" />
        </clipPath>
    </defs>
</svg>
