<svg fill="none" height="32" viewBox="0 0 32 32" width="32" xmlns="http://www.w3.org/2000/svg">
    <g clip-path="url(#clip0_6729_82246)">
        <path
            d="M16 32C24.8366 32 32 24.8366 32 16C32 7.16344 24.8366 0 16 0C7.16344 0 0 7.16344 0 16C0 24.8366 7.16344 32 16 32Z"
            fill="#FFCE00" />
        <path
            d="M31.9688 17.0177L19.285 4.33398L16.3756 15.1394L8.41514 18.6941L12.5087 22.7877L6.31445 23.6156L14.6618 31.9452C15.1031 31.9818 15.5497 32.0005 16.0006 32.0005C24.4955 32.0005 31.4441 25.3803 31.9688 17.0177Z"
            fill="#FFA300" />
        <path d="M13.6797 4.33398H18.3222V16.6326H13.6797V4.33398Z" fill="#1DD882" />
        <path d="M16.002 4.33398H18.3215V16.6326H16.002V4.33398Z" fill="#2CC47F" />
        <path
            d="M23.8199 24.3696H8.18189C6.69745 24.3696 5.49414 23.1663 5.49414 21.6819C5.49414 20.1975 6.69752 18.9941 8.18189 18.9941H23.8199C25.3043 18.9941 26.5076 20.1975 26.5076 21.6819C26.5076 23.1663 25.3043 24.3696 23.8199 24.3696Z"
            fill="#1DD882" />
        <path
            d="M23.8192 18.9941H16.002V24.3697H23.8192C25.3036 24.3697 26.507 23.1664 26.507 21.682C26.507 20.1975 25.3036 18.9941 23.8192 18.9941Z"
            fill="#2CC47F" />
        <path
            d="M22.0872 19.3242H9.91111C8.7553 19.3242 7.81836 18.3872 7.81836 17.2314C7.81836 16.0756 8.7553 15.1387 9.91111 15.1387H22.0872C23.2431 15.1387 24.18 16.0756 24.18 17.2314C24.18 18.3872 23.2431 19.3242 22.0872 19.3242Z"
            fill="#2CC47F" />
        <path
            d="M22.0883 15.1387H16.002V19.3242H22.0883C23.2441 19.3242 24.181 18.3873 24.181 17.2315C24.181 16.0756 23.2441 15.1387 22.0883 15.1387Z"
            fill="#06B26B" />
        <path d="M17.0378 13.7411L15.9994 12.8248L14.9609 13.7411V9.2207H17.0378V13.7411Z"
            fill="#FF6C52" />
        <path d="M17.0386 9.2207H16.002V12.8263L17.0386 13.7411V9.2207Z" fill="#FF432E" />
        <path
            d="M17.4962 10.524H14.5026C13.8578 10.524 13.301 10.0724 13.168 9.44151L12.3521 5.57207C12.1734 4.7242 12.8202 3.92676 13.6867 3.92676H18.312C19.1785 3.92676 19.8254 4.72426 19.6466 5.57207L18.8307 9.44151C18.6977 10.0724 18.141 10.524 17.4962 10.524Z"
            fill="#2CC47F" />
        <path
            d="M18.3129 3.92676H16.002V10.524H17.497C18.1418 10.524 18.6985 10.0725 18.8315 9.44151L19.6474 5.57207C19.8263 4.72426 19.1794 3.92676 18.3129 3.92676Z"
            fill="#06B26B" />
        <path
            d="M14.6384 7.51354C14.9969 7.36494 15.167 6.95386 15.0184 6.59537C14.8698 6.23688 14.4588 6.06672 14.1003 6.21532C13.7418 6.36391 13.5716 6.77499 13.7202 7.13349C13.8688 7.49198 14.2799 7.66213 14.6384 7.51354Z"
            fill="#555A66" />
        <path
            d="M17.906 7.51256C18.2645 7.36396 18.4346 6.95289 18.286 6.59439C18.1374 6.2359 17.7264 6.06575 17.3679 6.21434C17.0094 6.36294 16.8392 6.77401 16.9878 7.13251C17.1364 7.491 17.5475 7.66116 17.906 7.51256Z"
            fill="#333940" />
        <path
            d="M16 32C24.8366 32 32 24.8366 32 16C32 7.16344 24.8366 0 16 0C7.16344 0 0 7.16344 0 16C0 24.8366 7.16344 32 16 32Z"
            fill="#FDE472" />
        <path
            d="M31.9995 16C31.9995 15.0671 31.9188 14.1532 31.7656 13.2641L27.1626 8.65669C26.6933 8.15606 26.1061 7.81138 25.4351 7.689C24.2781 7.47794 23.1209 7.97306 22.2473 8.919C20.5659 7.44994 18.3841 6.5625 15.9995 6.5625C13.6149 6.5625 11.4331 7.44994 9.75163 8.919C8.87807 7.97306 7.72082 7.47794 6.56388 7.689C4.52057 8.06175 3.25275 10.4945 3.73219 13.1228C3.94519 14.2904 4.46738 15.2995 5.161 16.0282L6.41907 17.2879C6.66844 19.7535 7.94238 22.0166 9.67563 23.6881L17.8773 31.8897C25.8288 30.96 31.9995 24.2012 31.9995 16Z"
            fill="#FDB500" />
        <path
            d="M25.4351 7.689C24.2782 7.478 23.1209 7.97306 22.2474 8.919C20.5659 7.44994 18.3841 6.5625 15.9995 6.5625C13.6149 6.5625 11.4331 7.44994 9.75163 8.919C8.87807 7.97306 7.72082 7.47794 6.56388 7.689C4.52057 8.06169 3.25275 10.4945 3.73219 13.1227C4.05819 14.91 5.10844 16.3265 6.38957 16.9334C6.70463 22.1458 11.6533 26.5478 15.9994 26.5478C20.3456 26.5478 25.2943 22.1458 25.6094 16.9334C26.8905 16.3264 27.9408 14.91 28.2668 13.1227C28.7462 10.4945 27.4785 8.06175 25.4351 7.689Z"
            fill="#CE7937" />
        <path
            d="M28.2675 13.1231C27.9412 14.91 26.8913 16.3269 25.61 16.9338C25.295 22.1462 20.3463 26.5481 16 26.5481V6.5625C18.3844 6.5625 20.5662 7.45 22.2481 8.91938C23.1213 7.97313 24.2788 7.47812 25.4356 7.68937C27.4788 8.06187 28.7469 10.495 28.2675 13.1231Z"
            fill="#984B04" />
        <path
            d="M8.50028 10.2345C7.30403 11.7532 6.53903 13.6426 6.39715 15.7082C5.71653 15.2414 5.18215 14.412 4.9984 13.4032C4.68278 11.6745 5.51653 10.0745 6.86028 9.82948C7.4334 9.72511 8.00653 9.88386 8.50028 10.2345Z"
            fill="#FDD9A8" />
        <path
            d="M26.9999 13.4032C26.8162 14.412 26.2818 15.2414 25.6012 15.7082C25.4593 13.6426 24.6943 11.7532 23.498 10.2345C23.9918 9.88386 24.5649 9.72511 25.1381 9.82948C26.4818 10.0745 27.3156 11.6745 26.9999 13.4032Z"
            fill="#FDB551" />
        <path
            d="M23.8924 14.3388C23.8924 11.866 21.8878 9.86133 19.415 9.86133C18.046 9.86133 16.8212 10.4764 15.9999 11.4445C15.1786 10.4764 13.9539 9.86133 12.5849 9.86133C10.112 9.86133 8.10742 11.866 8.10742 14.3388C8.10742 16.2578 9.31498 17.8941 11.0114 18.5311C10.9435 18.8626 10.9079 19.2059 10.9079 19.5574C10.9079 22.3696 13.1876 24.6494 15.9999 24.6494C18.8121 24.6494 21.0919 22.3696 21.0919 19.5574C21.0919 19.2058 21.0562 18.8626 20.9884 18.5311C22.6849 17.8941 23.8924 16.2578 23.8924 14.3388Z"
            fill="#FDD9A8" />
        <path
            d="M20.9886 18.5312C21.0565 18.8628 21.0923 19.2059 21.0923 19.5573C21.0923 22.3696 18.8123 24.6495 16 24.6495V11.4446C16.8216 10.4762 18.0462 9.86133 19.4148 9.86133C21.8882 9.86133 23.8929 11.866 23.8929 14.3386C23.8929 16.2579 22.685 17.8944 20.9886 18.5312Z"
            fill="#FDB551" />
        <path
            d="M13.2554 16.1388C13.8625 16.1388 14.3546 15.6467 14.3546 15.0396C14.3546 14.4326 13.8625 13.9404 13.2554 13.9404C12.6484 13.9404 12.1562 14.4326 12.1562 15.0396C12.1562 15.6467 12.6484 16.1388 13.2554 16.1388Z"
            fill="#56545B" />
        <path
            d="M18.7437 16.1388C19.3508 16.1388 19.8429 15.6467 19.8429 15.0396C19.8429 14.4326 19.3508 13.9404 18.7437 13.9404C18.1367 13.9404 17.6445 14.4326 17.6445 15.0396C17.6445 15.6467 18.1367 16.1388 18.7437 16.1388Z"
            fill="#29292B" />
        <path
            d="M15.5132 18.8539C15.6422 18.6452 15.459 18.2981 15.104 18.0787C14.7491 17.8594 14.3567 17.8508 14.2277 18.0595C14.0987 18.2683 14.2819 18.6153 14.6369 18.8347C14.9919 19.0541 15.3842 19.0627 15.5132 18.8539Z"
            fill="#56545B" />
        <path
            d="M16.4871 18.8579C16.6161 19.0667 17.0085 19.0581 17.3635 18.8387C17.7184 18.6193 17.9016 18.2723 17.7726 18.0635C17.6436 17.8548 17.2513 17.8634 16.8963 18.0827C16.5413 18.3021 16.3581 18.6492 16.4871 18.8579Z"
            fill="#29292B" />
        <path d="M18.3173 20.7549H13.6816V21.5093H18.3173V20.7549Z" fill="#56545B" />
        <path d="M18.3181 20.7549H16V21.5093H18.3181V20.7549Z" fill="#29292B" />
    </g>
    <defs>
        <clipPath id="clip0_6729_82246">
            <rect fill="white" height="32" width="32" />
        </clipPath>
    </defs>
</svg>
