<svg xmlns="http://www.w3.org/2000/svg" version="1.1" xmlns:xlink="http://www.w3.org/1999/xlink" xmlns:svgjs="http://svgjs.com/svgjs" width="512" height="512" x="0" y="0" viewBox="0 0 512 512" style="enable-background:new 0 0 512 512" xml:space="preserve" class=""><circle r="256" cx="256" cy="256" fill="#eb0000" shape="circle"></circle><g transform="matrix(0.6,0,0,0.6,102.4,102.4)"><g><path d="m481 91v-30h-90v-61h-30v61h-210v-61h-30v61h-90v30h90v30h-90v30h90v30h-90v120h90v30h-90v30h90v30h-90v121h210v-121h-90v-30h210v30h-90v121h210v-121h-90v-30h90v-30h-90v-30h90v-120h-90v-30h90v-30h-90v-30zm-330 0h210v30h-210zm60 330v61h-150v-61zm-150-150v-60h150v60zm90 60v-30h90v-120h-90v-30h210v30h-90v120h90v30zm300 90v61h-150v-61zm0-210v60h-150v-60z" fill="#fdfdfd" data-original="#ff6849" class=""></path><path d="m481 91v-30h-90v-61h-30v61h-105v30h105v30h-105v30h105v30h-90v120h90v30h-105v30h105v30h-90v121h210v-121h-90v-30h90v-30h-90v-30h90v-120h-90v-30h90v-30h-90v-30zm-30 330v61h-150v-61zm0-210v60h-150v-60z" fill="#fdfdfd" data-original="#fd4b2d" class=""></path></g></g></svg>