<svg width="24" height="24" viewBox="0 0 24 24" fill="none" xmlns="http://www.w3.org/2000/svg">
<path fill-rule="evenodd" clip-rule="evenodd" d="M12 3.74997C9.57651 3.74997 7.75 5.50128 7.75 7.49997C7.75 9.49866 9.57651 11.25 12 11.25C15.0994 11.25 17.75 13.5281 17.75 16.5C17.75 17.0982 17.6426 17.6683 17.4457 18.1974C19.165 16.6855 20.25 14.4694 20.25 12C20.25 7.44362 16.5563 3.74997 12 3.74997ZM12 21.75C17.3848 21.75 21.75 17.3847 21.75 12C21.75 6.61519 17.3848 2.24997 12 2.24997C6.61522 2.24997 2.25 6.61519 2.25 12C2.25 17.3847 6.61522 21.75 12 21.75ZM12 20.25C14.4235 20.25 16.25 18.4987 16.25 16.5C16.25 14.5013 14.4235 12.75 12 12.75C8.90065 12.75 6.25 10.4718 6.25 7.49997C6.25 6.90174 6.35741 6.33162 6.55426 5.80254C4.83498 7.31447 3.75 9.53052 3.75 12C3.75 16.5563 7.44365 20.25 12 20.25ZM12 7.99997C12.5523 7.99997 13 7.55226 13 6.99997C13 6.44769 12.5523 5.99997 12 5.99997C11.4477 5.99997 11 6.44769 11 6.99997C11 7.55226 11.4477 7.99997 12 7.99997ZM13 17C13 17.5523 12.5523 18 12 18C11.4477 18 11 17.5523 11 17C11 16.4477 11.4477 16 12 16C12.5523 16 13 16.4477 13 17Z" fill="#22282F"/>
</svg>
