<svg xmlns="http://www.w3.org/2000/svg" version="1.1" xmlns:xlink="http://www.w3.org/1999/xlink" xmlns:svgjs="http://svgjs.com/svgjs" width="512" height="512" x="0" y="0" viewBox="0 0 512 512" style="enable-background:new 0 0 512 512" xml:space="preserve" class=""><rect width="512" height="512" rx="20" ry="20" fill="#38c6aa" shape="rounded"></rect><g transform="matrix(0.7,0,0,0.7,76.79999666623772,76.79999666623772)"><g><path d="m512 256c0 141.385-114.615 256-256 256s-256-114.615-256-256 114.615-256 256-256 256 114.615 256 256z" fill="#3342ae" data-original="#3342ae" class=""></path><path d="m476.36 256c0 121.702-98.659 220.36-220.36 220.36s-220.36-98.658-220.36-220.36 98.658-220.36 220.36-220.36 220.36 98.658 220.36 220.36z" fill="#3d4ec6" data-original="#3d4ec6" class=""></path><path d="m433.387 256c0 97.968-79.419 177.387-177.387 177.387s-177.387-79.419-177.387-177.387 79.419-177.387 177.387-177.387 177.387 79.419 177.387 177.387z" fill="#5766ce" data-original="#5766ce" class=""></path><path d="m377 256c0 66.826-54.174 121-121 121s-121-54.174-121-121 54.174-121 121-121 121 54.174 121 121z" fill="#3342ae" data-original="#3342ae" class=""></path><path d="m317.144 290.106c-11.971 21.415-34.867 35.894-61.144 35.894-38.66 0-70-31.34-70-70 0-26.277 14.479-49.173 35.894-61.144-5.641 10.092-8.856 21.723-8.856 34.106 0 38.66 31.34 70 70 70 12.382 0 24.014-3.215 34.106-8.856z" fill="#2b3894" data-original="#2b3894"></path><path d="m511.952 261c.032-1.663.048-3.33.048-5s-.016-3.337-.048-5h-130.05c-.756-19.291-5.87-37.481-14.383-53.612l112.682-65.057c-1.614-2.92-3.284-5.806-5.008-8.656l-112.688 65.061c-10.013-15.798-23.442-29.228-39.241-39.24l65.061-112.688c-2.849-1.724-5.735-3.394-8.656-5.008l-65.057 112.682c-16.131-8.512-34.322-13.626-53.612-14.383v-130.051c-1.663-.032-3.33-.048-5-.048s-3.337.016-5 .048v130.05c-19.291.756-37.481 5.87-53.612 14.383l-65.057-112.682c-2.92 1.615-5.806 3.284-8.656 5.008l65.061 112.688c-15.798 10.013-29.228 23.442-39.241 39.24l-112.688-65.06c-1.724 2.849-3.394 5.735-5.008 8.656l112.682 65.057c-8.512 16.131-13.626 34.322-14.383 53.612h-130.05c-.032 1.663-.048 3.33-.048 5s.016 3.337.048 5h130.05c.756 19.291 5.87 37.481 14.383 53.612l-112.682 65.057c1.614 2.92 3.284 5.806 5.008 8.656l112.688-65.061c10.013 15.798 23.442 29.228 39.241 39.24l-65.061 112.688c2.849 1.724 5.735 3.394 8.656 5.008l65.057-112.682c16.131 8.512 34.322 13.626 53.612 14.383v130.05c1.663.032 3.33.048 5 .048s3.337-.016 5-.048v-130.05c19.291-.757 37.481-5.871 53.612-14.383l65.057 112.682c2.92-1.615 5.806-3.284 8.656-5.008l-65.061-112.688c15.798-10.013 29.228-23.442 39.241-39.24l112.688 65.061c1.724-2.849 3.394-5.735 5.008-8.656l-112.682-65.057c8.512-16.131 13.626-34.322 14.383-53.612zm-255.952 111c-63.963 0-116-52.038-116-116s52.037-116 116-116 116 52.038 116 116-52.037 116-116 116zm0-191c-41.355 0-75 33.645-75 75s33.645 75 75 75 75-33.645 75-75-33.645-75-75-75zm0 140c-35.841 0-65-29.159-65-65s29.159-65 65-65 65 29.159 65 65-29.159 65-65 65z" fill="#232e7a" data-original="#232e7a" class=""></path><path d="m258.239 209.19 7.566 11.249c.693 1.03 1.999 1.454 3.165 1.028l12.733-4.653c1.799-.658 3.692.717 3.622 2.632l-.491 13.548c-.045 1.241.762 2.352 1.956 2.692l13.036 3.72c1.842.526 2.565 2.75 1.384 4.258l-8.36 10.672c-.766.977-.766 2.351 0 3.328l8.36 10.672c1.181 1.508.459 3.733-1.384 4.259l-13.036 3.72c-1.194.341-2.001 1.452-1.956 2.692l.491 13.548c.069 1.915-1.823 3.29-3.622 2.632l-12.733-4.653c-1.166-.426-2.472-.002-3.165 1.028l-7.566 11.249c-1.069 1.59-3.408 1.59-4.478 0l-7.566-11.249c-.693-1.03-1.999-1.454-3.165-1.028l-12.733 4.653c-1.799.658-3.692-.717-3.622-2.632l.491-13.548c.045-1.241-.762-2.352-1.956-2.692l-13.036-3.72c-1.842-.526-2.565-2.75-1.384-4.259l8.36-10.672c.766-.977.766-2.351 0-3.328l-8.36-10.672c-1.182-1.508-.459-3.733 1.384-4.258l13.036-3.72c1.194-.341 2.001-1.452 1.956-2.692l-.491-13.548c-.069-1.915 1.823-3.29 3.622-2.632l12.733 4.653c1.166.426 2.472.002 3.165-1.028l7.566-11.249c1.069-1.589 3.409-1.589 4.478 0z" fill="#ffa90b" data-original="#ffa90b" class=""></path><path d="m260.838 279.712-6.716-3.896c-.459-.266-1.005-.339-1.517-.203l-7.504 1.994c-1.068.284-2.163-.352-2.447-1.419l-1.994-7.504c-.136-.513-.471-.95-.929-1.216l-6.716-3.896c-.955-.554-1.281-1.778-.726-2.734l3.896-6.716c.266-.459.339-1.005.203-1.517l-1.994-7.504c-.284-1.068.352-2.163 1.419-2.447l7.504-1.994c.513-.136.95-.471 1.216-.929l3.896-6.716c.554-.955 1.778-1.281 2.734-.726l6.716 3.896c.459.266 1.005.339 1.517.203l7.504-1.994c1.068-.284 2.163.352 2.447 1.419l1.994 7.504c.136.513.471.95.929 1.216l6.716 3.896c.955.554 1.281 1.778.726 2.734l-3.896 6.716c-.266.459-.339 1.005-.203 1.517l1.994 7.504c.284 1.068-.352 2.163-1.419 2.447l-7.504 1.994c-.513.136-.95.471-1.216.929l-3.896 6.716c-.554.955-1.778 1.281-2.734.726z" fill="#ffc14f" data-original="#ffc14f" class=""></path><path d="m279.712 251.162-3.896 6.716c-.266.459-.339 1.005-.203 1.517l1.994 7.504c.284 1.068-.352 2.163-1.419 2.447l-7.504 1.994c-.138.037-.271.088-.396.152-12.215-6.996-22.263-17.344-28.891-29.791l3.919-1.041c.512-.136.95-.471 1.216-.929l3.896-6.716c.554-.955 1.778-1.281 2.733-.726l6.716 3.896c.459.266 1.005.339 1.517.203l7.504-1.994c1.067-.284 2.163.352 2.447 1.419l1.994 7.504c.136.513.47.95.929 1.216l6.716 3.896c.957.553 1.283 1.777.728 2.733z" fill="#fff36c" data-original="#fff36c" class=""></path><path d="m77.526 205.941c-6.003 0-11.253 3.283-14.05 8.148-7.377.325-13.279 6.428-13.279 13.884 0 2.602-2.117 4.719-4.719 4.719-2.209 0-4 1.791-4 4s1.791 4 4 4c7.013 0 12.719-5.706 12.719-12.719 0-2.259 1.277-4.225 3.147-5.215.328 8.643 7.461 15.573 16.182 15.573 8.93 0 16.195-7.265 16.195-16.195s-7.265-16.195-16.195-16.195zm0 24.389c-4.519 0-8.194-3.676-8.194-8.195s3.676-8.194 8.194-8.194 8.195 3.676 8.195 8.194-3.676 8.195-8.195 8.195zm25.642 162.052v27.543c0 2.209-1.791 4-4 4s-4-1.791-4-4v-27.543c0-2.209 1.791-4 4-4s4 1.791 4 4zm12.147-258.072c-.914 0-1.833-.312-2.585-.949l-8.472-7.184-8.472 7.184c-1.53 1.299-3.753 1.246-5.219-.038l-8.427-7.146-8.472 7.184c-1.685 1.43-4.209 1.221-5.638-.464s-1.221-4.209.464-5.638l11.059-9.377c1.492-1.266 3.682-1.266 5.174 0l8.472 7.184 8.472-7.184c1.492-1.266 3.682-1.266 5.174 0l11.059 9.377c1.685 1.429 1.893 3.953.464 5.638-.791.933-1.918 1.413-3.053 1.413zm-22.704 246.565c0 2.209-1.791 4-4 4-3.272 0-5.935 3.368-5.935 7.507 0 .243-.022.482-.063.713v26.83c0 2.209-1.791 4-4 4s-4-1.791-4-4v-33.297c0-1.842-1.498-3.34-3.34-3.34-2.209 0-4-1.791-4-4s1.791-4 4-4c3.726 0 7.038 1.807 9.106 4.589 2.308-1.887 5.155-3.002 8.232-3.002 2.209 0 4 1.791 4 4zm83.455-316.069c0-2.209 1.791-4 4-4h5.656c-.563-8.649-2.955-17.058-7.179-23.671-1.189-1.862-.644-4.335 1.218-5.524 1.863-1.189 4.337-.643 5.524 1.218 5.062 7.926 7.886 17.836 8.474 27.978h32.465c2.209 0 4 1.791 4 4s-1.791 4-4 4h-32.464c-.587 10.141-3.411 20.052-8.474 27.977-.763 1.194-2.056 1.847-3.375 1.847-.737 0-1.482-.203-2.149-.629-1.861-1.189-2.407-3.663-1.218-5.524 4.223-6.612 6.616-15.022 7.179-23.67h-5.656c-2.21-.002-4.001-1.793-4.001-4.002zm197.757 57.172c0 15.172 12.344 27.516 27.516 27.516 15.173 0 27.517-12.344 27.517-27.516s-12.344-27.516-27.517-27.516c-2.14 0-4.223.246-6.223.71-.13-.013-.262-.02-.396-.02-6.607 0-11.982-5.375-11.982-11.982 0-2.209-1.791-4-4-4s-4 1.791-4 4c0 7.255 3.886 13.619 9.686 17.12-6.448 5.04-10.601 12.888-10.601 21.688zm27.516-19.516c10.762 0 19.517 8.755 19.517 19.516s-8.755 19.516-19.517 19.516c-10.761 0-19.516-8.755-19.516-19.516s8.755-19.516 19.516-19.516zm-338.014 224.745c1.563 1.563 1.563 4.095 0 5.657-.78.781-1.805 1.171-2.828 1.171s-2.047-.391-2.828-1.171l-4.254-4.254-10.948 10.948c-.78.781-1.805 1.171-2.828 1.171s-2.048-.391-2.828-1.171c-1.563-1.563-1.563-4.095 0-5.657l10.947-10.947-4.253-4.253c-1.563-1.563-1.563-4.095 0-5.657 1.561-1.562 4.094-1.562 5.656 0l4.253 4.253 31.331-31.331c1.561-1.562 4.096-1.562 5.656 0 1.563 1.563 1.563 4.095 0 5.657l-31.33 31.33zm-26.797-98.87c-2.209 0-4-1.791-4-4v-39.176c0-2.158-1.756-3.914-3.913-3.914-2.209 0-4-1.791-4-4s1.791-4 4-4c4.298 0 8.071 2.287 10.166 5.709 3.009-2.435 6.91-3.93 11.176-3.996.097-.001 2.414-.002 2.51-.002 2.209 0 1.78 1.791 1.78 4s.663 4-1.546 4c-.076 0-2.605.001-2.681.002-5.159.106-9.319 3.835-9.319 8.403 0 .407-.061.799-.174 1.169v31.804c.001 2.21-1.79 4.001-3.999 4.001zm31.504-122.408c-1.429-1.685-1.221-4.209.464-5.638l11.059-9.377c1.492-1.266 3.682-1.266 5.174 0l11.059 9.377c1.685 1.429 1.893 3.953.464 5.638-.791.933-1.918 1.413-3.053 1.413-.914 0-1.833-.312-2.585-.949l-8.472-7.184-8.472 7.184c-1.685 1.43-4.209 1.221-5.638-.464zm362.651 322.177c0 2.209-1.791 4-4 4-6.569 0-11.913-5.345-11.913-11.914 0-2.209 1.791-4 4-4s4 1.791 4 4c0 2.158 1.756 3.914 3.913 3.914 2.209 0 4 1.791 4 4zm-95.086 46.382c.251.051.51.077.776.077 2.209 0 4 1.791 4 4s-1.791 4-4 4c-3.394 0-6.461-1.427-8.633-3.711-2.829 1.002-5.872 1.547-9.04 1.547-2.209 0-4-1.791-4-4s1.791-4 4-4c2.017 0 3.962-.314 5.79-.895-.017-.239-.027-.479-.029-.721-.001-.038-.002-.076-.002-.114v-29.694c0-2.209 1.791-4 4-4s4 1.791 4 4v25.582c3.337-3.448 5.393-8.143 5.393-13.308 0-2.209 1.791-4 4-4s4 1.791 4 4c-.001 8.589-4.01 16.259-10.255 21.237zm-195.438-39.757c.562 1.862-.298 3.858-2.037 4.73l-10.542 5.288c-.575.289-1.188.425-1.79.425-1.465 0-2.877-.809-3.578-2.208-.99-1.975-.192-4.378 1.782-5.369l2.421-1.214c-6.345-3.235-10.701-9.834-10.701-17.431 0-2.209 1.791-4 4-4s4 1.791 4 4c0 4.542 2.635 8.479 6.457 10.365l-1.077-3.569c-.638-2.115.561-4.347 2.675-4.984 2.118-.638 4.347.56 4.985 2.675zm317.57-127.144c-3.06 3.059-4.744 7.126-4.744 11.452s1.685 8.393 4.744 11.452c1.11 1.11 2.344 2.025 3.655 2.745-12.12 4.029-26.03 1.228-35.661-8.402-1.561-1.562-4.096-1.562-5.656 0-1.563 1.563-1.563 4.095 0 5.657 8.349 8.349 19.315 12.523 30.282 12.523s21.934-4.175 30.282-12.523c3.06-3.059 4.744-7.125 4.744-11.452 0-4.326-1.685-8.393-4.744-11.452-6.314-6.314-16.587-6.314-22.902 0zm17.247 17.246c-3.195 3.195-8.395 3.195-11.59 0-1.548-1.548-2.4-3.605-2.4-5.794 0-2.188.853-4.247 2.4-5.794 1.598-1.598 3.696-2.396 5.795-2.396s4.197.798 5.795 2.396c1.548 1.548 2.4 3.606 2.4 5.794 0 2.189-.853 4.246-2.4 5.794zm11.75-89.509c-.718 1.354-2.104 2.127-3.538 2.127-.632 0-1.272-.15-1.869-.467-11.069-5.868-29.775-5.869-40.847 0-1.953 1.036-4.374.29-5.407-1.661-1.034-1.952-.291-4.373 1.661-5.408 2.071-1.098 4.321-2.027 6.695-2.79v-40.211c0-2.209 1.791-4 4-4s4 1.791 4 4v38.338c6.19-.967 12.759-.967 18.948 0v-16.08c0-2.209 1.791-4 4-4s4 1.791 4 4v17.953c2.375.762 4.625 1.692 6.695 2.79 1.953 1.036 2.696 3.457 1.662 5.409zm-81.295 134.254c-.047 0-2.267 0-2.314 0-9.349.069-16.979 7.007-17.389 15.671-.044.238-.068 17.542-.068 17.542-2.405-1.417-5.207-2.23-8.194-2.23-8.93 0-16.194 7.265-16.194 16.195s7.265 16.195 16.194 16.195 16.194-7.265 16.194-16.195c0-.804.05-30.557.05-30.772 0-4.565 4.155-8.292 9.311-8.403.078-.001 1.964-.002 2.043-.002 2.209 0 2.193-1.791 2.193-4s.383-4.001-1.826-4.001zm-27.965 55.373c-4.519 0-8.194-3.676-8.194-8.195s3.676-8.195 8.194-8.195 8.194 3.676 8.194 8.195-3.676 8.195-8.194 8.195zm-141.53 40.731c0 2.209-1.791 4-4 4 0 0-16.657 0-16.758 0-1.023 0-2.048-.391-2.828-1.171-1.563-1.563-1.563-4.095 0-5.657 6.743-6.743 6.743-17.716 0-24.46-6.745-6.743-17.716-6.744-24.461 0-6.743 6.744-6.743 17.716 0 24.459 1.563 1.563 1.563 4.095 0 5.657-.856.857-2.007 1.244-3.128 1.16-.101.008-16.458.012-16.458.012-2.209 0-4-1.791-4-4s1.791-4 4-4h9.064c-4.572-9.428-2.951-21.129 4.866-28.945 9.861-9.863 25.91-9.863 35.773 0 7.817 7.816 9.438 19.517 4.866 28.945h9.064c2.209 0 4 1.791 4 4zm0 16.604c0 2.209-1.791 4-4 4h-63.633c-2.209 0-4-1.791-4-4s1.791-4 4-4h63.633c2.209 0 4 1.791 4 4zm74.372-41.309v29.694c0 2.209-1.791 4-4 4s-4-1.791-4-4v-29.694c0-2.209 1.791-4 4-4s4 1.791 4 4zm-11.382-12.406c0 2.209-1.791 4-4 4-3.7 0-6.71 3.771-6.71 8.406 0 .25-.023.496-.067.733v28.96c0 2.209-1.791 4-4 4s-4-1.791-4-4v-35.896c0-2.158-1.756-3.914-3.914-3.914-2.209 0-4-1.791-4-4s1.791-4 4-4c4.032 0 7.603 2.014 9.76 5.089 2.478-2.118 5.575-3.378 8.932-3.378 2.208 0 3.999 1.791 3.999 4zm5.411-377.467c5.468 12.418 8.479 28.854 8.479 46.279 0 2.209-1.791 4-4 4s-4-1.791-4-4c0-34.86-12.547-59.154-23.807-59.154-2.209 0-4-1.791-4-4s1.791-4 4-4c9.116 0 17.401 7.414 23.328 20.875z" fill="#ffb52d" data-original="#ffb52d" class=""></path><path d="m263.871 356.682c-2.577 0-4.765-1.98-4.978-4.595-.224-2.752 1.826-5.165 4.578-5.389 4.314-.351 8.631-1.014 12.829-1.97 2.692-.614 5.372 1.072 5.985 3.765s-1.072 5.373-3.765 5.985c-4.661 1.062-9.452 1.797-14.239 2.187-.136.011-.274.017-.41.017zm-29.172-2.054c-.366 0-.738-.041-1.11-.125-4.679-1.061-9.321-2.47-13.801-4.191-2.578-.99-3.864-3.883-2.874-6.46.989-2.578 3.879-3.867 6.46-2.875 4.032 1.549 8.213 2.818 12.426 3.773 2.692.61 4.381 3.289 3.771 5.981-.526 2.323-2.589 3.897-4.872 3.897zm69.905-10.819c-1.714 0-3.383-.882-4.314-2.466-1.4-2.38-.605-5.444 1.774-6.844 3.719-2.188 7.316-4.664 10.69-7.36 2.157-1.724 5.304-1.373 7.027.785 1.724 2.158 1.372 5.304-.785 7.027-3.744 2.992-7.735 5.739-11.862 8.167-.796.467-1.669.691-2.53.691zm-108.412-7.708c-1.094 0-2.193-.356-3.114-1.091-3.743-2.985-7.309-6.267-10.598-9.756-1.894-2.009-1.801-5.174.209-7.068s5.173-1.8 7.068.208c2.966 3.146 6.181 6.106 9.555 8.797 2.159 1.722 2.514 4.868.792 7.026-.987 1.239-2.443 1.884-3.912 1.884zm-26.666-33.365c-1.858 0-3.643-1.04-4.506-2.825-2.086-4.316-3.878-8.821-5.326-13.39-.834-2.632.624-5.442 3.256-6.277 2.639-.833 5.443.624 6.277 3.256 1.304 4.114 2.917 8.171 4.797 12.058 1.201 2.486.16 5.476-2.325 6.678-.701.34-1.443.5-2.173.5zm-9.525-41.635c-2.762 0-5-2.239-5-5h5l-5-.018c-.001-4.852.335-9.649.998-14.341.387-2.734 2.911-4.639 5.65-4.251 2.734.386 4.638 2.916 4.252 5.65-.598 4.231-.901 8.557-.901 12.859l.001.101c0 2.761-2.238 5-5 5zm9.431-41.656c-.727 0-1.464-.159-2.163-.495-2.488-1.197-3.536-4.185-2.339-6.673 2.074-4.313 4.482-8.521 7.159-12.509 1.539-2.294 4.644-2.905 6.938-1.366 2.293 1.539 2.904 4.646 1.365 6.938-2.411 3.594-4.582 7.386-6.45 11.271-.861 1.79-2.649 2.834-4.51 2.834zm26.616-33.426c-1.466 0-2.919-.642-3.906-1.875-1.726-2.156-1.377-5.302.778-7.028 3.741-2.995 7.729-5.747 11.853-8.178 2.381-1.402 5.444-.611 6.847 1.767 1.403 2.379.612 5.444-1.767 6.847-3.717 2.192-7.311 4.672-10.683 7.372-.922.736-2.026 1.095-3.122 1.095z" fill="#ffa90b" data-original="#ffa90b" class=""></path><path d="m325.813 195.102c-1.328 0-2.652-.525-3.636-1.567-2.968-3.142-6.186-6.098-9.563-8.786-2.161-1.72-2.519-4.865-.799-7.026 1.719-2.162 4.867-2.517 7.025-.799 3.747 2.982 7.315 6.26 10.606 9.745 1.896 2.008 1.806 5.172-.202 7.068-.966.912-2.2 1.365-3.431 1.365zm21.694 36.792c-2.12 0-4.088-1.359-4.765-3.488-1.305-4.108-2.922-8.163-4.808-12.051-1.205-2.485-.167-5.476 2.317-6.681 2.488-1.205 5.477-.167 6.681 2.317 2.094 4.319 3.891 8.823 5.341 13.387.836 2.632-.62 5.443-3.252 6.279-.503.161-1.013.237-1.514.237z" fill="#fff36c" data-original="#fff36c" class=""></path><path d="m351.042 274.659c-.234 0-.472-.016-.71-.05-2.734-.389-4.635-2.92-4.246-5.654.606-4.264.914-8.622.914-12.955l-.001-.202c0-2.761 2.238-5 5-5s5 2.239 5 5v.13c.001 4.875-.34 9.707-1.013 14.435-.355 2.494-2.495 4.296-4.944 4.296zm-60.72-103.339c-.595 0-1.199-.107-1.787-.332-4.034-1.545-8.215-2.81-12.429-3.76-2.694-.607-4.386-3.283-3.778-5.977s3.284-4.384 5.978-3.778c4.681 1.055 9.325 2.46 13.806 4.176 2.579.988 3.869 3.879 2.881 6.458-.763 1.991-2.659 3.213-4.671 3.213z" fill="#ffc14f" data-original="#ffc14f" class=""></path><path d="m335.699 314.53c-.96 0-1.93-.276-2.786-.852-2.291-1.541-2.899-4.648-1.357-6.939 2.415-3.59 4.589-7.379 6.461-11.263 1.198-2.487 4.191-3.53 6.675-2.333 2.488 1.199 3.532 4.188 2.333 6.675-2.078 4.311-4.491 8.517-7.172 12.502-.965 1.435-2.545 2.21-4.154 2.21zm-101.213-147.11c-2.279 0-4.339-1.569-4.869-3.885-.616-2.692 1.066-5.374 3.759-5.99 4.661-1.067 9.452-1.808 14.237-2.202 2.756-.227 5.167 1.821 5.394 4.573s-1.821 5.167-4.573 5.394c-4.313.354-8.628 1.022-12.827 1.983-.376.086-.751.127-1.121.127z" fill="#ffb52d" data-original="#ffb52d" class=""></path><path d="m485.064 184.949c-2.071 1.098-4.321 2.027-6.695 2.79v25.245c0 2.209-1.791 4-4 4s-4-1.791-4-4v-23.371c-3.095.483-6.285.725-9.475.725-8.696 0-17.393-1.796-24.169-5.389-1.952-1.035-2.695-3.456-1.661-5.408s3.456-2.695 5.407-1.661c11.072 5.869 29.778 5.868 40.847 0 1.951-1.037 4.374-.29 5.407 1.661 1.035 1.952.292 4.373-1.661 5.408zm-172.249-87.566c0-34.86 12.547-59.154 23.807-59.154 2.209 0 4-1.791 4-4s-1.791-4-4-4c-9.116 0-17.401 7.414-23.328 20.875-5.468 12.418-8.479 28.854-8.479 46.279 0 2.209 1.791 4 4 4s4-1.791 4-4zm-82.59-32.577c0-2.209-1.791-4-4-4h-5.657c.563-8.649 2.955-17.058 7.179-23.671 1.189-1.862.644-4.335-1.218-5.524-1.86-1.189-4.336-.644-5.524 1.218-5.062 7.926-7.886 17.836-8.474 27.978h-9.664c-2.209 0-4 1.791-4 4s1.791 4 4 4h9.665c.587 10.141 3.411 20.052 8.474 27.977.763 1.195 2.055 1.847 3.375 1.847.736 0 1.482-.204 2.149-.629 1.861-1.189 2.407-3.663 1.218-5.524-4.223-6.612-6.616-15.022-7.179-23.67h5.657c2.208-.002 3.999-1.793 3.999-4.002zm-90.204 62.453-11.059-9.377c-1.492-1.266-3.682-1.266-5.174 0l-11.059 9.377c-1.685 1.429-1.893 3.953-.464 5.638s3.952 1.894 5.638.464l8.472-7.184 8.472 7.184c.752.638 1.671.949 2.585.949 1.135 0 2.262-.48 3.053-1.413 1.429-1.685 1.221-4.209-.464-5.638zm-27.336-20.905-8.426-7.145-8.472 7.184c-1.685 1.43-4.209 1.221-5.638-.464s-1.221-4.209.464-5.638l11.059-9.377c1.492-1.266 3.682-1.266 5.174 0l8.472 7.184 8.472-7.184c1.492-1.266 3.682-1.266 5.174 0l11.059 9.377c1.685 1.429 1.893 3.953.464 5.638-.791.933-1.918 1.413-3.053 1.413-.914 0-1.833-.312-2.585-.949l-8.472-7.184-8.472 7.184c-1.532 1.299-3.755 1.245-5.22-.039zm292.538 263.224c-2.209 0-4 1.791-4 4s1.791 4 4 4c5.265 0 9.547 3.771 9.547 8.406v34.208c0 2.209 1.791 4 4 4s4-1.791 4-4v-34.208c0-9.046-7.872-16.406-17.547-16.406zm41.319-56.296c6.313-6.314 6.313-16.588 0-22.903-1.119-1.12-2.363-2.04-3.688-2.763 3.521-1.177 7.248-1.79 11.067-1.79 9.296 0 18.041 3.626 24.625 10.209 1.563 1.562 4.096 1.562 5.656 0 1.563-1.562 1.563-4.095 0-5.657-8.094-8.094-18.849-12.552-30.281-12.552-11.434 0-22.188 4.458-30.282 12.552-.003.003-.006.005-.009.008-3.054 3.058-4.735 7.122-4.735 11.443 0 4.326 1.685 8.393 4.744 11.452 3.157 3.157 7.304 4.735 11.451 4.735s8.295-1.577 11.452-4.734zm-5.657-17.246c3.195 3.195 3.195 8.395.001 11.589-3.195 3.195-8.395 3.195-11.59 0-1.548-1.548-2.4-3.605-2.4-5.794 0-2.188.853-4.247 2.4-5.794 1.598-1.598 3.696-2.396 5.795-2.396s4.197.797 5.794 2.395zm-12.15-176.661c-.712-7.703-4.675-14.531-10.488-19.08 5.804-3.5 9.694-9.867 9.694-17.125 0-2.209-1.791-4-4-4s-4 1.791-4 4c0 6.607-5.375 11.982-11.981 11.982-.129 0-.256.006-.382.018-1.184-.276-2.395-.474-3.63-.588-8.625-.799-16.538 2.412-22.088 7.98-1.536 1.541-1.476 4.059.063 5.598 1.564 1.564 4.089 1.552 5.656-.008 3.964-3.945 9.609-6.203 15.753-5.591 9.131.91 16.517 8.297 17.425 17.428.611 6.143-1.646 11.786-5.591 15.75-1.56 1.567-1.572 4.092-.009 5.656 1.539 1.538 4.057 1.599 5.598.063 5.566-5.549 8.777-13.46 7.98-22.083zm-96.449 319.39c-.971-8.004-7.138-14.194-14.577-14.194-.106 0-.526 0-.632 0-4.243 0-8.073 2.014-10.76 5.23-2.687-3.216-6.516-5.23-10.76-5.23-2.209 0-4 1.791-4 4s1.791 4 4 4c3.7 0 6.71 3.771 6.71 8.406 0 2.209 1.791 4 4 4h.1c2.209 0 4-1.791 4-4 0-4.635 3.01-8.406 6.71-8.406h.632c3.337 0 6.112 3.067 6.625 7.068.056.436.098 1.714.124 1.897v13.944c0 2.209 1.791 4 4 4s4-1.791 4-4v-14.502c0-.216-.109-1.694-.172-2.213zm-114.053 43.521c0-2.209-1.791-4-4-4h-26.867c-2.209 0-4 1.791-4 4s1.791 4 4 4h26.867c2.209 0 4-1.791 4-4zm-.227-13.776c-.78.781-1.805 1.171-2.828 1.171-.975 0-1.951-.355-2.716-1.063-1.693-1.569-1.533-4.298.074-5.955 6.556-6.758 6.494-17.589-.186-24.271-4.478-4.476-10.817-5.981-16.547-4.514-2.54.65-5.016-1.239-5.016-3.861 0-1.819 1.224-3.422 2.985-3.876 8.388-2.159 17.677.039 24.233 6.594 9.864 9.865 9.864 25.912.001 35.775zm-94.447-78.154c-.895-7.597-6.749-13.481-13.816-13.481-.099 0-.196.004-.293.011-.097-.007-.194-.011-.293-.011-3.909 0-7.447 1.801-9.979 4.696-2.533-2.895-6.071-4.696-9.98-4.696-2.209 0-4 1.791-4 4s1.791 4 4 4c3.272 0 5.935 3.368 5.935 7.507 0 2.209 1.791 4 4 4h.046s.031 0 .046 0c2.209 0 4-1.791 4-4 0-4.14 2.662-7.507 5.934-7.507.099 0 .196-.004.293-.011.097.007.194.011.293.011 2.958 0 5.417 2.751 5.863 6.337.047.382.085 1.533.108 1.709v27.006c0 2.209 1.791 4 4 4s4-1.791 4-4v-27.543c-.002-.211-.102-1.564-.157-2.028zm-34.371-107.175h-27.334c-2.209 0-4 1.791-4 4s1.791 4 4 4h17.677l-19.085 19.085c-1.563 1.563-1.563 4.095 0 5.657.78.781 1.805 1.171 2.828 1.171s2.048-.391 2.828-1.171l19.087-19.087v17.679c0 2.209 1.791 4 4 4s4-1.791 4-4v-27.335c-.001-2.208-1.792-3.999-4.001-3.999zm-19.647-94.413c-1.334-7.817-8.596-13.81-17.326-13.81-2.209 0-4 1.791-4 4s1.791 4 4 4c4.472 0 8.235 2.721 9.266 6.382.183.648.297 2.449.329 2.655v26.606c0 2.209 1.791 4 4 4s4-1.791 4-4v-27.238c.001-.25-.165-1.985-.269-2.595z" fill="#fff04a" data-original="#fff04a" class=""></path></g></g></svg>